<?xml version="1.0" standalone="no"?>
<!DOCTYPE svg PUBLIC "-//W3C//DTD SVG 20010904//EN"
 "http://www.w3.org/TR/2001/REC-SVG-20010904/DTD/svg10.dtd">
<svg version="1.0" xmlns="http://www.w3.org/2000/svg"
 width="512.000000pt" height="512.000000pt" viewBox="0 0 512.000000 512.000000"
 preserveAspectRatio="xMidYMid meet">

<g transform="translate(0.000000,512.000000) scale(0.100000,-0.100000)"
fill="#000000" stroke="none">
<path d="M371 4705 c-97 -30 -187 -116 -228 -216 -17 -42 -18 -121 -18 -1579
l0 -1535 28 -57 c36 -73 101 -139 175 -175 l57 -28 783 -3 c737 -2 783 -3 778
-20 -3 -9 -61 -143 -129 -297 l-124 -280 -112 -5 c-118 -5 -131 -11 -131 -56
0 -11 8 -28 18 -37 17 -16 107 -17 1094 -17 1029 0 1076 1 1091 18 19 21 22
49 7 72 -7 11 -37 16 -121 20 l-112 5 -124 280 c-68 154 -126 288 -129 297 -5
17 41 18 778 20 l783 3 60 29 c73 36 135 99 172 174 28 56 28 59 31 280 3 201
2 225 -14 243 -18 20 -50 24 -74 9 -12 -8 -16 -48 -20 -222 -5 -173 -9 -221
-23 -253 -22 -50 -70 -100 -122 -128 l-40 -22 -2120 -3 c-2360 -3 -2185 -8
-2267 66 -85 76 -78 -74 -78 1627 0 1701 -7 1551 78 1627 81 73 -91 68 2242
68 2331 0 2161 5 2241 -67 81 -73 73 45 79 -1306 5 -1182 5 -1209 24 -1223 27
-19 60 -18 80 5 15 17 16 108 14 1227 l-3 1209 -28 57 c-37 75 -99 138 -172
174 l-60 29 -2160 2 c-1811 1 -2167 0 -2204 -12z m2800 -3894 c71 -161 129
-295 129 -297 0 -2 -333 -4 -740 -4 -407 0 -740 2 -740 4 0 2 52 122 116 267
64 145 123 279 130 297 l14 32 481 -2 481 -3 129 -294z"/>
<path d="M525 4315 l-25 -24 0 -1268 c0 -999 3 -1273 13 -1293 16 -31 61 -39
88 -14 19 17 19 49 19 1261 l0 1243 1798 0 c1981 0 1842 -5 1842 60 0 65 142
60 -1878 60 l-1833 0 -24 -25z"/>
<path d="M4520 4320 c-20 -20 -20 -33 -20 -1265 l0 -1245 -1801 0 c-1222 0
-1807 -3 -1820 -10 -22 -12 -27 -68 -7 -88 9 -9 437 -12 1864 -12 l1853 0 15
22 c14 20 16 159 16 1296 l0 1273 -25 24 c-29 30 -49 31 -75 5z"/>
<path d="M1231 3909 c-75 -15 -168 -65 -232 -126 -192 -183 -190 -489 3 -669
276 -254 716 -105 780 264 54 314 -236 593 -551 531z m-85 -548 l-115 -115
-28 59 c-24 51 -28 73 -28 145 0 71 4 94 26 140 45 96 117 161 217 196 l37 12
3 -161 3 -161 -115 -115z m350 393 c60 -34 130 -116 153 -180 36 -94 24 -226
-25 -303 l-16 -24 -114 114 -114 114 0 162 0 161 38 -10 c20 -5 56 -20 78 -34z
m19 -594 c-19 -30 -100 -53 -190 -54 -78 -1 -98 3 -149 27 l-60 28 104 104
105 105 99 -99 c62 -62 96 -103 91 -111z"/>
<path d="M3702 3557 c-94 -36 -145 -143 -109 -230 l14 -32 -153 -158 -152
-158 -39 10 c-40 11 -94 3 -129 -19 -18 -11 -33 -4 -141 66 l-121 79 5 41 c7
55 -24 123 -72 160 -48 36 -133 44 -184 17 -134 -70 -132 -263 3 -324 50 -23
82 -24 140 -4 l46 16 118 -80 118 -79 1 -49 c1 -98 64 -164 163 -171 70 -5
119 15 158 66 24 32 27 44 27 117 l0 82 148 155 148 156 39 -5 c59 -8 107 5
147 40 64 56 80 134 44 214 -35 76 -141 120 -219 90z m98 -117 c23 -12 34 -55
20 -80 -32 -59 -120 -39 -120 27 0 51 52 79 100 53z m-1062 -216 c30 -21 28
-55 -7 -88 -37 -35 -74 -30 -89 11 -22 66 40 116 96 77z m532 -364 c28 -28 25
-64 -6 -89 -34 -26 -54 -26 -82 -1 -42 39 -14 110 43 110 14 0 34 -9 45 -20z"/>
<path d="M2269 3223 c-12 -13 -14 -126 -17 -618 -2 -598 -2 -602 19 -628 l20
-27 973 0 c1070 0 1016 -3 1016 60 0 47 -30 60 -137 60 l-93 0 0 429 c0 377
-2 431 -16 445 -13 13 -44 16 -184 16 -163 0 -169 -1 -184 -22 -14 -19 -16
-79 -16 -445 l0 -423 -80 0 -80 0 0 238 c0 199 -3 241 -16 260 -15 21 -21 22
-184 22 -163 0 -169 -1 -184 -22 -13 -19 -16 -61 -16 -260 l0 -238 -80 0 -80
0 0 340 c0 327 -1 341 -20 360 -18 18 -33 20 -180 20 -147 0 -162 -2 -180 -20
-19 -19 -20 -33 -20 -360 l0 -340 -80 0 -80 0 0 568 c0 538 -1 570 -18 585
-24 22 -66 22 -83 0z m1661 -763 l0 -390 -80 0 -80 0 0 390 0 390 80 0 80 0 0
-390z m-1120 -90 l0 -300 -80 0 -80 0 0 300 0 300 80 0 80 0 0 -300z m560 -95
l0 -205 -80 0 -80 0 0 205 0 205 80 0 80 0 0 -205z"/>
<path d="M933 2654 c-15 -24 -15 -29 -2 -53 l15 -26 284 0 284 0 15 26 c13 24
13 29 -2 53 l-17 26 -280 0 -280 0 -17 -26z"/>
<path d="M1666 2664 c-21 -21 -20 -57 2 -77 26 -24 193 -24 216 -1 19 18 21
65 4 82 -19 19 -202 16 -222 -4z"/>
<path d="M936 2348 c-21 -30 -20 -44 4 -68 18 -18 33 -20 163 -20 127 0 146 2
160 18 21 23 22 56 1 76 -13 13 -42 16 -164 16 -142 0 -150 -1 -164 -22z"/>
<path d="M1416 2348 c-21 -30 -20 -44 4 -68 19 -19 33 -20 233 -20 195 0 215
2 230 18 20 22 22 63 5 80 -9 9 -75 12 -234 12 -219 0 -223 0 -238 -22z"/>
<path d="M947 2050 c-32 -25 -34 -53 -7 -80 19 -19 33 -20 255 -20 222 0 236
1 255 20 24 24 25 49 6 76 -13 18 -30 19 -248 22 -226 3 -235 2 -261 -18z"/>
<path d="M1600 2063 c-41 -15 -51 -62 -20 -93 18 -18 33 -20 148 -20 144 0
172 10 172 60 0 50 -28 60 -165 59 -66 0 -127 -3 -135 -6z"/>
</g>
</svg>
