<?xml version="1.0" encoding="UTF-8"?>
<svg id="Layer_2" data-name="Layer 2" xmlns="http://www.w3.org/2000/svg" viewBox="0 0 510.63 510.66">
  <defs>
    <style>
      .cls-1 {
        fill: #010101;
      }

      .cls-2 {
        fill: #020202;
      }
    </style>
  </defs>
  <g id="Layer_9" data-name="Layer 9">
    <g>
      <path class="cls-2" d="M273.93,0l41.32,7.06c91.09,22.15,164.92,95.54,187.6,186.56l7.47,41.93c-.7,13.03.95,27.01,0,39.92-15.38,209.77-270.7,311.62-427.44,168.7C-81.68,294.1,14.4,17.3,234.03,0h39.9ZM242.8,30.23C66.51,40-32.01,241.92,71.63,386.56c93.47,130.44,288.96,124.36,374.28-11.38C542.99,220.73,423.9,20.2,242.8,30.23Z"/>
      <path class="cls-2" d="M333.43,177c59.33,56.42,32.88,159.45-44.33,184-105.16,33.44-190.02-92.08-119.88-175.84,7.49-8.94,24.21-26.45,34.72-10.85,9.16,13.6-2.53,19.16-9.79,27.81-50.98,60.82,3.27,149.87,79.97,131.92,55.67-13.03,79.65-80.01,46.09-126.37-6.91-9.54-25.71-21.46-12.41-34.56,9.04-8.9,18.19-3.19,25.62,3.88Z"/>
      <path class="cls-1" d="M251.71,120.99c8.74-1.82,17.17,4.37,18.25,13.22,3.12,25.6-2.33,57.52-.09,83.8-3.39,17.01-27.76,16.47-29.89-.91-3.13-25.59,2.34-57.53.08-83.8.84-5.36,6.32-11.2,11.63-12.31Z"/>
    </g>
  </g>
</svg>