<svg width="24" height="26" viewBox="0 0 24 26" fill="none" xmlns="http://www.w3.org/2000/svg">
<g clip-path="url(#clip0_5_10885)">
<path d="M9.89299 25.1295H8.03093C7.67017 25.1295 7.37602 24.8354 7.37602 24.4746V23.681C7.37602 23.3022 7.1332 22.965 6.76967 22.8401C6.48661 22.743 6.20633 22.6265 5.93854 22.4919C5.60692 22.3267 5.21009 22.3892 4.95063 22.6487L4.37064 23.2286C4.12366 23.4756 3.69214 23.4756 3.44516 23.2286L2.1284 21.9119C1.8731 21.6566 1.8731 21.2417 2.1284 20.9864L2.71532 20.3995C2.9734 20.1414 3.03723 19.7446 2.8735 19.4143C2.7403 19.1452 2.62514 18.8663 2.5294 18.5832C2.40729 18.2238 2.07429 17.9824 1.69827 17.9824H0.882406C0.521649 17.9824 0.228882 17.6883 0.228882 17.3289V15.4668C0.228882 15.1061 0.521649 14.8133 0.882406 14.8133H1.71353C2.08678 14.8133 2.41978 14.5733 2.54327 14.2167C2.63901 13.9392 2.75418 13.6644 2.88599 13.3994C3.05111 13.0664 2.98867 12.6696 2.7292 12.4101L2.12701 11.8079C2.00352 11.6844 1.93554 11.5207 1.93554 11.3459C1.93554 11.1711 2.00352 11.0073 2.12701 10.8838L3.44377 9.56708C3.69075 9.3201 4.12089 9.3201 4.36925 9.56708L4.97838 10.1762C5.23646 10.4343 5.63329 10.4981 5.96491 10.3344C6.22992 10.204 6.50465 10.0902 6.78216 9.99582C7.13598 9.87511 7.37324 9.54626 7.37324 9.1758V8.32247C7.37324 7.96171 7.66601 7.66895 8.02815 7.66895H9.89021C10.251 7.66895 10.5437 7.96171 10.5437 8.32247V9.1758C10.5437 9.54626 10.781 9.87511 11.1362 9.99582C11.4137 10.0902 11.6898 10.204 11.9535 10.3344C12.2851 10.4981 12.6819 10.4343 12.94 10.1762L13.5491 9.56708C13.803 9.31316 14.2193 9.31177 14.4746 9.56708L15.7913 10.8838C15.9148 11.0073 15.9828 11.1711 15.9828 11.3459C15.9828 11.5207 15.9148 11.6844 15.7913 11.8079L15.1892 12.4101C14.9297 12.6696 14.8673 13.0664 15.0324 13.3994C15.1642 13.663 15.2794 13.9378 15.3751 14.2167C15.4986 14.5733 15.8316 14.8133 16.2048 14.8133H17.036C17.3967 14.8133 17.6895 15.1061 17.6895 15.4668V17.3289C17.6895 17.6896 17.3967 17.9824 17.036 17.9824H16.2201C15.8455 17.9824 15.5111 18.2238 15.389 18.5832C15.2932 18.8663 15.1781 19.1465 15.0449 19.4143C14.8811 19.746 14.945 20.1414 15.203 20.3995L15.79 20.9864C16.0453 21.2417 16.0453 21.6566 15.79 21.9119L14.4732 23.2286C14.2179 23.4839 13.803 23.4839 13.5477 23.2286L12.9677 22.6487C12.7083 22.3892 12.3114 22.3267 11.9798 22.4919C11.712 22.6265 11.4317 22.743 11.1487 22.8401C10.7866 22.9636 10.5423 23.3022 10.5423 23.681V24.4746C10.5423 24.8354 10.2496 25.1295 9.88882 25.1295H9.89299ZM5.55281 21.9147C5.75816 21.9147 5.96491 21.9618 6.15777 22.0576C6.40753 22.1824 6.66699 22.2907 6.92923 22.3795C7.48979 22.571 7.86581 23.094 7.86581 23.681V24.4746C7.86581 24.5662 7.94074 24.6411 8.03232 24.6411H9.89437C9.98595 24.6411 10.0609 24.5662 10.0609 24.4746V23.681C10.0609 23.094 10.4369 22.571 10.9975 22.3795C11.2597 22.2893 11.5192 22.1811 11.7689 22.0576C12.2879 21.7981 12.9122 21.898 13.3202 22.3059L13.9002 22.8859C13.9654 22.9511 14.0708 22.9511 14.136 22.8859L15.4528 21.5692C15.4847 21.5372 15.5014 21.4956 15.5014 21.4512C15.5014 21.4068 15.4833 21.3652 15.4528 21.3333L14.8659 20.7464C14.4593 20.3398 14.3594 19.7182 14.6147 19.2007C14.7382 18.9523 14.8451 18.6928 14.9339 18.4292C15.1226 17.8714 15.6415 17.4968 16.227 17.4968H17.0429C17.1345 17.4968 17.2094 17.4219 17.2094 17.3303V15.4682C17.2094 15.3766 17.1345 15.3017 17.0429 15.3017H16.2118C15.6304 15.3017 15.1115 14.9299 14.9214 14.3762C14.8326 14.1182 14.7257 13.8629 14.6036 13.6186C14.3442 13.0983 14.4441 12.4739 14.852 12.0674L15.4542 11.4652C15.4861 11.4333 15.5027 11.3917 15.5027 11.3473C15.5027 11.3029 15.4847 11.2612 15.4542 11.2293L14.1374 9.91257C14.0722 9.84736 13.9668 9.84736 13.9015 9.91257L13.2924 10.5217C12.8873 10.9282 12.2657 11.0281 11.7453 10.7728C11.4997 10.6521 11.2444 10.5467 10.9864 10.4579C10.4341 10.2706 10.0637 9.75578 10.0637 9.1758V8.32247C10.0637 8.23089 9.98872 8.15597 9.89715 8.15597H8.03509C7.94351 8.15597 7.86859 8.23089 7.86859 8.32247V9.1758C7.86859 9.75439 7.49812 10.2706 6.94588 10.4579C6.68781 10.5453 6.4325 10.6507 6.18691 10.7728C5.66936 11.0295 5.04636 10.9282 4.63982 10.5217L4.0307 9.91257C3.96826 9.85013 3.85864 9.85013 3.79482 9.91257L2.47806 11.2293C2.44615 11.2612 2.42949 11.3029 2.42949 11.3473C2.42949 11.3917 2.44753 11.4333 2.47806 11.4652L3.08024 12.0674C3.48818 12.4753 3.58808 13.0983 3.32861 13.6186C3.20651 13.8642 3.09967 14.1195 3.01087 14.3762C2.82078 14.9299 2.30184 15.3017 1.72047 15.3017H0.889343C0.797767 15.3017 0.72284 15.3766 0.72284 15.4682V17.3303C0.72284 17.4219 0.797767 17.4968 0.889343 17.4968H1.70521C2.29074 17.4968 2.80968 17.8714 2.99838 18.4292C3.08718 18.6914 3.19402 18.9509 3.31751 19.2007C3.5742 19.7182 3.47291 20.3398 3.06637 20.7464L2.47945 21.3333C2.44753 21.3652 2.43088 21.4068 2.43088 21.4512C2.43088 21.4956 2.44892 21.5372 2.47945 21.5692L3.79621 22.8859C3.85864 22.9484 3.96826 22.9484 4.03208 22.8859L4.61207 22.3059C4.86876 22.0492 5.21009 21.9147 5.55836 21.9147H5.55281Z" fill="white"/>
<path d="M9.893 25.221H8.03094C7.62023 25.221 7.28584 24.8866 7.28584 24.4759V23.6822C7.28584 23.3423 7.06661 23.0398 6.74193 22.9288C6.45471 22.8303 6.17027 22.7123 5.8997 22.5764C5.60416 22.4279 5.24895 22.4848 5.01724 22.7165L4.43725 23.2965C4.30266 23.4311 4.1098 23.5088 3.90999 23.5088C3.71019 23.5088 3.51732 23.4311 3.38274 23.2965L2.06598 21.9797C1.77598 21.6883 1.77598 21.2152 2.06598 20.9252L2.6529 20.3383C2.88323 20.108 2.94011 19.7541 2.79443 19.4586C2.65984 19.1866 2.54328 18.9022 2.44616 18.6164C2.33793 18.2945 2.03822 18.0766 1.70244 18.0766H0.88658C0.475873 18.0766 0.141479 17.7422 0.141479 17.3315V15.4695C0.141479 15.0588 0.475873 14.7244 0.88658 14.7244H1.71771C2.0521 14.7244 2.35042 14.5093 2.46142 14.1888C2.55855 13.9071 2.6751 13.6282 2.8083 13.3604C2.95677 13.0635 2.89988 12.7083 2.66816 12.4766L2.06598 11.8744C1.92584 11.7329 1.84813 11.5455 1.84813 11.3471C1.84813 11.1487 1.92584 10.96 2.06598 10.8199L3.38274 9.50311C3.51732 9.36852 3.71019 9.29082 3.90999 9.29082C4.1098 9.29082 4.30266 9.36852 4.43725 9.50311L5.04638 10.1122C5.27671 10.3426 5.63052 10.3994 5.92745 10.2538C6.19525 10.1219 6.47414 10.0054 6.75581 9.90965C7.07216 9.80281 7.28584 9.50727 7.28584 9.17704V8.32371C7.28584 7.91301 7.62023 7.57861 8.03094 7.57861H9.893C10.3037 7.57861 10.6381 7.91301 10.6381 8.32371V9.17704C10.6381 9.50866 10.8504 9.80281 11.1681 9.90965C11.4512 10.0054 11.7301 10.1219 11.9965 10.2538C12.2934 10.3994 12.6472 10.3439 12.8776 10.1136L13.4867 9.5045C13.7781 9.21312 14.2512 9.21312 14.5412 9.5045L15.858 10.8213C15.9981 10.9614 16.0758 11.1487 16.0758 11.3485C16.0758 11.5483 15.9981 11.7342 15.858 11.8758L15.2558 12.478C15.0241 12.7097 14.9686 13.0649 15.117 13.3618C15.2502 13.6296 15.3668 13.9085 15.4639 14.1902C15.5735 14.5107 15.8732 14.7244 16.2076 14.7244H17.0387C17.4495 14.7244 17.7838 15.0588 17.7838 15.4695V17.3315C17.7838 17.7422 17.4495 18.0766 17.0387 18.0766H16.2229C15.8871 18.0766 15.5874 18.2931 15.4792 18.6164C15.382 18.9022 15.2655 19.1866 15.1309 19.4586C14.9852 19.7541 15.0407 20.108 15.2724 20.3383L15.8594 20.9252C16.1493 21.2166 16.1493 21.6897 15.8594 21.9797L14.5426 23.2965C14.2512 23.5865 13.7781 23.5865 13.4881 23.2965L12.9081 22.7165C12.6764 22.4848 12.3212 22.4293 12.0256 22.5764C11.7551 22.7123 11.4706 22.8303 11.1834 22.9288C10.8587 23.0398 10.6395 23.3423 10.6395 23.6822V24.4759C10.6395 24.8866 10.3051 25.221 9.89438 25.221H9.893ZM5.55282 22.3113C5.69712 22.3113 5.8442 22.3446 5.98018 22.4126C6.24381 22.5444 6.51993 22.6596 6.80021 22.7554C7.19981 22.8913 7.46761 23.2646 7.46761 23.6822V24.4759C7.46761 24.7867 7.72013 25.0392 8.03094 25.0392H9.893C10.2038 25.0392 10.4563 24.7867 10.4563 24.4759V23.6822C10.4563 23.2646 10.7241 22.8913 11.1237 22.7554C11.404 22.6596 11.6801 22.5444 11.9438 22.4126C12.3115 22.2295 12.7513 22.3002 13.0385 22.5875L13.6185 23.1674C13.8377 23.3867 14.1943 23.3867 14.4149 23.1674L15.7317 21.8507C15.9509 21.6315 15.9509 21.2749 15.7317 21.0556L15.1448 20.4687C14.8589 20.1829 14.7882 19.7444 14.9686 19.3781C15.099 19.1131 15.2142 18.837 15.3071 18.5581C15.4417 18.1613 15.8094 17.8949 16.2243 17.8949H17.0401C17.3509 17.8949 17.6035 17.6423 17.6035 17.3315V15.4695C17.6035 15.1587 17.3509 14.9061 17.0401 14.9061H16.209C15.7969 14.9061 15.4292 14.6411 15.2932 14.2484C15.1989 13.9737 15.0851 13.7031 14.9561 13.4423C14.7729 13.0746 14.8423 12.6347 15.1295 12.3475L15.7317 11.7453C15.8385 11.6385 15.8968 11.4984 15.8968 11.3471C15.8968 11.1959 15.8385 11.0557 15.7317 10.9489L14.4149 9.63215C14.1957 9.41292 13.8377 9.41292 13.6199 9.63215L13.0108 10.2413C12.7249 10.5271 12.2865 10.5979 11.9188 10.4161C11.6593 10.2884 11.3874 10.1761 11.1126 10.0817C10.7213 9.9485 10.4591 9.58497 10.4591 9.17565V8.32233C10.4591 8.01291 10.2066 7.76038 9.89577 7.76038H8.03372C7.72291 7.76038 7.47038 8.01291 7.47038 8.32233V9.17565C7.47038 9.58497 7.20814 9.94989 6.81686 10.0817C6.54213 10.1747 6.27017 10.2871 6.01071 10.4161C5.64301 10.5979 5.20455 10.5257 4.91872 10.2399L4.3096 9.63076C4.2097 9.53086 4.06401 9.47258 3.91277 9.47258C3.76014 9.47258 3.61584 9.53086 3.51594 9.63076L2.19918 10.9475C2.09234 11.0544 2.03406 11.1945 2.03406 11.3457C2.03406 11.497 2.09234 11.6371 2.19918 11.744L2.80136 12.3461C3.08858 12.6334 3.15796 13.0732 2.9748 13.4409C2.84438 13.7018 2.7306 13.9723 2.63625 14.2471C2.50027 14.6411 2.13258 14.9061 1.72048 14.9061H0.889355C0.579937 14.9061 0.327408 15.1587 0.327408 15.4695V17.3315C0.327408 17.6423 0.579937 17.8949 0.889355 17.8949H1.70522C2.12009 17.8949 2.48917 18.1613 2.62237 18.5581C2.71672 18.837 2.8305 19.1131 2.96093 19.3781C3.14131 19.7444 3.07193 20.1829 2.7861 20.4687L2.19918 21.0556C1.97995 21.2749 1.97995 21.6315 2.19918 21.8507L3.51594 23.1674C3.61584 23.2687 3.76153 23.3256 3.91277 23.3256C4.0654 23.3256 4.2097 23.2673 4.31099 23.1674L4.89097 22.5875C5.07135 22.4071 5.31278 22.3127 5.55698 22.3127L5.55282 22.3113ZM9.893 24.7326H8.03094C7.88941 24.7326 7.77286 24.6174 7.77286 24.4745V23.6808C7.77286 23.1328 7.42182 22.6443 6.89872 22.4654C6.6337 22.3752 6.37007 22.2642 6.11616 22.1379C5.63885 21.8992 5.04499 21.995 4.67036 22.3696L4.09037 22.9496C4.0432 22.9968 3.9766 23.0231 3.90861 23.0231C3.83923 23.0231 3.77263 22.9968 3.72545 22.9496L2.40869 21.6328C2.36013 21.5843 2.33377 21.5191 2.33377 21.4497C2.33377 21.3803 2.36013 21.3165 2.40869 21.2665L2.99562 20.6796C3.37441 20.3008 3.46737 19.7222 3.22872 19.2394C3.10384 18.9882 2.99562 18.7246 2.90543 18.4568C2.72921 17.9365 2.24497 17.5854 1.69967 17.5854H0.883805C0.742277 17.5854 0.625725 17.4703 0.625725 17.3274V15.4653C0.625725 15.3238 0.74089 15.2072 0.883805 15.2072H1.71493C2.25745 15.2072 2.7417 14.8603 2.9193 14.3428C3.00949 14.0806 3.11772 13.8225 3.24121 13.5741C3.48264 13.0885 3.38967 12.5071 3.01088 12.1283L2.40869 11.5261C2.36013 11.4776 2.33377 11.4137 2.33377 11.3444C2.33377 11.275 2.36013 11.2112 2.40869 11.1626L3.72545 9.84583C3.81981 9.75148 3.99602 9.75148 4.09037 9.84583L4.6995 10.455C5.07829 10.8337 5.65689 10.9267 6.14113 10.6881C6.3895 10.566 6.64897 10.4577 6.91121 10.3689C7.42598 10.1941 7.77147 9.71401 7.77147 9.17427V8.32094C7.77147 8.17941 7.88664 8.06286 8.02955 8.06286H9.89161C10.0331 8.06286 10.1497 8.17802 10.1497 8.32094V9.17427C10.1497 9.71401 10.4952 10.1941 11.01 10.3689C11.2722 10.4577 11.5317 10.566 11.78 10.6881C12.2643 10.9267 12.8443 10.8337 13.2217 10.455L13.8308 9.84583C13.9279 9.7487 14.0986 9.74731 14.1957 9.84583L15.5125 11.1626C15.561 11.2112 15.5874 11.2764 15.5874 11.3444C15.5874 11.4123 15.561 11.4776 15.5125 11.5275L14.9103 12.1297C14.5301 12.5099 14.4371 13.0912 14.6786 13.5755C14.8021 13.8239 14.9103 14.0833 15.0005 14.3442C15.1781 14.8617 15.6623 15.2086 16.2048 15.2086H17.036C17.1775 15.2086 17.2941 15.3238 17.2941 15.4667V17.3287C17.2941 17.4703 17.1789 17.5868 17.036 17.5868H16.2201C15.6748 17.5868 15.1906 17.9365 15.0143 18.4582C14.9242 18.726 14.8145 18.9882 14.6911 19.2408C14.4524 19.7236 14.5468 20.3036 14.9242 20.681L15.5111 21.2679C15.5596 21.3165 15.586 21.3817 15.586 21.4511C15.586 21.5205 15.5596 21.5843 15.5111 21.6342L14.1943 22.951C14.093 23.0509 13.9293 23.0509 13.8294 22.951L13.2494 22.371C12.8692 21.9908 12.2879 21.8979 11.8036 22.1393C11.5497 22.2656 11.2861 22.3766 11.0211 22.4667C10.498 22.6457 10.1469 23.1341 10.1469 23.6822V24.4759C10.1469 24.6174 10.0317 24.734 9.88883 24.734L9.893 24.7326ZM5.55282 21.8229C5.77483 21.8229 5.99822 21.8757 6.19802 21.9756C6.445 22.0991 6.7003 22.2059 6.95838 22.2933C7.55502 22.4973 7.95601 23.0551 7.95601 23.6822V24.4759C7.95601 24.5175 7.98931 24.5508 8.03094 24.5508H9.893C9.93462 24.5508 9.96792 24.5175 9.96792 24.4759V23.6822C9.96792 23.0551 10.3689 22.4973 10.9656 22.2933C11.2236 22.2059 11.4789 22.0991 11.7259 21.9756C12.2809 21.6981 12.9455 21.8049 13.3826 22.242L13.9626 22.822C13.9917 22.8511 14.0389 22.8511 14.0694 22.822L15.3862 21.5052C15.4001 21.4913 15.4084 21.4719 15.4084 21.4525C15.4084 21.433 15.4001 21.4136 15.3862 21.3997L14.7993 20.8128C14.365 20.3785 14.2581 19.7153 14.5315 19.1617C14.6522 18.9175 14.7577 18.6622 14.8465 18.4013C15.0476 17.8061 15.6013 17.4064 16.2257 17.4064H17.0415C17.0831 17.4064 17.1164 17.3731 17.1164 17.3315V15.4695C17.1164 15.4278 17.0831 15.3945 17.0415 15.3945H16.2104C15.5902 15.3945 15.0365 14.9977 14.834 14.4066C14.7466 14.1527 14.6411 13.9016 14.5204 13.6601C14.2443 13.1051 14.3497 12.4391 14.7854 12.0034L15.3876 11.4012C15.4015 11.3874 15.4098 11.3679 15.4098 11.3485C15.4098 11.3291 15.4029 11.3097 15.3876 11.2958L14.0708 9.97903C14.0431 9.94989 13.9931 9.95128 13.9654 9.97903L13.3563 10.5882C12.922 11.0224 12.2587 11.1307 11.7037 10.8559C11.4623 10.7366 11.2111 10.6326 10.9558 10.5465C10.3661 10.3467 9.9707 9.79726 9.9707 9.17843V8.3251C9.9707 8.28348 9.9374 8.25017 9.89577 8.25017H8.03372C7.99209 8.25017 7.95879 8.28348 7.95879 8.3251V9.17843C7.95879 9.79726 7.56334 10.3467 6.97365 10.5465C6.71834 10.6326 6.4672 10.7366 6.22577 10.8559C5.67215 11.1293 5.00753 11.0224 4.57323 10.5882L3.96411 9.97903C3.93913 9.95267 3.88502 9.95267 3.85866 9.97903L2.5419 11.2958C2.52802 11.3097 2.5197 11.3291 2.5197 11.3485C2.5197 11.3679 2.52663 11.3874 2.5419 11.4012L3.14408 12.0034C3.57976 12.4391 3.6866 13.1051 3.4091 13.6601C3.28838 13.9016 3.18293 14.1527 3.09552 14.408C2.89294 14.9991 2.33932 15.3959 1.71771 15.3959H0.88658C0.844954 15.3959 0.811653 15.4292 0.811653 15.4708V17.3329C0.811653 17.3745 0.844954 17.4078 0.88658 17.4078H1.70244C2.32683 17.4078 2.88045 17.8074 3.08164 18.4027C3.16906 18.6622 3.2759 18.9188 3.39661 19.1631C3.66995 19.7167 3.56311 20.3799 3.12882 20.8142L2.5419 21.4011C2.52802 21.415 2.5197 21.4344 2.5197 21.4539C2.5197 21.4733 2.52802 21.4927 2.5419 21.5066L3.85866 22.8233C3.87114 22.8358 3.89057 22.8442 3.91138 22.8442C3.93219 22.8442 3.95162 22.8372 3.96411 22.8233L4.54409 22.2434C4.81327 21.9742 5.17264 21.8257 5.5556 21.8257L5.55282 21.8229Z" fill="white"/>
<path d="M8.96197 21.2723C6.27434 21.2723 4.08899 19.0856 4.08899 16.3994C4.08899 13.7131 6.27573 11.5264 8.96197 11.5264C11.6482 11.5264 13.835 13.7131 13.835 16.3994C13.835 19.0856 11.6482 21.2723 8.96197 21.2723ZM8.96197 12.0134C6.54352 12.0134 4.57601 13.9809 4.57601 16.3994C4.57601 18.8178 6.54352 20.7853 8.96197 20.7853C11.3804 20.7853 13.3479 18.8178 13.3479 16.3994C13.3479 13.9809 11.3804 12.0134 8.96197 12.0134Z" fill="white"/>
<path d="M8.962 21.3637C6.22441 21.3637 3.99744 19.1367 3.99744 16.3991C3.99744 13.6615 6.22441 11.4346 8.962 11.4346C11.6996 11.4346 13.9266 13.6615 13.9266 16.3991C13.9266 19.1367 11.6996 21.3637 8.962 21.3637ZM8.962 11.6163C6.3257 11.6163 4.18059 13.7614 4.18059 16.3977C4.18059 19.034 6.3257 21.1791 8.962 21.1791C11.5983 21.1791 13.7434 19.034 13.7434 16.3977C13.7434 13.7614 11.5983 11.6163 8.962 11.6163ZM8.962 20.8753C6.49359 20.8753 4.48446 18.8675 4.48446 16.3977C4.48446 13.928 6.4922 11.9202 8.962 11.9202C11.4318 11.9202 13.4395 13.928 13.4395 16.3977C13.4395 18.8675 11.4318 20.8753 8.962 20.8753ZM8.962 12.1047C6.59488 12.1047 4.66761 14.0306 4.66761 16.3991C4.66761 18.7676 6.59349 20.6935 8.962 20.6935C11.3305 20.6935 13.2564 18.7676 13.2564 16.3991C13.2564 14.0306 11.3305 12.1047 8.962 12.1047Z" fill="white"/>
<path d="M20.9238 14.6816H20.2314C20.0968 14.6816 19.9886 14.572 19.9886 14.4388V14.1432C19.9886 14.0017 19.8984 13.8768 19.7638 13.831C19.6583 13.795 19.5543 13.752 19.4544 13.702C19.3309 13.641 19.1838 13.6645 19.0867 13.7603L18.8716 13.9754C18.78 14.0669 18.6191 14.0669 18.5275 13.9754L18.0377 13.4856C17.9434 13.3912 17.9434 13.2358 18.0377 13.1414L18.2556 12.9236C18.3513 12.8279 18.3749 12.6808 18.3138 12.5573C18.2639 12.4574 18.2209 12.3533 18.1862 12.2479C18.1404 12.1147 18.0169 12.0245 17.8768 12.0245H17.5729C17.4383 12.0245 17.3301 11.9149 17.3301 11.7817V11.0893C17.3301 10.9547 17.4397 10.8465 17.5729 10.8465H17.8823C18.0211 10.8465 18.1459 10.7577 18.1903 10.6245C18.2264 10.5218 18.268 10.4191 18.318 10.3206C18.379 10.1971 18.3568 10.0487 18.2597 9.95292L18.0363 9.72953C17.9905 9.68374 17.9656 9.62269 17.9656 9.55747C17.9656 9.49226 17.9905 9.43121 18.0363 9.38542L18.5261 8.89563C18.6177 8.80405 18.7787 8.80405 18.8702 8.89563L19.0964 9.12179C19.1921 9.21753 19.3406 9.24112 19.4627 9.18007C19.5612 9.13151 19.6639 9.08849 19.7666 9.0538C19.8984 9.0094 19.9872 8.88591 19.9872 8.74855V8.4308C19.9872 8.29622 20.0968 8.18799 20.23 8.18799H20.9224C21.057 8.18799 21.1652 8.2976 21.1652 8.4308V8.74855C21.1652 8.88591 21.254 9.0094 21.3858 9.0538C21.4899 9.08849 21.5912 9.13151 21.6897 9.18007C21.8132 9.24112 21.9602 9.21753 22.056 9.12179L22.2822 8.89563C22.3765 8.80127 22.5319 8.80127 22.6263 8.89563L23.1161 9.38542C23.1618 9.43121 23.1868 9.49226 23.1868 9.55747C23.1868 9.62269 23.1618 9.68374 23.1161 9.72953L22.8927 9.95292C22.7955 10.05 22.7733 10.1971 22.8344 10.3206C22.8829 10.4191 22.926 10.5204 22.962 10.6245C23.0078 10.7577 23.1313 10.8465 23.2701 10.8465H23.5795C23.7141 10.8465 23.8223 10.9561 23.8223 11.0893V11.7817C23.8223 11.9163 23.7127 12.0245 23.5795 12.0245H23.2756C23.1355 12.0245 23.012 12.1147 22.9662 12.2479C22.9301 12.3533 22.8871 12.4574 22.8385 12.5573C22.7775 12.6808 22.8011 12.8279 22.8968 12.9236L23.1147 13.1414C23.209 13.2358 23.209 13.3912 23.1147 13.4856L22.6249 13.9754C22.5305 14.0697 22.3751 14.0697 22.2808 13.9754L22.0657 13.7603C21.9686 13.6632 21.8215 13.641 21.698 13.702C21.5981 13.752 21.494 13.795 21.3886 13.831C21.254 13.8768 21.1638 14.0031 21.1638 14.1432V14.4388C21.1638 14.5734 21.0542 14.6816 20.921 14.6816H20.9238ZM19.3101 13.4856C19.3864 13.4856 19.4627 13.5036 19.5349 13.5383C19.6278 13.5841 19.7236 13.6243 19.8221 13.6576C20.0302 13.7284 20.1703 13.924 20.1703 14.1419V14.4374C20.1703 14.4721 20.1981 14.4998 20.2328 14.4998H20.9252C20.9598 14.4998 20.9876 14.4721 20.9876 14.4374V14.1419C20.9876 13.924 21.1277 13.7284 21.3359 13.6576C21.433 13.6243 21.5301 13.5841 21.6231 13.5383C21.8159 13.4412 22.0477 13.4786 22.2003 13.6312L22.4154 13.8463C22.4389 13.8699 22.4792 13.8699 22.5028 13.8463L22.9926 13.3565C23.0037 13.3454 23.0106 13.3288 23.0106 13.3121C23.0106 13.2955 23.0037 13.2802 22.9926 13.2677L22.7747 13.0499C22.6235 12.8986 22.586 12.6669 22.6818 12.4741C22.7275 12.3811 22.7678 12.2853 22.8011 12.1868C22.8705 11.9787 23.0647 11.84 23.2826 11.84H23.5864C23.6211 11.84 23.6489 11.8122 23.6489 11.7775V11.0851C23.6489 11.0505 23.6211 11.0227 23.5864 11.0227H23.277C23.0606 11.0227 22.8677 10.8839 22.7969 10.6786C22.7636 10.5829 22.7248 10.4871 22.679 10.3969C22.5819 10.2027 22.6193 9.97096 22.7719 9.81972L22.9953 9.59633C23.0064 9.58523 23.0134 9.56857 23.0134 9.55192C23.0134 9.53527 23.0064 9.52001 22.9953 9.50752L22.5055 9.01773C22.482 8.99414 22.4417 8.99414 22.4181 9.01773L22.192 9.24389C22.0407 9.39513 21.8104 9.4326 21.6161 9.33686C21.5246 9.29246 21.4302 9.25222 21.3345 9.22031C21.1291 9.15093 20.9918 8.95945 20.9918 8.743V8.42526C20.9918 8.39057 20.964 8.36282 20.9293 8.36282H20.2369C20.2023 8.36282 20.1745 8.39057 20.1745 8.42526V8.743C20.1745 8.95806 20.0371 9.14954 19.8318 9.22031C19.736 9.25222 19.6403 9.29246 19.5501 9.33686C19.3572 9.4326 19.1255 9.39513 18.9743 9.24389L18.7481 9.01773C18.7245 8.99414 18.6843 8.99414 18.6607 9.01773L18.1709 9.50752C18.1598 9.51862 18.1529 9.53527 18.1529 9.55192C18.1529 9.56857 18.1598 9.58384 18.1709 9.59633L18.3943 9.81972C18.5455 9.97096 18.583 10.2041 18.4873 10.3969C18.4415 10.4885 18.4026 10.5829 18.3693 10.6786C18.2986 10.8853 18.1057 11.0227 17.8892 11.0227H17.5798C17.5451 11.0227 17.5174 11.0505 17.5174 11.0851V11.7775C17.5174 11.8122 17.5451 11.84 17.5798 11.84H17.8837C18.1015 11.84 18.2944 11.9801 18.3652 12.1868C18.3985 12.284 18.4387 12.3811 18.4845 12.4741C18.5802 12.6669 18.5428 12.8986 18.3915 13.0499L18.1737 13.2677C18.1626 13.2788 18.1557 13.2955 18.1557 13.3121C18.1557 13.3288 18.1626 13.344 18.1737 13.3565L18.6635 13.8463C18.6871 13.8699 18.7273 13.8699 18.7509 13.8463L18.966 13.6312C19.0617 13.5355 19.1894 13.4856 19.3184 13.4856H19.3101Z" fill="white"/>
<path d="M20.9238 14.7163H20.2314C20.0788 14.7163 19.9539 14.5914 19.9539 14.4388V14.1433C19.9539 14.017 19.8721 13.9046 19.7514 13.863C19.6445 13.8269 19.5391 13.7825 19.4378 13.7326C19.3282 13.6771 19.195 13.6979 19.1089 13.7853L18.8939 14.0003C18.8439 14.0503 18.7718 14.0794 18.6982 14.0794C18.6233 14.0794 18.5525 14.0503 18.5026 14.0003L18.0128 13.5106C17.9046 13.4023 17.9046 13.2261 18.0128 13.1179L18.232 12.9C18.318 12.814 18.3389 12.6822 18.2847 12.5726C18.2348 12.4713 18.1918 12.3658 18.1557 12.259C18.1155 12.1397 18.0045 12.0578 17.8796 12.0578H17.5757C17.4231 12.0578 17.2982 11.9329 17.2982 11.7803V11.0879C17.2982 10.9353 17.4231 10.8104 17.5757 10.8104H17.8851C18.01 10.8104 18.121 10.73 18.1613 10.612C18.1973 10.5079 18.2403 10.4039 18.2903 10.304C18.3458 10.193 18.325 10.0612 18.239 9.97514L18.0156 9.75175C17.9628 9.69902 17.9337 9.62965 17.9337 9.55611C17.9337 9.48257 17.9628 9.4118 18.0156 9.36047L18.5054 8.87067C18.5553 8.82072 18.6275 8.79158 18.701 8.79158C18.7759 8.79158 18.8467 8.82072 18.8966 8.87067L19.1228 9.09684C19.2088 9.18286 19.3407 9.20368 19.4503 9.14956C19.5502 9.09961 19.6542 9.05799 19.7583 9.02191C19.8762 8.98167 19.9553 8.87206 19.9553 8.74857V8.43083C19.9553 8.2782 20.0802 8.15332 20.2328 8.15332H20.9252C21.0778 8.15332 21.2027 8.2782 21.2027 8.43083V8.74857C21.2027 8.87206 21.2818 8.98167 21.3997 9.02191C21.5052 9.05799 21.6093 9.101 21.7078 9.14956C21.8188 9.20368 21.9492 9.18286 22.0352 9.09684L22.2614 8.87067C22.3696 8.76244 22.5458 8.76244 22.6541 8.87067L23.1439 9.36047C23.1966 9.41319 23.2257 9.48257 23.2257 9.55611C23.2257 9.62965 23.1966 9.70041 23.1439 9.75175L22.9205 9.97514C22.8344 10.0612 22.8136 10.193 22.8691 10.304C22.9191 10.4039 22.9621 10.5079 22.9982 10.612C23.0398 10.7313 23.1508 10.8104 23.2743 10.8104H23.5837C23.7363 10.8104 23.8612 10.9353 23.8612 11.0879V11.7803C23.8612 11.9329 23.7363 12.0578 23.5837 12.0578H23.2798C23.155 12.0578 23.044 12.1383 23.0037 12.259C22.9676 12.3658 22.9246 12.4713 22.8747 12.5726C22.8206 12.6822 22.8414 12.814 22.9274 12.9L23.1452 13.1179C23.2535 13.2261 23.2535 13.4023 23.1452 13.5106L22.6554 14.0003C22.5472 14.1086 22.371 14.1086 22.2628 14.0003L22.0477 13.7839C21.9617 13.6979 21.8299 13.6771 21.7189 13.7326C21.6176 13.7825 21.5121 13.8269 21.4053 13.863C21.2846 13.9046 21.2027 14.017 21.2027 14.1433V14.4388C21.2027 14.5914 21.0778 14.7163 20.9252 14.7163H20.9238ZM19.3101 13.6327C19.3642 13.6327 19.4184 13.6451 19.4697 13.6701C19.5682 13.7187 19.6709 13.7617 19.7749 13.7978C19.9234 13.8491 20.0233 13.9865 20.0233 14.1433V14.4388C20.0233 14.554 20.1177 14.6483 20.2328 14.6483H20.9252C21.0404 14.6483 21.1347 14.554 21.1347 14.4388V14.1433C21.1347 13.9879 21.2346 13.8491 21.3831 13.7978C21.4872 13.7617 21.5898 13.7187 21.6883 13.6701C21.8257 13.6021 21.988 13.6285 22.0949 13.7353L22.31 13.9518C22.3918 14.0336 22.525 14.0336 22.6055 13.9518L23.0953 13.462C23.1772 13.3801 23.1772 13.2469 23.0953 13.1664L22.8775 12.9486C22.7706 12.8418 22.7442 12.6794 22.8122 12.5434C22.8608 12.4449 22.9038 12.3423 22.9385 12.2382C22.9885 12.0911 23.1258 11.9912 23.2798 11.9912H23.5837C23.6989 11.9912 23.7932 11.8969 23.7932 11.7817V11.0893C23.7932 10.9742 23.6989 10.8798 23.5837 10.8798H23.2743C23.1203 10.8798 22.9843 10.7813 22.933 10.6356C22.8983 10.5343 22.8553 10.433 22.8067 10.3359C22.7387 10.1985 22.7651 10.0348 22.8719 9.92796L23.0953 9.70457C23.1355 9.66572 23.1563 9.613 23.1563 9.55611C23.1563 9.49922 23.1341 9.44788 23.0953 9.40764L22.6055 8.91785C22.5236 8.83598 22.3904 8.83598 22.31 8.91785L22.0838 9.14401C21.9769 9.25085 21.8146 9.27722 21.6772 9.20923C21.5801 9.16205 21.4802 9.12042 21.3775 9.08435C21.2318 9.0344 21.1347 8.89981 21.1347 8.74718V8.42944C21.1347 8.31427 21.0404 8.21992 20.9252 8.21992H20.2328C20.1177 8.21992 20.0233 8.31427 20.0233 8.42944V8.74718C20.0233 8.89981 19.9262 9.0344 19.7805 9.08435C19.6778 9.11904 19.5779 9.16066 19.4808 9.20923C19.3448 9.27722 19.1811 9.25085 19.0742 9.14401L18.8481 8.91785C18.8106 8.88038 18.7565 8.85957 18.6996 8.85957C18.6427 8.85957 18.5886 8.88177 18.5512 8.91785L18.0614 9.40764C18.0211 9.44649 18.0003 9.49922 18.0003 9.55611C18.0003 9.613 18.0225 9.66433 18.0614 9.70457L18.2847 9.92796C18.3916 10.0348 18.4179 10.1985 18.35 10.3359C18.3014 10.433 18.2598 10.5343 18.2237 10.6356C18.1737 10.7827 18.0364 10.8812 17.8824 10.8812H17.5729C17.4578 10.8812 17.3634 10.9755 17.3634 11.0907V11.7831C17.3634 11.8982 17.4578 11.9926 17.5729 11.9926H17.8768C18.0308 11.9926 18.1682 12.0925 18.2181 12.2396C18.2528 12.3436 18.2958 12.4463 18.3444 12.5448C18.4124 12.6808 18.386 12.8445 18.2792 12.95L18.06 13.1678C17.9781 13.2497 17.9781 13.3829 18.06 13.4634L18.5498 13.9532C18.5872 13.9906 18.6413 14.0128 18.6982 14.0128C18.7551 14.0128 18.8092 13.9906 18.8467 13.9532L19.0618 13.7381C19.1284 13.6715 19.2186 13.6354 19.3101 13.6354V13.6327ZM20.9238 14.5345H20.2314C20.1787 14.5345 20.1357 14.4915 20.1357 14.4388V14.1433C20.1357 13.9393 20.0053 13.7575 19.811 13.6909C19.7125 13.6576 19.614 13.616 19.5196 13.5688C19.342 13.48 19.1214 13.5161 18.9827 13.6549L18.7676 13.8699C18.7496 13.888 18.726 13.8977 18.6996 13.8977C18.6733 13.8977 18.6497 13.888 18.6316 13.8699L18.1418 13.3801C18.1238 13.3621 18.1141 13.3385 18.1141 13.3121C18.1141 13.2858 18.1238 13.2622 18.1418 13.2441L18.3597 13.0263C18.4998 12.8848 18.5359 12.6697 18.4471 12.4907C18.4013 12.3978 18.3597 12.2992 18.3264 12.1993C18.2612 12.0051 18.0808 11.8747 17.8782 11.8747H17.5743C17.5216 11.8747 17.4786 11.8316 17.4786 11.7789V11.0865C17.4786 11.0338 17.5216 10.9908 17.5743 10.9908H17.8838C18.0849 10.9908 18.2653 10.8618 18.3319 10.6689C18.3652 10.5718 18.4055 10.4746 18.4512 10.3831C18.5414 10.2027 18.5068 9.98624 18.3652 9.84471L18.1418 9.62132C18.1238 9.60328 18.1141 9.57969 18.1141 9.55333C18.1141 9.52697 18.1238 9.50338 18.1418 9.48534L18.6316 8.99555C18.6663 8.96086 18.7315 8.96086 18.7676 8.99555L18.9938 9.22171C19.1353 9.36324 19.3504 9.39793 19.5307 9.30913C19.6237 9.26334 19.7194 9.2231 19.8166 9.1898C20.0081 9.12459 20.1371 8.9456 20.1371 8.74579V8.42805C20.1371 8.37532 20.1801 8.33231 20.2328 8.33231H20.9252C20.9779 8.33231 21.0209 8.37532 21.0209 8.42805V8.74579C21.0209 8.94698 21.15 9.12598 21.3415 9.1898C21.4386 9.2231 21.5357 9.26334 21.6273 9.30913C21.8077 9.39793 22.0227 9.36324 22.1643 9.22171L22.3904 8.99555C22.4265 8.95947 22.4903 8.95947 22.5264 8.99555L23.0162 9.48534C23.0342 9.50338 23.044 9.52697 23.044 9.55333C23.044 9.57969 23.0342 9.60328 23.0162 9.62132L22.7928 9.84471C22.6513 9.98624 22.6166 10.2027 22.7068 10.3831C22.7526 10.476 22.7928 10.5718 22.8261 10.6689C22.8927 10.8618 23.0717 10.9908 23.2743 10.9908H23.5837C23.6364 10.9908 23.6794 11.0338 23.6794 11.0865V11.7789C23.6794 11.8316 23.6364 11.8747 23.5837 11.8747H23.2798C23.0773 11.8747 22.8969 12.0051 22.8317 12.1993C22.7984 12.2992 22.7581 12.3964 22.7109 12.4907C22.6221 12.6711 22.6568 12.8862 22.7984 13.0263L23.0162 13.2441C23.0342 13.2622 23.044 13.2858 23.044 13.3121C23.044 13.3385 23.0342 13.3621 23.0162 13.3801L22.5264 13.8699C22.4889 13.9074 22.4279 13.9074 22.3904 13.8699L22.1754 13.6549C22.0338 13.5133 21.8174 13.4786 21.6384 13.5688C21.544 13.616 21.4455 13.6562 21.347 13.6909C21.1528 13.7575 21.0223 13.9393 21.0223 14.1433V14.4388C21.0223 14.4915 20.9793 14.5345 20.9266 14.5345H20.9238ZM19.3101 13.4523C19.3934 13.4523 19.4752 13.4717 19.5502 13.5092C19.6417 13.555 19.7375 13.5952 19.8332 13.6271C20.0552 13.7034 20.2051 13.9102 20.2051 14.1433V14.4388C20.2051 14.4541 20.2176 14.4666 20.2328 14.4666H20.9252C20.9405 14.4666 20.953 14.4541 20.953 14.4388V14.1433C20.953 13.9102 21.1028 13.702 21.3248 13.6271C21.4206 13.5938 21.5163 13.555 21.6079 13.5092C21.8146 13.4065 22.0616 13.4453 22.2239 13.6077L22.439 13.8227C22.4501 13.8338 22.4681 13.8338 22.4778 13.8227L22.9676 13.3329C22.9676 13.3329 22.976 13.3205 22.976 13.3135C22.976 13.3066 22.9732 13.2996 22.9676 13.2941L22.7498 13.0763C22.5888 12.9153 22.5486 12.6683 22.6499 12.4616C22.6943 12.37 22.7345 12.2757 22.7664 12.1785C22.8414 11.9565 23.0481 11.8081 23.2798 11.8081H23.5837C23.599 11.8081 23.6115 11.7956 23.6115 11.7803V11.0879C23.6115 11.0727 23.599 11.0602 23.5837 11.0602H23.2743C23.044 11.0602 22.8372 10.9131 22.7623 10.6925C22.7304 10.5981 22.6901 10.5038 22.6457 10.415C22.5431 10.2082 22.5819 9.95988 22.7442 9.79892L22.9676 9.57553C22.9676 9.57553 22.976 9.56305 22.976 9.55611C22.976 9.54917 22.9732 9.54223 22.9676 9.53668L22.4778 9.04689C22.4667 9.03579 22.4487 9.03579 22.439 9.04689L22.2128 9.27305C22.0519 9.43401 21.8049 9.47424 21.5982 9.37295C21.508 9.32855 21.415 9.2897 21.3207 9.25779C21.1014 9.18286 20.9543 8.9789 20.9543 8.74857V8.43083C20.9543 8.41556 20.9419 8.40308 20.9266 8.40308H20.2342C20.219 8.40308 20.2065 8.41556 20.2065 8.43083V8.74857C20.2065 8.9789 20.0594 9.18286 19.8402 9.25779C19.7458 9.2897 19.6515 9.32855 19.5627 9.37295C19.3559 9.47424 19.1103 9.43539 18.948 9.27305L18.7218 9.04689C18.7121 9.03717 18.6927 9.03717 18.683 9.04689L18.1932 9.53668C18.1932 9.53668 18.1848 9.54917 18.1848 9.55611C18.1848 9.56305 18.1876 9.56998 18.1932 9.57553L18.4166 9.80031C18.5789 9.96265 18.6178 10.2096 18.5151 10.4164C18.4707 10.5066 18.4304 10.5995 18.3985 10.6939C18.3236 10.9131 18.1169 11.0616 17.8865 11.0616H17.5771C17.5618 11.0616 17.5494 11.0741 17.5494 11.0893V11.7817C17.5494 11.797 17.5618 11.8094 17.5771 11.8094H17.881C18.1127 11.8094 18.3194 11.9579 18.3944 12.1799C18.4277 12.277 18.4665 12.3714 18.5109 12.463C18.6122 12.6683 18.572 12.9153 18.411 13.0776L18.1918 13.2955C18.1918 13.2955 18.1835 13.308 18.1835 13.3149C18.1835 13.3218 18.1862 13.3288 18.1918 13.3343L18.6816 13.8241C18.6816 13.8241 18.6941 13.8311 18.701 13.8311C18.7079 13.8311 18.7163 13.8283 18.7204 13.8241L18.9355 13.6091C19.0354 13.5092 19.17 13.4537 19.3115 13.4537L19.3101 13.4523Z" fill="white"/>
<path d="M20.5784 13.2466C19.5794 13.2466 18.7649 12.4335 18.7649 11.4331C18.7649 10.4327 19.578 9.61963 20.5784 9.61963C21.5788 9.61963 22.3919 10.4327 22.3919 11.4331C22.3919 12.4335 21.5788 13.2466 20.5784 13.2466ZM20.5784 9.80139C19.6793 9.80139 18.9467 10.5326 18.9467 11.4331C18.9467 12.3336 19.6779 13.0649 20.5784 13.0649C21.4789 13.0649 22.2101 12.3336 22.2101 11.4331C22.2101 10.5326 21.4789 9.80139 20.5784 9.80139Z" fill="white"/>
<path d="M20.5784 13.28C19.5599 13.28 18.7316 12.4517 18.7316 11.4332C18.7316 10.4148 19.5599 9.58643 20.5784 9.58643C21.5968 9.58643 22.4252 10.4148 22.4252 11.4332C22.4252 12.4517 21.5968 13.28 20.5784 13.28ZM20.5784 9.65442C19.5974 9.65442 18.7996 10.4522 18.7996 11.4332C18.7996 12.4142 19.5974 13.212 20.5784 13.212C21.5593 13.212 22.3572 12.4142 22.3572 11.4332C22.3572 10.4522 21.5593 9.65442 20.5784 9.65442ZM20.5784 13.0996C19.6598 13.0996 18.9133 12.3531 18.9133 11.4346C18.9133 10.5161 19.6598 9.76958 20.5784 9.76958C21.4969 9.76958 22.2434 10.5161 22.2434 11.4346C22.2434 12.3531 21.4969 13.0996 20.5784 13.0996ZM20.5784 9.83618C19.6973 9.83618 18.9813 10.5521 18.9813 11.4332C18.9813 12.3143 19.6987 13.0303 20.5784 13.0303C21.4581 13.0303 22.1754 12.3143 22.1754 11.4332C22.1754 10.5521 21.4581 9.83618 20.5784 9.83618Z" fill="white"/>
<path d="M15.1448 8.26682H14.2831C14.1166 8.26682 13.9807 8.13084 13.9807 7.96434V7.59665C13.9807 7.42182 13.8683 7.26503 13.7004 7.20814C13.57 7.16374 13.4395 7.10962 13.316 7.04719C13.162 6.97087 12.9789 7.00001 12.8582 7.11934L12.5904 7.38713C12.4752 7.50229 12.2768 7.50091 12.1616 7.38713L11.5525 6.77801C11.4346 6.66007 11.4346 6.4672 11.5525 6.34926L11.8245 6.07731C11.9438 5.95798 11.9729 5.77483 11.898 5.62081C11.8369 5.49593 11.7828 5.36689 11.7384 5.23647C11.6815 5.06996 11.5275 4.95757 11.3541 4.95757H10.9767C10.8102 4.95757 10.6742 4.8216 10.6742 4.65509V3.79344C10.6742 3.62694 10.8102 3.49096 10.9767 3.49096H11.361C11.5345 3.49096 11.6885 3.37996 11.7454 3.21485C11.7898 3.08581 11.8425 2.95815 11.9035 2.83605C11.9799 2.68204 11.9507 2.4975 11.8314 2.37817L11.5525 2.09928C11.4956 2.04239 11.4637 1.96607 11.4637 1.8856C11.4637 1.80512 11.4956 1.72881 11.5525 1.67192L12.1616 1.0628C12.2754 0.949019 12.4752 0.947631 12.5904 1.0628L12.872 1.34446C12.9914 1.46379 13.1745 1.49293 13.3285 1.418C13.4506 1.35695 13.5783 1.30422 13.7073 1.26121C13.871 1.20571 13.9807 1.05308 13.9807 0.88103V0.485586C13.9807 0.319083 14.1166 0.183105 14.2831 0.183105H15.1448C15.3113 0.183105 15.4473 0.319083 15.4473 0.485586V0.88103C15.4473 1.0517 15.5569 1.20432 15.722 1.26121C15.851 1.30561 15.9787 1.35834 16.1008 1.418C16.2548 1.49432 16.438 1.46379 16.5573 1.34446L16.839 1.0628C16.9569 0.944856 17.1484 0.944856 17.2677 1.0628L17.8768 1.67192C17.9337 1.72881 17.9656 1.80512 17.9656 1.8856C17.9656 1.96607 17.9337 2.04239 17.8768 2.09928L17.5979 2.37817C17.4772 2.49888 17.4481 2.68204 17.5258 2.83605C17.5868 2.95815 17.6396 3.08581 17.684 3.21485C17.7409 3.37996 17.8949 3.49096 18.0683 3.49096H18.4527C18.6192 3.49096 18.7551 3.62694 18.7551 3.79344V4.65509C18.7551 4.8216 18.6192 4.95757 18.4527 4.95757H18.0752C17.9018 4.95757 17.7464 5.06996 17.6909 5.23647C17.6465 5.36689 17.5938 5.49732 17.5313 5.62081C17.455 5.77344 17.4855 5.95798 17.6049 6.07731L17.8768 6.34926C17.9948 6.4672 17.9948 6.66007 17.8768 6.77801L17.2677 7.38713C17.1498 7.50507 16.9583 7.50507 16.839 7.38713L16.5712 7.11795C16.4505 6.99724 16.2673 6.96948 16.1133 7.0458C15.9884 7.10824 15.8594 7.16235 15.7289 7.20675C15.5611 7.26364 15.4487 7.42043 15.4487 7.59526V7.96295C15.4487 8.12945 15.3127 8.26543 15.1462 8.26543L15.1448 8.26682ZM13.1357 6.77801C13.23 6.77801 13.3258 6.80021 13.4159 6.84461C13.5311 6.9015 13.6518 6.95283 13.7725 6.99446C14.032 7.08326 14.2054 7.32469 14.2054 7.59665V7.96434C14.2054 8.00735 14.2401 8.04204 14.2831 8.04204H15.1448C15.1878 8.04204 15.2225 8.00735 15.2225 7.96434V7.59665C15.2225 7.32469 15.3959 7.08187 15.6554 6.99446C15.7775 6.95283 15.8968 6.90288 16.012 6.84461C16.252 6.72389 16.5406 6.77107 16.7307 6.95977L16.9985 7.22756C17.0291 7.25809 17.0776 7.25809 17.1081 7.22756L17.7173 6.61844C17.7311 6.60457 17.7395 6.58514 17.7395 6.56433C17.7395 6.54352 17.7311 6.52409 17.7173 6.51021L17.4453 6.23826C17.2566 6.04956 17.2108 5.76234 17.3288 5.5223C17.3856 5.40713 17.4356 5.28642 17.4758 5.1657C17.5633 4.90762 17.8033 4.73418 18.0739 4.73418H18.4513C18.4943 4.73418 18.529 4.6995 18.529 4.65648V3.79483C18.529 3.75182 18.4943 3.71713 18.4513 3.71713H18.0669C17.7977 3.71713 17.5577 3.54508 17.4689 3.28838C17.4273 3.16906 17.3787 3.05112 17.3218 2.93734C17.2011 2.69591 17.2483 2.40731 17.437 2.2186L17.7159 1.93971C17.7298 1.92584 17.7381 1.90641 17.7381 1.8856C17.7381 1.86478 17.7298 1.84536 17.7159 1.83148L17.1068 1.22236C17.0762 1.19184 17.0277 1.19184 16.9971 1.22236L16.7155 1.50403C16.5282 1.69273 16.2396 1.73852 15.9995 1.62058C15.8857 1.56508 15.7678 1.51513 15.6485 1.47489C15.3932 1.38886 15.2211 1.15021 15.2211 0.88103V0.485586C15.2211 0.442572 15.1864 0.409272 15.1434 0.409272H14.2818C14.2387 0.409272 14.2041 0.44396 14.2041 0.485586V0.88103C14.2041 1.14882 14.032 1.38748 13.7767 1.47489C13.6574 1.51513 13.5394 1.56508 13.4257 1.62058C13.1856 1.73852 12.897 1.69273 12.7097 1.50403L12.428 1.22236C12.3989 1.19322 12.3475 1.19322 12.3184 1.22236L11.7093 1.83148C11.6954 1.84536 11.6871 1.86478 11.6871 1.8856C11.6871 1.90641 11.6954 1.92584 11.7093 1.93971L11.9882 2.2186C12.1769 2.40731 12.2227 2.69591 12.1033 2.93734C12.0465 3.05112 11.9979 3.16906 11.9563 3.28838C11.8675 3.54508 11.6274 3.71713 11.3582 3.71713H10.9739C10.9309 3.71713 10.8976 3.75182 10.8976 3.79483V4.65648C10.8976 4.6995 10.9323 4.73418 10.9739 4.73418H11.3513C11.6219 4.73418 11.8633 4.90762 11.9493 5.1657C11.991 5.28781 12.0395 5.40713 12.0964 5.5223C12.2157 5.76234 12.1686 6.04956 11.9799 6.23826L11.7079 6.51021C11.694 6.52409 11.6857 6.54352 11.6857 6.56433C11.6857 6.58514 11.694 6.60457 11.7079 6.61844L12.317 7.22756C12.3462 7.2567 12.3975 7.2567 12.4266 7.22756L12.6944 6.95977C12.8138 6.84045 12.9719 6.77801 13.1329 6.77801H13.1357Z" fill="white"/>
<path d="M15.1448 8.30964H14.2832C14.0931 8.30964 13.9377 8.15424 13.9377 7.96415V7.59646C13.9377 7.43967 13.8364 7.29814 13.6852 7.2468C13.552 7.20101 13.4201 7.1469 13.2953 7.08307C13.1579 7.01508 12.9942 7.04006 12.8873 7.14829L12.6195 7.41608C12.5571 7.47852 12.4683 7.51459 12.3753 7.51459C12.2824 7.51459 12.1936 7.47852 12.1311 7.41608L11.522 6.80696C11.3874 6.67237 11.3874 6.45314 11.522 6.31855L11.794 6.04659C11.9008 5.93975 11.9272 5.77603 11.8592 5.63866C11.7967 5.5124 11.7426 5.38197 11.6982 5.24877C11.6483 5.09891 11.5095 4.99901 11.3541 4.99901H10.9767C10.7866 4.99901 10.6312 4.84361 10.6312 4.65352V3.79187C10.6312 3.60178 10.7866 3.44637 10.9767 3.44637H11.3611C11.5165 3.44637 11.6538 3.34647 11.7052 3.19801C11.7496 3.06758 11.8037 2.93854 11.8661 2.81505C11.9341 2.67769 11.9091 2.51257 11.8009 2.40573L11.522 2.12684C11.4568 2.06163 11.4207 1.97421 11.4207 1.88263C11.4207 1.79106 11.4568 1.70364 11.522 1.63843L12.1311 1.02931C12.1936 0.966869 12.2824 0.930793 12.3753 0.930793C12.4683 0.930793 12.5571 0.966869 12.6195 1.02931L12.9012 1.31097C13.0081 1.41781 13.1718 1.44418 13.3091 1.37619C13.4326 1.31514 13.5617 1.26102 13.6935 1.21662C13.8406 1.16667 13.9391 1.0307 13.9391 0.87668V0.481236C13.9391 0.291145 14.0945 0.135742 14.2846 0.135742H15.1462C15.3363 0.135742 15.4917 0.291145 15.4917 0.481236V0.87668C15.4917 1.02931 15.5902 1.16667 15.7373 1.21662C15.8677 1.26102 15.9982 1.31514 16.1217 1.37619C16.259 1.44418 16.4227 1.41781 16.5296 1.31097L16.8113 1.02931C16.9458 0.894718 17.1651 0.894718 17.2997 1.02931L17.9088 1.63982C17.974 1.70503 18.0101 1.79106 18.0101 1.88402C18.0101 1.97699 17.974 2.06301 17.9088 2.12823L17.6299 2.40712C17.5231 2.51396 17.4967 2.67907 17.5661 2.81644C17.6285 2.93993 17.6826 3.06897 17.727 3.19939C17.7784 3.34786 17.9157 3.44637 18.0711 3.44637H18.4555C18.6456 3.44637 18.801 3.60178 18.801 3.79187V4.65352C18.801 4.84361 18.6456 4.99901 18.4555 4.99901H18.0781C17.9227 4.99901 17.7839 5.09891 17.734 5.24877C17.6896 5.38197 17.6354 5.5124 17.573 5.63866C17.505 5.77603 17.5314 5.93975 17.6382 6.04659L17.9102 6.31855C18.0448 6.45314 18.0448 6.67237 17.9102 6.80696L17.3011 7.41608C17.1665 7.55067 16.9472 7.55067 16.8126 7.41608L16.5449 7.1469C16.438 7.04006 16.2729 7.0137 16.1355 7.08169C16.0093 7.14412 15.8788 7.19963 15.7456 7.24541C15.5944 7.29675 15.4931 7.43689 15.4931 7.59507V7.96276C15.4931 8.15285 15.3377 8.30826 15.1476 8.30826L15.1448 8.30964ZM13.1357 6.96097C13.2023 6.96097 13.2703 6.97623 13.3341 7.00815C13.4562 7.0692 13.5839 7.12331 13.7143 7.16771C13.8988 7.23154 14.0237 7.40359 14.0237 7.59646V7.96415C14.0237 8.10845 14.1403 8.22501 14.2846 8.22501H15.1462C15.2905 8.22501 15.4071 8.10845 15.4071 7.96415V7.59646C15.4071 7.40359 15.532 7.23015 15.7165 7.16771C15.8455 7.12331 15.9746 7.07059 16.0967 7.00815C16.2673 6.92351 16.4699 6.95542 16.6031 7.08862L16.8709 7.3578C16.9722 7.45909 17.1373 7.45909 17.24 7.3578L17.8491 6.74868C17.9504 6.64739 17.9504 6.48228 17.8491 6.3796L17.5772 6.10764C17.4454 5.97444 17.4121 5.77186 17.4953 5.60259C17.5564 5.48048 17.6091 5.35144 17.6521 5.2224C17.7145 5.03925 17.8852 4.91576 18.0767 4.91576H18.4541C18.5984 4.91576 18.7149 4.79921 18.7149 4.65491V3.79325C18.7149 3.64895 18.5984 3.5324 18.4541 3.5324H18.0697C17.8783 3.5324 17.709 3.4103 17.6452 3.22715C17.6021 3.10088 17.5494 2.97462 17.4884 2.8539C17.4037 2.68324 17.4356 2.48066 17.5688 2.34746L17.8477 2.06856C17.8977 2.02 17.924 1.9534 17.924 1.88402C17.924 1.81465 17.8963 1.74943 17.8477 1.69948L17.2386 1.08897C17.1373 0.987682 16.9722 0.987682 16.8695 1.08897L16.5879 1.37064C16.4561 1.50384 16.2521 1.53575 16.0828 1.45111C15.9621 1.39145 15.8372 1.34011 15.7096 1.29571C15.5278 1.23466 15.4071 1.06538 15.4071 0.87668V0.481236C15.4071 0.338321 15.2905 0.220381 15.1462 0.220381H14.2846C14.1403 0.220381 14.0237 0.336933 14.0237 0.481236V0.87668C14.0237 1.06677 13.9016 1.23466 13.7212 1.29571C13.5936 1.33873 13.4687 1.39145 13.348 1.45111C13.1773 1.53575 12.9748 1.50245 12.8429 1.36925L12.5613 1.08758C12.5141 1.04041 12.4475 1.01404 12.3767 1.01404C12.306 1.01404 12.2394 1.04041 12.1922 1.08758L11.5831 1.69671C11.5331 1.74527 11.5068 1.81187 11.5068 1.88125C11.5068 1.95062 11.5345 2.01584 11.5831 2.06579L11.862 2.34468C11.9952 2.47788 12.0271 2.68185 11.9424 2.85113C11.8828 2.97184 11.83 3.09811 11.7856 3.22437C11.7232 3.40614 11.5525 3.52963 11.3611 3.52963H10.9767C10.8338 3.52963 10.7159 3.64618 10.7159 3.79048V4.65213C10.7159 4.79643 10.8324 4.91299 10.9767 4.91299H11.3541C11.5456 4.91299 11.7163 5.03648 11.7787 5.21963C11.8217 5.34867 11.8758 5.47632 11.9355 5.59981C12.0187 5.76909 11.9868 5.97167 11.8536 6.10487L11.5817 6.37682C11.4804 6.47811 11.4804 6.64323 11.5817 6.7459L12.1908 7.35503C12.238 7.4022 12.3046 7.42857 12.3753 7.42857C12.4461 7.42857 12.5127 7.4022 12.5599 7.35503L12.8277 7.08585C12.9109 7.0026 13.0233 6.9582 13.1357 6.9582V6.96097ZM15.1448 8.08348H14.2832C14.218 8.08348 14.1639 8.02937 14.1639 7.96415V7.59646C14.1639 7.34254 14.0015 7.11637 13.7587 7.03312C13.6352 6.9915 13.5145 6.94016 13.3966 6.88188C13.1759 6.77088 12.8998 6.81528 12.7278 6.98872L12.46 7.25651C12.4378 7.27871 12.4073 7.2912 12.3753 7.2912C12.3434 7.2912 12.3129 7.27871 12.2907 7.25651L11.6816 6.64739C11.6594 6.62519 11.6469 6.59467 11.6469 6.56275C11.6469 6.53084 11.6594 6.50031 11.6816 6.47811L11.9535 6.20616C12.1284 6.03133 12.1728 5.76215 12.0618 5.53876C12.0049 5.42221 11.9535 5.30011 11.9119 5.17662C11.83 4.93519 11.6067 4.77285 11.3541 4.77285H10.9767C10.9115 4.77285 10.8574 4.71873 10.8574 4.65352V3.79187C10.8574 3.72665 10.9115 3.67254 10.9767 3.67254H11.3611C11.6122 3.67254 11.837 3.51159 11.9188 3.27293C11.9605 3.15222 12.0104 3.0315 12.0687 2.91634C12.1811 2.69156 12.1381 2.42238 11.9619 2.24617L11.683 1.96727C11.6608 1.94507 11.6483 1.91455 11.6483 1.88263C11.6483 1.85072 11.6608 1.8202 11.683 1.798L12.2921 1.18887C12.3351 1.14586 12.417 1.14586 12.4614 1.18887L12.743 1.47054C12.9179 1.64537 13.187 1.68977 13.4104 1.57877C13.5256 1.52188 13.6449 1.47193 13.767 1.4303C14.0057 1.34983 14.1652 1.12782 14.1652 0.87668V0.481236C14.1652 0.416022 14.2194 0.361909 14.2846 0.361909H15.1462C15.2114 0.361909 15.2656 0.416022 15.2656 0.481236V0.87668C15.2656 1.12643 15.4251 1.34844 15.6638 1.4303C15.7845 1.47193 15.9052 1.52188 16.0204 1.57877C16.2451 1.68977 16.5129 1.64537 16.6878 1.47054L16.9694 1.18887C17.0138 1.14308 17.0929 1.14308 17.1387 1.18887L17.7478 1.798C17.77 1.8202 17.7825 1.85072 17.7825 1.88263C17.7825 1.91455 17.77 1.94507 17.7478 1.96727L17.4689 2.24617C17.2927 2.42238 17.2497 2.69156 17.3621 2.91634C17.419 3.0315 17.4703 3.15083 17.512 3.27293C17.5938 3.51297 17.8186 3.67254 18.0697 3.67254H18.4541C18.5193 3.67254 18.5734 3.72665 18.5734 3.79187V4.65352C18.5734 4.71873 18.5193 4.77285 18.4541 4.77285H18.0767C17.8241 4.77285 17.5994 4.93519 17.5189 5.17662C17.4773 5.30011 17.4259 5.42221 17.369 5.53876C17.258 5.76215 17.3024 6.03133 17.4773 6.20616L17.7492 6.47811C17.7714 6.50031 17.7839 6.53084 17.7839 6.56275C17.7839 6.59467 17.7714 6.62519 17.7492 6.64739L17.1401 7.25651C17.0929 7.30369 17.018 7.3023 16.9708 7.25651L16.703 6.98872C16.5268 6.81251 16.2576 6.76949 16.0342 6.88188C15.9163 6.94016 15.7942 6.9915 15.6721 7.03312C15.4307 7.11637 15.2669 7.34254 15.2669 7.59646V7.96415C15.2669 8.02937 15.2128 8.08348 15.1476 8.08348H15.1448ZM13.1357 6.73619C13.2384 6.73619 13.3424 6.76117 13.434 6.80696C13.5478 6.86384 13.6671 6.9138 13.7865 6.95403C14.0626 7.04839 14.2485 7.30646 14.2485 7.59646V7.96415C14.2485 7.98358 14.2638 7.99884 14.2832 7.99884H15.1448C15.1643 7.99884 15.1795 7.98358 15.1795 7.96415V7.59646C15.1795 7.30646 15.3655 7.04839 15.6416 6.95403C15.7609 6.9138 15.8788 6.86384 15.994 6.80696C16.2507 6.67792 16.5587 6.72787 16.7613 6.93045L17.0291 7.19824C17.043 7.21211 17.0652 7.21211 17.0777 7.19824L17.6868 6.58912C17.6868 6.58912 17.6965 6.57385 17.6965 6.56414C17.6965 6.55443 17.6923 6.5461 17.6868 6.53916L17.4148 6.26721C17.2136 6.06602 17.1637 5.75938 17.2913 5.50268C17.3468 5.38891 17.3968 5.27097 17.437 5.15025C17.53 4.87414 17.7867 4.68959 18.0753 4.68959H18.4527C18.4721 4.68959 18.4874 4.67433 18.4874 4.65491V3.79325C18.4874 3.77383 18.4721 3.75857 18.4527 3.75857H18.0684C17.7811 3.75857 17.5244 3.57541 17.4301 3.30068C17.3899 3.18274 17.3413 3.06619 17.2858 2.95519C17.1581 2.6985 17.2067 2.38908 17.4093 2.18789L17.6882 1.909C17.6882 1.909 17.6979 1.89373 17.6979 1.88402C17.6979 1.87431 17.6937 1.86598 17.6882 1.85905L17.079 1.24992C17.0666 1.23605 17.043 1.23744 17.0305 1.24992L16.7488 1.53159C16.5476 1.73278 16.241 1.78273 15.9843 1.65508C15.8719 1.59958 15.7554 1.55102 15.6388 1.51217C15.3655 1.4192 15.1823 1.16528 15.1823 0.878067V0.482623C15.1823 0.463198 15.167 0.447935 15.1476 0.447935H14.286C14.2665 0.447935 14.2513 0.463198 14.2513 0.482623V0.878067C14.2513 1.1639 14.0681 1.4192 13.7948 1.51217C13.6768 1.5524 13.5603 1.60097 13.4493 1.65508C13.1926 1.78135 12.886 1.73278 12.6848 1.53159L12.4031 1.24992C12.3906 1.23744 12.3656 1.23744 12.3545 1.24992L11.7454 1.85905C11.7454 1.85905 11.7357 1.87431 11.7357 1.88402C11.7357 1.89373 11.7399 1.90206 11.7454 1.90761L12.0243 2.1865C12.2255 2.38769 12.2754 2.69572 12.1478 2.9538C12.0923 3.06619 12.0437 3.18274 12.0021 3.2993C11.9077 3.57264 11.6524 3.75718 11.3638 3.75718H10.9795C10.9601 3.75718 10.9448 3.77244 10.9448 3.79187V4.65352C10.9448 4.67295 10.9601 4.68821 10.9795 4.68821H11.3569C11.6455 4.68821 11.9022 4.87275 11.9952 5.14887C12.0354 5.26958 12.0854 5.38752 12.1409 5.5013C12.2671 5.75799 12.2172 6.06463 12.0174 6.26582L11.7454 6.53778C11.7454 6.53778 11.7357 6.55304 11.7357 6.56275C11.7357 6.57246 11.7399 6.58079 11.7454 6.58773L12.3545 7.19685C12.3545 7.19685 12.3698 7.20656 12.3795 7.20656C12.3892 7.20656 12.3975 7.20379 12.4045 7.19685L12.6723 6.92767C12.7972 6.80279 12.9637 6.73342 13.1399 6.73342L13.1357 6.73619Z" fill="white"/>
<path d="M14.7146 6.48098C13.47 6.48098 12.4585 5.46809 12.4585 4.22486C12.4585 2.98164 13.4714 1.96875 14.7146 1.96875C15.9578 1.96875 16.9707 2.98164 16.9707 4.22486C16.9707 5.46809 15.9578 6.48098 14.7146 6.48098ZM14.7146 2.19353C13.5949 2.19353 12.6847 3.10513 12.6847 4.22486C12.6847 5.3446 13.5963 6.25481 14.7146 6.25481C15.833 6.25481 16.7446 5.34321 16.7446 4.22486C16.7446 3.10652 15.833 2.19353 14.7146 2.19353Z" fill="white"/>
<path d="M14.7147 6.52257C13.4465 6.52257 12.4155 5.49164 12.4155 4.22344C12.4155 2.95525 13.4465 1.92432 14.7147 1.92432C15.9829 1.92432 17.0138 2.95525 17.0138 4.22344C17.0138 5.49164 15.9829 6.52257 14.7147 6.52257ZM14.7147 2.01034C13.4936 2.01034 12.5002 3.00381 12.5002 4.22483C12.5002 5.44585 13.4936 6.43932 14.7147 6.43932C15.9357 6.43932 16.9291 5.44585 16.9291 4.22483C16.9291 3.00381 15.9357 2.01034 14.7147 2.01034ZM14.7147 6.2964C13.5713 6.2964 12.6417 5.36676 12.6417 4.22344C12.6417 3.08012 13.5713 2.15048 14.7147 2.15048C15.858 2.15048 16.7876 3.08012 16.7876 4.22344C16.7876 5.36676 15.858 6.2964 14.7147 6.2964ZM14.7147 2.23651C13.6185 2.23651 12.7263 3.12869 12.7263 4.22483C12.7263 5.32097 13.6185 6.21315 14.7147 6.21315C15.8108 6.21315 16.703 5.32097 16.703 4.22483C16.703 3.12869 15.8108 2.23651 14.7147 2.23651Z" fill="white"/>
</g>
<defs>
<clipPath id="clip0_5_10885">
<rect width="24" height="25.3598" fill="white"/>
</clipPath>
</defs>
</svg>
