<?xml version="1.0" encoding="UTF-8"?>
<svg id="Layer_2" data-name="Layer 2" xmlns="http://www.w3.org/2000/svg" viewBox="0 0 628.89 516.66">
  <defs>
    <style>
      .cls-1 {
        fill: none;
      }

      .cls-2 {
        fill: #050505;
      }

      .cls-3 {
        fill: #040404;
      }
    </style>
  </defs>
  <g id="Layer_9" data-name="Layer 9">
    <g>
      <path class="cls-2" d="M29.04,54.26c-2.32-.11-4.67-.77-6.24-2.58-2.84-3.31-4.9-30.7,4.01-31.19l573.04-.29c10.55-.59,9.19,18.65,8.23,25.92-.91,6.98-7.22,7.54-13.24,8.17l-565.8-.03ZM572.75,74.4v371.7H58.04c-.13,0-1.88-1.75-1.88-1.89V74.4h516.59ZM607.48,492.83c-.95,3.36-5.69,4.39-8.88,4.96l-567.09.03c-7.64-.91-10.04-1.78-10.69-9.46-.77-9.12-2.75-24.73,9.47-24.66l567.09-.04c2.37-.01,7.57,1.33,9.05,2.9,2.41,2.56,2.15,22.33,1.05,26.26ZM462.21,516.66h143.93c7.07,0,18.13-12.28,20.17-18.87,8.05-25.92-2.56-58.15-34.67-52.95V74.4c20.65.97,34.62-8.41,36.52-29.63,2.17-24.13-5.05-43.83-32.05-44.77L29.21.21C4.84,2.74-1.22,21.5.73,43.52c1.86,21.03,15.64,31.32,36.52,29.63v371.69c-32.1-5.2-42.73,27.03-34.68,52.95,1.75,5.61,10.01,15.33,16.79,18.1l442.84.77Z"/>
      <path class="cls-3" d="M445.83,174.86c.98.81,17.56,6.71,19.12,6.6,6.85-.47,14.62-9.64,23.7-7.22,3.99,1.07,31.11,28.17,32.15,32.14,2.28,8.73-8.4,17.72-7.03,25.81.26,1.56,6.83,16.27,7.62,17.02,3.66,3.47,20.27,4.95,22.11,11.29,1,3.44.9,39.52,0,43.56-1.86,8.3-21.07,9.41-23.78,13.06-.57.77-7.38,16.6-7.44,17.55-.47,7.63,10.28,15.57,6.98,25.8-.68,2.11-26.11,28.22-29.03,30.17-9.59,6.41-19.48-6.77-27.41-6.07-1.37.12-16.33,5.93-17.28,6.74-5.43,4.67-5.24,21.57-12.57,23.97-3.25,1.06-41.21,1.26-44.54.29-6.63-1.93-7.71-20.55-12.3-24.24-1.11-.89-16.88-6.9-18.23-6.87-6.25.15-16.43,10.42-23.95,7.55-7.98-3.05-22.71-24.14-30.84-29.72-6.79-7.99,6.72-20.1,6.07-27.41-.15-1.64-6.35-16.87-7.37-17.92-4.82-4.95-20.65-4.35-23.34-13.2-1.23-4.05-1.31-36.25-.3-40.75,2.24-10.01,19.44-8.65,24.77-15.55.91-1.18,7.52-16.32,7.44-17.26-.56-6.51-10.27-16.15-8.02-23.56,2.05-6.75,25.97-24.76,31.01-32.06,9.6-4.18,19.2,7.85,27.73,6.41,1.7-.29,16.25-6.3,16.94-7.11,4.19-4.91,3.96-18.6,11.67-22.35,5.2-2.53,35.49-2.31,41.68-.68,11.74,3.08,9.1,19.6,14.44,24ZM422.6,396.75c3.32-5.83,3.95-15.92,9.82-19.78,2.87-1.89,28.43-11.5,31.39-11.57,5.84-.15,15.52,6.99,18.58,6.2,1-.26,14.09-13.02,14.83-14.26,3.97-6.71-7.12-12.86-4.25-24.41.85-3.44,11.21-28.01,12.96-29.87,4.44-4.69,19.28-5.71,20.87-8.11.88-1.32,1.05-19.58.58-22.11-1.1-5.93-15.69-5.66-20.44-12.32-1.86-2.61-11.78-26.28-12.24-29.33-1.52-10.02,6.97-18.77,6.05-22.34-.54-2.11-15.1-16.23-17.79-15.84-6.22.9-10.18,7.94-20.18,5.85-2.24-.47-27.61-11.1-29.3-12.3-5.41-3.84-6.57-17.72-9.37-19.61-1.32-.89-18.36-1.03-20.84-.58-5.59,1.02-5.72,15.52-11.52,19.98-3.35,2.57-26.04,12.17-30.17,12.68-8.61,1.07-18.82-6.44-21.12-6-2.47.47-13.31,14.02-16.63,16.22-1.58,3.18,7.69,13.13,6.5,20.15-.42,2.47-12.05,30.6-13.32,32.14-3.13,3.81-18.13,7.32-18.77,8.32l-.25,24.26c6.52,3.19,15.83,3.68,20.06,10.4,1.8,2.87,12.29,27.81,12.53,30.36.56,5.87-7.54,17.42-7.11,19.68.19,1.01,13.02,14.04,14.23,14.75,6.96,4.1,14.14-6.37,23.43-4.58,2.56.49,29.9,12.46,31.11,13.66,3.14,3.12,5.32,16.41,7.87,17.95,1.5.9,21.4,1.08,22.5.4Z"/>
      <path class="cls-3" d="M272.87,151.27c-58.49,1.21-112.34,37.66-134.17,91.99-1.71,4.26-6.55,17.31-6.73,21.13-.22,4.9,6.88,6.79,10.39,10.45,16.56,17.23,8.71,46.78-13.7,54.15-36.42,11.98-60.57-36.16-29.57-58.55,3.45-2.49,13.03-5.46,13.51-6.02.82-.95,4.96-20.04,6.52-24.35,22.69-62.99,86.74-107.36,153.74-107.72-4.56-7.88-21.04-15.03-14.97-25.68,3.32-5.82,9.42-5.46,14.34-2.03,4.73,3.3,26.66,25.36,30.26,30.21,2.64,3.55,4.08,5.67,2.84,10.41-1.05,4-31.89,34.83-35.93,35.92-7.18,1.93-13.67-2.87-12.92-10.28.66-6.48,13.15-13.76,16.37-19.63ZM115.05,283.82c-17.53,3.35-13.32,32.68,8.2,27.14,13.79-3.55,10.77-30.77-8.2-27.14Z"/>
      <path class="cls-3" d="M402.34,230.97c73.85-10.03,83.43,97.46,15.92,105.38-70.91,8.32-81.07-96.53-15.92-105.38ZM404.87,249.87c-40.37,5.88-35.31,72.65,10.88,67.57,42.97-4.73,37.74-74.65-10.88-67.57Z"/>
      <polyline class="cls-1" points="19.37 515.89 304.36 516.38 324.53 516.42 462.21 516.66"/>
      <g>
        <path class="cls-3" d="M221.52,218.28c.36.3,6.51,2.49,7.08,2.45,2.54-.17,5.42-3.57,8.78-2.68,1.48.4,11.53,10.44,11.91,11.91.85,3.24-3.11,6.57-2.6,9.57.1.58,2.53,6.03,2.82,6.31,1.35,1.29,7.51,1.83,8.19,4.18.37,1.28.33,14.65,0,16.14-.69,3.07-7.81,3.49-8.81,4.84-.21.28-2.74,6.15-2.76,6.5-.18,2.83,3.81,5.77,2.59,9.56-.25.78-9.68,10.46-10.76,11.18-3.56,2.38-7.22-2.51-10.16-2.25-.51.05-6.05,2.2-6.4,2.5-2.01,1.73-1.94,7.99-4.66,8.88-1.2.39-15.27.47-16.51.11-2.46-.71-2.86-7.62-4.56-8.98-.41-.33-6.26-2.56-6.76-2.55-2.31.05-6.09,3.86-8.87,2.8-2.96-1.13-8.42-8.95-11.43-11.01-2.52-2.96,2.49-7.45,2.25-10.16-.05-.61-2.35-6.25-2.73-6.64-1.78-1.84-7.65-1.61-8.65-4.89-.46-1.5-.48-13.43-.11-15.1.83-3.71,7.21-3.2,9.18-5.76.34-.44,2.79-6.05,2.76-6.4-.21-2.41-3.81-5.98-2.97-8.73.76-2.5,9.63-9.18,11.49-11.88,3.56-1.55,7.11,2.91,10.28,2.38.63-.11,6.02-2.33,6.28-2.63,1.55-1.82,1.47-6.89,4.32-8.28,1.93-.94,13.15-.85,15.45-.25,4.35,1.14,3.37,7.26,5.35,8.89ZM212.92,300.5c1.23-2.16,1.46-5.9,3.64-7.33,1.06-.7,10.53-4.26,11.63-4.29,2.16-.05,5.75,2.59,6.89,2.3.37-.1,5.22-4.82,5.49-5.28,1.47-2.48-2.64-4.77-1.57-9.04.32-1.27,4.15-10.38,4.8-11.07,1.64-1.74,7.15-2.12,7.73-3.01.33-.49.39-7.26.22-8.19-.41-2.2-5.81-2.1-7.57-4.57-.69-.97-4.37-9.74-4.54-10.87-.56-3.71,2.58-6.95,2.24-8.28-.2-.78-5.6-6.01-6.59-5.87-2.31.33-3.77,2.94-7.48,2.17-.83-.17-10.23-4.11-10.86-4.56-2.01-1.42-2.43-6.57-3.47-7.27-.49-.33-6.8-.38-7.72-.22-2.07.38-2.12,5.75-4.27,7.4-1.24.95-9.65,4.51-11.18,4.7-3.19.4-6.97-2.39-7.83-2.22-.91.17-4.93,5.19-6.16,6.01-.59,1.18,2.85,4.87,2.41,7.47-.15.91-4.47,11.34-4.94,11.91-1.16,1.41-6.72,2.71-6.96,3.08l-.09,8.99c2.42,1.18,5.87,1.36,7.43,3.85.67,1.06,4.55,10.3,4.64,11.25.21,2.18-2.79,6.45-2.63,7.29.07.37,4.83,5.2,5.27,5.47,2.58,1.52,5.24-2.36,8.68-1.7.95.18,11.08,4.62,11.53,5.06,1.16,1.16,1.97,6.08,2.92,6.65.55.33,7.93.4,8.34.15Z"/>
        <path d="M207.2,309.23c-3.47,0-6.66-.09-7.37-.3-2.18-.63-3.02-3.4-3.83-6.07-.31-1.03-.82-2.71-1.21-3.14-.85-.43-5-2-5.94-2.25-.6.08-1.65.65-2.58,1.15-2.08,1.13-4.45,2.41-6.75,1.54-2.01-.77-4.48-3.53-7.09-6.46-1.72-1.93-3.49-3.92-4.66-4.72l-.16-.11-.13-.15c-2.19-2.58-.52-5.74.71-8.04.54-1.01,1.2-2.27,1.19-2.9-.22-.86-1.92-5.01-2.39-5.86-.5-.42-1.71-.78-2.78-1.1-2.37-.71-5.31-1.58-6.15-4.33-.55-1.8-.55-14.01-.14-15.87.66-2.96,3.63-3.92,6.01-4.69,1.42-.46,2.88-.93,3.44-1.66.32-.53,2.04-4.5,2.42-5.57-.14-.67-.68-1.65-1.2-2.59-1.1-2-2.35-4.26-1.67-6.49.52-1.71,2.94-3.99,6.86-7.54,2.03-1.84,4.13-3.74,4.83-4.76l.24-.35.39-.17c2.62-1.14,5.13.12,7.14,1.13,1.32.67,2.56,1.29,3.48,1.14.64-.16,4.54-1.78,5.5-2.28.35-.53.65-1.54.94-2.52.64-2.16,1.43-4.85,3.76-5.99,2.45-1.19,14.1-.98,16.48-.36,3.54.93,4.38,4.24,4.99,6.66.23.93.52,2.07.87,2.46.92.43,5.23,1.95,6.21,2.16.67-.09,1.55-.57,2.48-1.08,1.82-.99,4.08-2.23,6.67-1.53,2.02.54,12.46,10.97,12.98,12.98.59,2.25-.48,4.34-1.42,6.18-.68,1.33-1.32,2.58-1.16,3.52.17.58,1.96,4.6,2.47,5.54.43.27,1.64.64,2.47.9,2.53.78,5.39,1.67,6.03,3.88.48,1.64.38,15.29.02,16.89-.62,2.77-4.03,3.8-6.77,4.63-.82.25-1.91.58-2.29.81-.45.93-2.16,4.91-2.47,5.81.02.74.55,1.71,1.11,2.73,1.03,1.9,2.32,4.25,1.42,7.07-.53,1.64-11.26,11.9-11.35,11.97-2.9,1.94-5.8.34-7.92-.84-1.06-.59-2.15-1.19-2.87-1.17-.82.22-4.88,1.8-5.7,2.21-.52.54-.96,2.06-1.33,3.28-.7,2.38-1.5,5.08-3.77,5.82-.83.27-5.65.42-10.02.42ZM188.91,294.46c1.04,0,7.21,2.47,7.71,2.88,1.1.88,1.63,2.63,2.24,4.65.35,1.16,1.18,3.88,1.8,4.06,1.38.28,14.3.2,15.67-.11.72-.24,1.33-2.3,1.77-3.8.57-1.92,1.1-3.73,2.32-4.78.64-.55,6.51-2.79,7.25-2.86,1.62-.14,3.16.71,4.65,1.53,2.13,1.18,3.51,1.83,4.81.97,1.11-.8,9.21-9.17,10.21-10.54.42-1.54-.39-3.01-1.24-4.57-.77-1.41-1.56-2.87-1.46-4.48.05-.86,2.86-7.05,3.05-7.3.67-.91,2-1.31,3.84-1.86,1.67-.5,4.47-1.35,4.71-2.41.29-1.4.3-14.09.02-15.43-.18-.63-2.88-1.46-4.03-1.82-1.59-.49-2.96-.92-3.75-1.66-.7-.66-3.18-6.62-3.27-7.15-.33-1.91.58-3.68,1.45-5.38.75-1.46,1.45-2.85,1.2-3.98-.86-1.63-9.32-10.08-10.94-10.93-1.42-.34-2.86.45-4.39,1.29-1.23.67-2.49,1.36-3.84,1.46-1,.06-7.51-2.27-8.14-2.79h0c-1.14-.94-1.53-2.48-1.94-4.11-.61-2.42-1.14-4.04-2.84-4.49-2.13-.56-12.87-.57-14.41.15-1.14.56-1.68,2.38-2.2,4.14-.43,1.45-.83,2.81-1.64,3.77-.73.85-6.85,3.09-7.17,3.14-1.88.32-3.64-.56-5.33-1.42-1.85-.93-3.11-1.5-4.26-1.18-1,1.27-2.86,2.95-4.98,4.87-2.13,1.93-5.69,5.15-6,6.19-.31,1.02.61,2.69,1.43,4.17.77,1.39,1.49,2.7,1.6,4,.1,1.17-3.03,7.4-3.06,7.44-1.13,1.46-3.04,2.08-4.89,2.68-2.25.73-3.74,1.29-4.01,2.49-.33,1.5-.27,13.02.08,14.34.36,1.2,2.28,1.77,4.13,2.32,1.63.49,3.17.94,4.15,1.96.72.74,3.08,6.79,3.15,7.55.13,1.5-.67,3.02-1.53,4.63-1.13,2.12-1.83,3.61-1.17,4.57,1.43,1.05,3.16,2.99,5,5.05,2.04,2.29,4.59,5.15,5.92,5.66,1.01.39,2.73-.55,4.25-1.37,1.42-.77,2.76-1.5,4.06-1.53,0,0,0,0,.01,0ZM247.85,230.35h0s0,0,0,0ZM222.47,217.12s0,0,0,0h0s0,0,0,0ZM209.47,302.16c-2.44,0-5.11-.18-5.67-.52-.91-.55-1.32-1.71-2.02-3.9-.3-.92-.78-2.43-1.12-2.9-1.32-.75-9.83-4.47-10.85-4.74-1.12-.21-2.28.36-3.5.96-1.59.79-3.58,1.77-5.62.56-.05-.03-5.73-5.18-5.98-6.47-.16-.84.27-1.7,1.05-3.26.62-1.23,1.65-3.3,1.56-4.17-.24-1.12-3.86-9.7-4.42-10.6-.78-1.24-2.41-1.76-4.13-2.3-.9-.29-1.83-.58-2.69-1l-.85-.42.11-10.37.24-.37c.37-.57.87-.74,2.55-1.29,1.07-.36,3.87-1.29,4.47-1.88.67-1.2,4.41-10.24,4.67-11.3.15-.89-.71-2.51-1.34-3.69-.83-1.57-1.55-2.93-.95-4.15l.18-.36.33-.22c.39-.26,1.61-1.58,2.5-2.54,2.43-2.64,3.3-3.51,4.21-3.69.78-.15,1.52.2,2.76.77,1.41.65,3.52,1.64,5.17,1.44,1.27-.16,9.38-3.58,10.45-4.4.66-.51,1.15-1.95,1.58-3.23.68-2.02,1.38-4.1,3.34-4.46.5-.09,7.64-.36,8.83.45.88.59,1.24,1.78,1.74,3.43.4,1.32,1.01,3.32,1.76,3.85.81.47,9.34,4.05,10.33,4.32,1.73.36,2.79-.26,4-.98.87-.52,1.77-1.05,2.92-1.21,2.2-.32,7.99,5.93,8.26,6.98.27,1.06-.24,2.09-.88,3.39-.71,1.45-1.6,3.24-1.33,5.04.21,1.06,3.66,9.3,4.28,10.23.57.8,2.09,1.33,3.43,1.79,1.98.68,4.02,1.38,4.39,3.37.06.33.37,8.07-.44,9.29-.57.87-1.73,1.16-3.65,1.63-1.41.35-3.51.88-4.2,1.53-.74,1.13-4.21,9.34-4.48,10.44-.42,1.69.23,2.97.91,4.33.72,1.43,1.62,3.22.5,5.11-.03.05-5.19,5.66-6.41,5.97-1.06.27-2.22-.28-3.82-1.04-1.1-.52-2.66-1.23-3.4-1.22-1.09.15-9.76,3.37-10.85,4.05-.95.62-1.46,2.23-1.96,3.78-.33,1.05-.68,2.13-1.2,3.04l-.19.33-.33.2c-.42.26-2.25.38-4.23.38ZM205.42,299.01c1.29.15,4.97.19,6.5.12.23-.54.43-1.17.64-1.83.62-1.95,1.33-4.16,3.17-5.37,1.12-.74,10.84-4.5,12.42-4.54,1.52-.04,3.24.78,4.76,1.5.53.25,1.28.61,1.72.75,1.11-.96,4.17-3.95,4.67-4.56.21-.41.03-.88-.62-2.18-.77-1.54-1.83-3.64-1.15-6.41.27-1.08,4.19-10.7,5.17-11.74,1.24-1.31,3.61-1.9,5.7-2.42.59-.15,1.34-.33,1.79-.49.16-1.59.2-6.22.08-6.99-.19-.31-1.58-.79-2.41-1.07-1.77-.61-3.77-1.3-4.91-2.89-.83-1.17-4.6-10.21-4.8-11.51-.41-2.73.75-5.09,1.61-6.82.21-.43.49-.98.6-1.31-.86-1.12-4.02-4.08-5.13-4.71-.48.14-.98.43-1.55.77-1.38.82-3.27,1.93-6.17,1.32-.87-.18-10.53-4.17-11.42-4.8-1.58-1.12-2.28-3.41-2.89-5.42-.18-.58-.4-1.32-.58-1.72-1.43-.16-5.83-.2-6.59-.08-.27.2-.75,1.62-1.03,2.46-.57,1.68-1.21,3.59-2.59,4.65-1.48,1.14-10.16,4.78-11.91,5-2.49.31-5.08-.89-6.8-1.69-.3-.14-.67-.31-.94-.42-.62.54-1.8,1.83-2.56,2.65-.99,1.08-1.74,1.88-2.32,2.43.17.4.48.99.71,1.42.87,1.65,1.96,3.7,1.63,5.64-.17,1.03-4.53,11.73-5.26,12.61-.96,1.16-3.13,1.96-5.88,2.87-.24.08-.51.17-.74.25l-.07,7.01c.45.17.93.32,1.43.48,2.06.65,4.4,1.39,5.76,3.57.58.92,4.73,10.51,4.87,11.9.17,1.73-.91,3.89-1.86,5.8-.21.42-.47.94-.63,1.31,1.03,1.17,3.85,4.03,4.46,4.53.57.3,1.28,0,2.71-.7,1.47-.72,3.29-1.62,5.43-1.21.54.1,11.4,4.58,12.3,5.47.85.84,1.37,2.47,1.92,4.19.22.7.54,1.69.78,2.18ZM167.65,254.72h0s0,0,0,0ZM235.05,226.46h0ZM212.95,216.75h0,0Z"/>
      </g>
      <path class="cls-3" d="M205.41,239.07c27.37-3.72,30.92,36.12,5.9,39.05-26.28,3.08-30.04-35.77-5.9-39.05ZM206.34,246.07c-14.96,2.18-13.08,26.92,4.03,25.04,15.92-1.75,13.98-27.66-4.03-25.04Z"/>
      <g>
        <path class="cls-3" d="M238.97,331c.38.32,6.89,2.63,7.5,2.59,2.69-.18,5.74-3.79,9.3-2.83,1.57.42,12.21,11.06,12.62,12.62.9,3.43-3.3,6.95-2.76,10.13.1.61,2.68,6.39,2.99,6.68,1.44,1.36,7.96,1.94,8.68,4.43.39,1.35.35,15.51,0,17.1-.73,3.26-8.27,3.69-9.33,5.13-.22.3-2.9,6.52-2.92,6.89-.19,2.99,4.03,6.11,2.74,10.13-.27.83-10.25,11.08-11.39,11.84-3.77,2.52-7.64-2.66-10.76-2.38-.54.05-6.41,2.33-6.78,2.65-2.13,1.83-2.06,8.47-4.93,9.41-1.28.42-16.17.49-17.48.11-2.6-.76-3.03-8.07-4.83-9.51-.44-.35-6.63-2.71-7.16-2.7-2.45.06-6.45,4.09-9.4,2.96-3.13-1.2-8.92-9.47-12.1-11.66-2.67-3.14,2.64-7.89,2.38-10.76-.06-.65-2.49-6.62-2.89-7.03-1.89-1.94-8.1-1.71-9.16-5.18-.48-1.59-.51-14.23-.12-15.99.88-3.93,7.63-3.39,9.72-6.1.36-.46,2.95-6.41,2.92-6.77-.22-2.55-4.03-6.34-3.15-9.25.81-2.65,10.2-9.72,12.17-12.58,3.77-1.64,7.53,3.08,10.88,2.52.67-.11,6.38-2.47,6.65-2.79,1.64-1.93,1.56-7.3,4.58-8.77,2.04-.99,13.93-.91,16.36-.27,4.61,1.21,3.57,7.69,5.67,9.42ZM229.85,418.09c1.3-2.29,1.55-6.25,3.85-7.77,1.13-.74,11.16-4.51,12.32-4.54,2.29-.06,6.09,2.75,7.29,2.44.39-.1,5.53-5.11,5.82-5.6,1.56-2.63-2.79-5.05-1.67-9.58.34-1.35,4.4-10.99,5.09-11.72,1.74-1.84,7.57-2.24,8.19-3.18.34-.52.41-7.69.23-8.68-.43-2.33-6.16-2.22-8.02-4.84-.73-1.02-4.62-10.31-4.81-11.51-.6-3.93,2.74-7.37,2.37-8.77-.21-.83-5.93-6.37-6.98-6.22-2.44.35-3.99,3.12-7.92,2.3-.88-.18-10.84-4.36-11.5-4.83-2.12-1.51-2.58-6.96-3.68-7.7-.52-.35-7.21-.41-8.18-.23-2.19.4-2.24,6.09-4.52,7.84-1.31,1.01-10.22,4.78-11.84,4.98-3.38.42-7.39-2.53-8.29-2.35-.97.19-5.22,5.5-6.53,6.37-.62,1.25,3.02,5.15,2.55,7.91-.16.97-4.73,12.01-5.23,12.62-1.23,1.5-7.12,2.87-7.37,3.26l-.1,9.52c2.56,1.25,6.21,1.44,7.87,4.08.71,1.13,4.82,10.91,4.92,11.92.22,2.31-2.96,6.84-2.79,7.72.08.4,5.11,5.51,5.58,5.79,2.73,1.61,5.55-2.5,9.2-1.8,1.01.19,11.73,4.89,12.21,5.36,1.23,1.23,2.09,6.44,3.09,7.05.59.35,8.4.42,8.83.16Z"/>
        <path d="M223.71,427.22c-3.65,0-6.99-.09-7.69-.3-2.26-.66-3.14-3.56-4-6.37-.34-1.11-.89-2.93-1.3-3.37-.88-.45-5.36-2.15-6.34-2.4-.66.08-1.78.69-2.78,1.23-2.19,1.19-4.67,2.54-7.07,1.62-2.11-.8-4.71-3.73-7.47-6.82-1.82-2.04-3.7-4.16-4.95-5.01l-.16-.11-.13-.15c-2.28-2.69-.52-6,.76-8.42.62-1.17,1.33-2.5,1.27-3.18-.16-.69-2.04-5.3-2.55-6.19-.54-.46-1.84-.85-2.99-1.19-2.49-.74-5.58-1.66-6.45-4.53-.58-1.9-.58-14.8-.15-16.76.69-3.09,3.81-4.09,6.31-4.9,1.51-.49,3.08-1,3.69-1.79.33-.54,2.2-4.84,2.58-5.94-.15-.73-.73-1.78-1.29-2.79-1.16-2.1-2.47-4.48-1.76-6.8.54-1.78,3.1-4.19,7.24-7.94,2.16-1.95,4.38-3.97,5.13-5.05l.24-.35.39-.17c2.74-1.19,5.37.13,7.49,1.2,1.41.71,2.75,1.38,3.74,1.21.67-.17,4.89-1.92,5.87-2.43.39-.57.71-1.66,1.02-2.71.67-2.27,1.5-5.1,3.94-6.29,2.58-1.26,14.87-1.03,17.4-.37,3.7.97,4.58,4.45,5.22,6.99.27,1.05.56,2.24.95,2.66.93.44,5.62,2.1,6.63,2.31.73-.09,1.68-.61,2.68-1.16,1.91-1.04,4.28-2.34,7-1.62,2.13.57,13.13,11.57,13.68,13.69.62,2.35-.5,4.55-1.49,6.48-.73,1.42-1.41,2.76-1.24,3.78.18.63,2.1,4.95,2.64,5.92.45.29,1.76.7,2.66.98,2.66.82,5.67,1.76,6.33,4.05.5,1.74.4,16.15.02,17.84-.65,2.88-4.23,3.97-7.11,4.83-.89.27-2.08.63-2.47.88-.46.95-2.32,5.26-2.64,6.2.02.81.58,1.85,1.18,2.95,1.09,1.99,2.44,4.47,1.49,7.42-.56,1.73-11.89,12.56-11.99,12.63-3.03,2.02-6.08.34-8.3-.89-1.11-.62-2.26-1.25-3.05-1.25-.02,0-.03,0-.05,0-.86.23-5.22,1.92-6.07,2.36-.57.58-1.03,2.14-1.44,3.52-.74,2.5-1.57,5.34-3.94,6.11-.83.27-6.01.43-10.67.43ZM204.43,411.78c1.09,0,7.58,2.6,8.11,3.03,1.14.91,1.7,2.75,2.35,4.88.41,1.35,1.26,4.16,1.96,4.36,1.47.31,15.19.22,16.65-.11.82-.27,1.47-2.48,1.95-4.09.59-2.02,1.16-3.92,2.43-5.01.67-.58,6.85-2.94,7.63-3,1.69-.15,3.31.74,4.88,1.61,2.28,1.26,3.77,1.96,5.18,1.02,1.19-.85,9.82-9.77,10.84-11.19.46-1.67-.4-3.25-1.31-4.92-.81-1.48-1.64-3.01-1.54-4.7.05-.9,3.01-7.42,3.21-7.69.7-.94,2.09-1.36,4.02-1.94,1.79-.54,4.79-1.44,5.05-2.62.32-1.49.33-14.96.02-16.38-.21-.72-2.99-1.58-4.33-2-1.67-.52-3.12-.97-3.93-1.74-.73-.7-3.34-6.97-3.44-7.52-.34-2,.61-3.85,1.52-5.65.8-1.57,1.56-3.05,1.28-4.29-.89-1.73-9.92-10.75-11.64-11.63-1.54-.38-3.08.47-4.72,1.37-1.29.71-2.62,1.44-4.03,1.53-.01,0-.03,0-.05,0-1.17,0-7.86-2.39-8.51-2.93-1.18-.97-1.59-2.59-2.02-4.3-.66-2.6-1.22-4.34-3.07-4.82-2.29-.6-13.71-.61-15.32.17-1.25.61-1.82,2.55-2.37,4.44-.45,1.52-.87,2.96-1.72,3.96-.73.86-7.21,3.24-7.54,3.3-1.98.33-3.81-.6-5.59-1.49-1.66-.84-3.23-1.63-4.6-1.25-1.05,1.34-3.03,3.13-5.29,5.17-2.41,2.18-6.04,5.47-6.38,6.59-.34,1.11.65,2.9,1.52,4.48.81,1.46,1.57,2.84,1.68,4.2.1,1.17-3.19,7.77-3.22,7.82-1.18,1.53-3.19,2.18-5.14,2.81-2.41.78-4.01,1.39-4.31,2.71-.36,1.61-.29,13.85.09,15.24.4,1.32,2.45,1.93,4.44,2.52,1.72.51,3.34.99,4.36,2.05.75.78,3.24,7.14,3.31,7.95.14,1.56-.71,3.16-1.61,4.85-1.21,2.28-1.96,3.88-1.22,4.94,1.5,1.1,3.35,3.16,5.29,5.34,2.17,2.44,4.88,5.47,6.3,6.02,1.11.42,2.95-.58,4.57-1.46,1.49-.81,2.9-1.57,4.26-1.61,0,0,0,0,.01,0ZM226.25,419.74c-2.59,0-5.44-.19-6-.52-.94-.56-1.36-1.79-2.1-4.08-.32-1-.84-2.63-1.21-3.12-1.35-.78-10.45-4.76-11.53-5.04-1.21-.23-2.46.38-3.77,1.03-1.67.82-3.75,1.85-5.87.6-.06-.03-6.05-5.5-6.3-6.8-.16-.86.29-1.76,1.11-3.4.66-1.31,1.75-3.51,1.66-4.47-.23-1.13-4.12-10.35-4.69-11.26-.85-1.35-2.58-1.9-4.42-2.48-.95-.3-1.94-.61-2.84-1.05l-.85-.42.11-10.9.24-.37c.37-.58.9-.75,2.65-1.33,1.15-.38,4.15-1.38,4.78-2.02.7-1.23,4.69-10.87,4.96-12,.16-.98-.75-2.71-1.42-3.97-.91-1.71-1.62-3.07-1-4.32l.18-.36.34-.22c.43-.28,1.72-1.68,2.66-2.71,2.51-2.73,3.47-3.7,4.42-3.88.8-.15,1.58.21,2.87.81,1.5.7,3.75,1.75,5.52,1.53,1.34-.17,9.96-3.8,11.11-4.68.72-.55,1.24-2.1,1.7-3.46.71-2.11,1.45-4.29,3.47-4.66.52-.1,8.08-.35,9.29.46.9.61,1.28,1.86,1.81,3.59.43,1.41,1.08,3.55,1.9,4.13.82.48,9.98,4.32,10.97,4.59,1.88.39,3-.27,4.31-1.05.92-.54,1.87-1.1,3.06-1.27,2.21-.31,8.38,6.25,8.65,7.33.28,1.09-.25,2.17-.93,3.53-.76,1.54-1.71,3.46-1.42,5.39.22,1.13,3.88,9.88,4.55,10.87.63.88,2.25,1.44,3.68,1.93,2.07.71,4.21,1.45,4.59,3.5.07.36.37,8.54-.45,9.78-.59.89-1.8,1.19-3.82,1.69-1.53.38-3.84.96-4.54,1.69-.66.94-4.42,9.86-4.72,11.05-.45,1.82.24,3.2.97,4.65.75,1.5,1.69,3.36.53,5.33-.03.05-5.52,5.97-6.74,6.29-1.08.28-2.3-.3-3.99-1.09-1.17-.56-2.79-1.32-3.65-1.3-1.11.15-10.43,3.6-11.54,4.3-1.03.68-1.58,2.39-2.11,4.05-.35,1.11-.72,2.25-1.26,3.21l-.19.33-.33.2c-.42.26-2.32.38-4.39.38ZM221.85,416.58c1.35.16,5.39.21,7.01.13.25-.59.47-1.28.7-2,.66-2.05,1.4-4.38,3.32-5.64,1.14-.75,11.52-4.75,13.11-4.79,1.54-.04,3.4.82,5,1.58.58.28,1.41.67,1.88.82,1.16-.99,4.48-4.24,5-4.88.24-.47.06-.98-.66-2.4-.81-1.61-1.93-3.83-1.21-6.73.28-1.13,4.42-11.29,5.45-12.39,1.3-1.37,3.79-1.99,5.99-2.54.65-.16,1.48-.37,1.96-.54.17-1.64.22-6.66.09-7.48-.17-.37-1.76-.91-2.61-1.2-1.86-.64-3.97-1.36-5.15-3.03-.88-1.23-4.86-10.78-5.07-12.16-.43-2.86.8-5.35,1.69-7.17.24-.48.54-1.1.65-1.44-.88-1.18-4.34-4.43-5.52-5.06-.53.14-1.08.47-1.7.83-1.45.86-3.43,2.03-6.48,1.39-.92-.19-11.12-4.41-12.06-5.07-1.65-1.17-2.38-3.58-3.03-5.7-.19-.63-.44-1.46-.64-1.88-1.48-.18-6.24-.23-7.05-.09-.33.21-.85,1.75-1.16,2.67-.6,1.77-1.27,3.78-2.72,4.89-1.57,1.2-10.73,5.05-12.57,5.28-2.6.32-5.34-.94-7.15-1.78-.35-.16-.76-.35-1.05-.47-.65.56-1.94,1.96-2.76,2.85-1.08,1.17-1.88,2.03-2.5,2.6.17.44.52,1.09.77,1.57.92,1.74,2.06,3.89,1.72,5.92-.18,1.08-4.78,12.39-5.55,13.32-1,1.21-3.39,2.08-6.19,3.01-.28.09-.58.19-.85.29l-.08,7.55c.49.18,1.03.35,1.58.53,2.17.69,4.62,1.46,6.06,3.74.61.98,5,11.1,5.14,12.57.17,1.81-.96,4.09-1.97,6.09-.23.46-.52,1.04-.69,1.44,1.07,1.22,4.15,4.34,4.78,4.86.64.34,1.41.03,2.96-.74,1.54-.76,3.45-1.71,5.7-1.28.9.17,12.13,4.93,12.98,5.77.88.88,1.43,2.59,2.01,4.4.25.76.6,1.85.85,2.36ZM259.06,344.56h0s0,0,0,0ZM197.58,339.62h0,0ZM253.33,339.58h0s0,0,0,0ZM229.92,329.29h0ZM229.47,329.02h0Z"/>
      </g>
      <path class="cls-3" d="M221.9,353.02c28.99-3.94,32.75,38.25,6.25,41.36-27.83,3.26-31.82-37.89-6.25-41.36ZM222.89,360.44c-15.85,2.31-13.86,28.52,4.27,26.52,16.86-1.86,14.81-29.3-4.27-26.52Z"/>
    </g>
  </g>
</svg>