<?xml version="1.0" encoding="UTF-8"?>
<svg id="Layer_2" data-name="Layer 2" xmlns="http://www.w3.org/2000/svg" viewBox="0 0 494.78 512.22">
  <defs>
    <style>
      .cls-1 {
        fill: #070707;
      }

      .cls-2 {
        fill: #030303;
      }

      .cls-3 {
        fill: #040404;
      }
    </style>
  </defs>
  <g id="Layer_9" data-name="Layer 9">
    <g>
      <path class="cls-2" d="M426.67,199.65c.16.36,4.09,3.52,5.3,5.84,1.43,2.73,2.67,5.61,2.98,8.74-1.05,35.12,1.37,70.5.05,105.58-.08,2.05-.76,3.84-1.12,5.79,11.27,2.36,19.65,10.25,21.33,21.87v142.85c-1.72,11.96-12.11,20.82-23.94,21.89H38.91C18.59,510.6,2.18,495.93,0,475.43V120.39c1.29-14.96,12.27-29.41,26.39-34.37,12.05-4.23,25.06-1.73,37.61-2.37.8-27.2,28.27-26.8,49.04-25.58-1.79-15.67,7.22-29.56,23.19-31.71,17.03-2.3,58.86-1.84,76.51-.31,17.98,1.55,27.88,14.18,26.07,32.02,10.51.68,22.71-1.7,32.74,1.91,4.25,1.53,6.7,4.54,10.41,6.62,10.89-14.51,14.47-35.2,37.35-33.05,5.6.53,9.59,4.91,14.82,4.24,2.24-.29,10.32-4.7,11.85-6.35,3.39-3.66,1.96-7.74,3.11-11.81,3.1-10.94,10.97-17.95,22.46-19.11,7.94-.8,27.8-.84,35.1,1.12,9.1,2.43,14.72,9.1,17.17,18.01,2.3,8.36-1.29,9.93,8.3,15.15,11.31,6.16,10.22.92,19.84-.76,12.85-2.24,20.27,3.53,27.15,13.47,10.27,14.84,23.69,35.1,8.65,51.11-3.25,3.46-8.48,4.96-9.15,10.04-.38,2.87-.31,11.74.84,14.2s5.64,4.22,7.63,6.23c6.02,6.09,8.78,14.55,7.32,23.08-.88,5.15-14.74,29.18-18.49,33.73-6.19,7.5-13.8,9.68-23.36,8.62-4.72-.52-7.83-3.55-10.92-4.09-3.58-.62-16.72,5.35-14.95,9.22ZM410.44,192.38c3.44-10.69,21.66-20.17,32.39-19.07,10.87,1.12,13.65,10.63,22.42-2.34,2.06-3.05,11.45-18.51,12.1-20.97,2.31-8.74-6.06-9.91-10.26-14.82-7.49-8.75-7.94-31.2-1.22-40.34,5.16-7.02,14.86-7.29,10.54-18.02-.99-2.46-12.99-22.99-14.25-24.11-6.05-5.37-10.99,1.2-17.18,2.07-12.9,1.8-31.67-7.53-36.12-20.19-2.53-7.19.38-15.89-9.6-17.05-4.85-.57-23.22-.72-27.51.25-7.73,1.74-5.84,11.11-8.17,17.42-4.73,12.81-23.44,21.66-36.57,19.42-5.43-.93-10.03-6.9-15.65-2.35-1.37,1.11-13.88,22.05-14.87,24.56-.94,2.36-1.55,4.21-1.17,6.82h21.85c2.34,0,12.71,5.35,14.29,4.19,21.68-48.78,93.82-45.79,112.54,4.36,17.68,47.35-24.51,94.04-73.22,81.75-6.95-1.75-12.16-5.69-18.97-7.15v25.58h58.63ZM131.69,59.13h90.07c.79-11.64-.44-15.19-12.21-16.03-22.95-1.64-48.05,1.1-71.21.3-8.96,1.61-10.59,14.52-6.65,15.74ZM380.36,70.09c-11.29,1.35-22.76,8.4-29.43,17.48-1.5,2.04-6.6,10.68-6.54,12.62.04,1.3,5.96,10.98,6.95,15.38,1.7,7.56.19,26.4,3.65,30.46,15.05,17.69,47.72,15.54,63.48-.52,29.5-30.05,4.22-80.49-38.11-75.42ZM89.3,75.37c-2.45.33-6.78,2.9-7.69,5.1-1.02,2.45-1.11,31.96-.33,35.46s3.87,4.72,6.95,5.85l174.6.27c4.72-.3,7.97-3.77,8.78-8.27.97-5.38.97-25.03,0-30.41-.8-4.48-3.5-7.19-7.99-7.99H89.3ZM64,100.7c-19.68-.52-43.35-3.32-46.89,21.86l-.02,350.7c-.06,9.16,11.94,21.85,20.79,21.85h213.73c.4-1.15-1.07-2.34-1.07-2.66v-41.04h-114.59c-9.67,0-9.05-17.06-2.13-17.06h115.13c.11,0,1.6-1.49,1.6-1.6v-55.43c0-.11-1.49-1.6-1.6-1.6h-115.13c-1.57,0-5.68-6.41-5.55-8.9.15-2.66,4.28-8.16,6.61-8.16h115.66c-2.38-16.14,4.76-29.96,21.33-33.06.25-.33-2.14-6.88-2.14-7.98v-16.52h-134.85c-2.62,0-6.87-6.15-6.81-9.08.05-2.31,3.76-7.97,5.75-7.97h135.91v-57.56h-132.71c-.61,0-5.7-2.45-6.37-3.22-4.63-5.3-.7-14.47,6.63-14.64l134.99-.19c1.32-6.59,13.08-16.05,19.32-16.05h44.24v-67.69c0-4.89-3.83-13.55-7.42-17.1-10.52-10.41-26.26-5.99-39.49-6.89,1.7,17.52-3.35,35.22-22.91,38.38l-180.06-.09c-8.42-.27-21.94-12.47-21.94-20.7v-17.59ZM318.76,209.43h-25.05c-2.02,0-6.52,5.35-5.89,7.97,2.75,31.64-3.59,69.33,0,100.25.67,5.81,3.68,7.54,9.03,8.02,35.89,3.26,76.66-2.56,113.07-.03,3.69-.23,7.81-2.87,8.02-6.9v-102.44c.78-2.27-4.63-6.88-5.92-6.88h-25.05v46.37c0,3.99-6.62,9.8-10.58,10.73-12.55,2.96-15.12-6.59-23.92-12.25-7.39,7.02-15.29,18.02-26.8,10.59-1.86-1.2-6.92-7.02-6.92-9.07v-46.37ZM369.93,209.43h-34.11v37.31c12.22-14.08,21.84-13.88,34.11,0v-37.31ZM311.3,342.68h-37.84c-1.29,0-6.7,4.61-5.92,6.88v136.55c-.24,6.36,4.38,9.03,10.14,9.05,48.56-2.88,101.26,3.69,149.32,0,6.08-.47,10.35-.93,11.17-8.02l.03-137.59c.78-2.27-4.63-6.88-5.92-6.88h-37.84v58.1c0,4.88-6.01,12.12-10.65,13.86-14.4,5.4-22.27-8.17-31.46-16.51-9.3,8.05-15.71,22.18-30.37,16.48-3.98-1.55-10.67-8.62-10.67-12.77v-59.16ZM377.39,342.68h-49.03v55.43c2.07.49,2.05-.75,3-1.8,7.52-8.25,12.89-17.52,25.84-14.78,8.02,1.7,13.44,12.24,20.19,16.58v-55.43Z"/>
      <path class="cls-3" d="M75.51,388.84c27.71-2.1,38.41,13.07,35.4,39.65-3.55,31.35-58.66,31.22-61.82-.02-2.13-21.08,2.83-37.85,26.42-39.64ZM71.15,406.86c-6.57,1.91-6.47,19.54-3.84,23.66,3.1,4.87,17.11,4.95,21.61,2.63,7.42-3.82,7.26-24.93-.96-26.49-2.37-.45-14.7-.42-16.81.19Z"/>
      <path class="cls-3" d="M72.29,163.9c17.75-2.25,36.82,3.22,38.65,23.64,1.88,20.99-3.8,37.47-27.18,38.99-27.93,1.81-37.3-13.97-34.67-40,1.23-12.23,11.33-21.13,23.21-22.63ZM73.3,180.9c-2.91.58-6.27,2.8-6.95,5.85-.63,2.84-.69,14.88.33,17.34,3.14,7.52,25.33,8.51,27.1-2.7,2.61-16.57-3.37-23.92-20.48-20.48Z"/>
      <path class="cls-2" d="M69.05,239.53c30.09-5.05,45.13,8.29,41.86,38.66-3.41,31.69-58.51,30.62-61.84,1.06-1.79-15.87.98-36.54,19.98-39.72ZM91.38,281.58c3.8-3.47,3.76-19.64-.17-23.13-3.76-3.35-19.51-3.35-22.97.53-3.35,3.76-3.35,19.51.53,22.97,3.77,3.36,18.78,3.14,22.61-.37Z"/>
      <path class="cls-2" d="M71.2,314.18c28.41-4.1,42.18,9.36,39.73,37.6-1.9,22-20.16,25.68-38.99,23.99-21.14-1.9-24.64-21.14-22.86-38.94,1.15-11.46,10.75-21.01,22.12-22.65ZM91.41,333.39c-4.27-4.27-23.79-4.71-25.22,4.56-2.82,18.21,1.86,22.81,19.68,20.75,10.82-1.25,9.96-20.9,5.54-25.31Z"/>
      <path class="cls-3" d="M282.89,476.62c-3.75-3.45-5.31-9.01-5.74-13.98-1.38-15.97-.78-33.06,18.65-34.72,10.89-.93,28.52-1.65,33.34,10.44,2.01,5.05,2.04,22.62,1.25,28.41-1.04,7.68-7.86,13.63-15.36,14.49-8.32.95-25.8,1.21-32.14-4.64ZM313.43,445.01h-17.59c-.11,0-1.6,1.49-1.6,1.6v17.59h19.19v-19.19Z"/>
      <path class="cls-3" d="M350.43,307.2c-1.02,1.22-3.85,2.28-5.5,2.48-7.75.97-35.12,1.05-42.62-.11-9.72-1.51-8.66-15.4,1.06-16.93,6.61-1.04,34.84-1.04,41.45,0,6.81,1.07,10.05,9.29,5.6,14.56Z"/>
      <path class="cls-1" d="M239.63,91.4c7.69-1.14,16.98.11,16.31,9.82-.92,13.16-31.74,9.85-24.32-5.05,1.71-3.43,4.44-4.24,8.02-4.77Z"/>
      <path class="cls-1" d="M110.65,91.39c21.6-3.03,22.09,19.99.91,17.71-13.45-1.45-13.76-15.91-.91-17.71Z"/>
    </g>
  </g>
</svg>