<?xml version="1.0" encoding="UTF-8"?>
<svg id="Layer_2" data-name="Layer 2" xmlns="http://www.w3.org/2000/svg" viewBox="0 0 630.59 481.95">
  <defs>
    <style>
      .cls-1 {
        fill: #030303;
      }
    </style>
  </defs>
  <g id="Layer_9" data-name="Layer 9">
    <path class="cls-1" d="M630.59,196.18c-2.29,2.43-3.75,5.98-5.14,9.02-38.81,84.65-75.52,170.55-116.81,253.88-11.9,14.25-27.6,21.58-46.1,22.86H58.49c-31.59-2.16-55.03-22.99-58.49-54.81V36.66C2.26,16.42,17.49,3.14,37.56,1.56c61.51-4.84,129.64,3.43,191.82.39,11.83,1.41,19.93,6.75,27.45,15.65,6.56,7.77,37.39,58.98,40.83,60.16l200.4.34c12.32.07,31.54,18.33,31.54,30.04v70.81h92.98c3,0,6.16,6.57,8,8.62v8.62ZM210.02,178.94h293.1c.13,0,1.85-1.72,1.85-1.85v-61.58c0-7.31-8.46-13.08-15.41-12.91l-204.11-.32c-2.26-.94-4.01-2.42-5.66-4.2-15.2-16.4-27.65-46.62-42.78-64.36-2.32-2.72-4.75-5.71-8.58-6.19l-189.63-.12c-7.11-.05-13.13,4.27-12.94,11.69l.05,389.22c5.06,28.46,40.97,38.01,59.09,14.74,41.82-85.77,78.84-174.37,120.05-260.49.87-.94,4.01-3.43,4.98-3.64ZM597.33,203.57H223.57l-116.38,252.46h360.22c7.31,0,22.78-11.56,25.07-19.26,32.05-73.91,68.13-146.15,100.15-220.05.8-1.85,5.59-12.31,4.71-13.15Z"/>
  </g>
</svg>