<?xml version="1.0" encoding="UTF-8"?>
<svg id="Layer_2" data-name="Layer 2" xmlns="http://www.w3.org/2000/svg" viewBox="0 0 654.11 517.79">
  <g id="Layer_9" data-name="Layer 9">
    <g>
      <g>
        <path d="M24.44,461.98l602.96-.34c29.44,4.33,28.87,48.47-1.33,51.14l-599.21-.05c-27.9-4.43-29.53-43.46-2.43-50.75ZM27.2,471.64c-15.79,2.87-16.15,26.1-1.06,30.78h601.99c14.78-5.26,14.78-25.19,0-30.45l-600.93-.32Z"/>
        <path d="M626.3,517.79h-.22s-599.6-.05-599.6-.05l-.39-.06c-17.08-2.71-25.39-16.4-26.04-28.77-.66-12.53,6.22-27.21,23.1-31.75l.64-.17,603.99-.34.36.05c18.39,2.7,26.35,18.24,25.96,31.54-.38,13.08-9.17,27.9-27.58,29.53l-.22.02ZM27.28,507.74l598.57.05c.88-.08,1.71-.21,2.52-.37H25.73c.5.12,1.02.23,1.55.32ZM643.34,493.19c-1.85,6.18-6.53,11.24-12.96,13.73,7.46-2.24,11.43-7.9,12.96-13.73ZM10.37,483.16c-.33,1.79-.43,3.56-.34,5.22.34,6.51,3.85,14.44,12.33,17.95-7.95-3.52-12.79-11.62-12.23-20.88.05-.78.13-1.54.25-2.29ZM26.97,497.42h600.23c5.16-2.17,7.02-6.65,7.02-10.23s-1.86-8.06-7.02-10.23l-599.51-.32c-5.23,1.15-7.35,5.58-7.58,9.41-.26,4.35,1.77,9.44,6.86,11.37ZM630.04,467.34c6.19,2.28,10.8,6.92,12.91,12.67-1.87-5.63-6.05-10.59-12.91-12.67ZM337.19,466.81l291.45.16c-.53-.12-1.06-.23-1.62-.32l-289.83.16Z"/>
      </g>
      <g>
        <path d="M517.29,6.4c11.13-1.87,58.61-1.87,69.75,0,10.03,1.68,16.36,8.85,18.88,18.39l.09,397.52c-1.17,10.82-9.25,19.77-20.14,21.27-12.9,1.78-54.25,1.64-67.16-.24-9.61-1.4-16.34-7.76-18.91-16.98l-.12-401.68c1.03-8.54,9.34-16.88,17.62-18.27ZM517.25,17.41c-5.22,1.49-8.2,5.95-7.95,11.37l.15,394.82c.75,4.79,4.22,8.23,8.97,8.97,10.5,1.64,57,1.64,67.48,0,5.88-.92,9.37-5.77,9.12-11.59l-.1-396.25c-.72-3.85-5.36-6.97-9.02-7.55l-68.65.22Z"/>
        <path d="M554.37,449.85c-14.47,0-29.33-.53-36.39-1.56-11.43-1.66-19.82-9.17-23.01-20.59l-.18-.66v-.68l-.12-401.98.04-.3c1.29-10.66,11.05-20.8,21.75-22.61h0c11.66-1.96,59.7-1.96,71.4,0,11.35,1.9,19.69,9.94,22.89,22.05l.17.63v.65l.09,397.79-.03.27c-1.44,13.34-11.49,23.9-24.43,25.69-6.39.88-19.12,1.31-32.18,1.31ZM510.21,434.31c2.48,2.16,5.58,3.56,9.21,4.09,12.27,1.78,53.45,1.93,65.76.23,8.3-1.14,14.78-7.96,15.83-16.6l-.09-396.56c-1.64-5.73-5.53-12.6-14.71-14.14-10.52-1.76-57.61-1.76-68.09,0h0c-2.76.46-5.54,1.99-7.85,4.09,1.6-1.25,3.49-2.21,5.61-2.82l.67-.19,69.75-.22.39.06c5.56.88,12,5.44,13.15,11.56l.09.46v.47l.1,396.15c.31,8.52-5.16,15.34-13.35,16.63-10.94,1.71-58.03,1.71-69.03,0-2.82-.44-5.36-1.56-7.44-3.21ZM514.45,423.17c.5,2.46,2.22,4.08,4.74,4.47,9.89,1.54,56.11,1.54,65.94,0,3.79-.59,5.02-3.71,4.9-6.43v-.21s-.1-395.6-.1-395.6c-.48-1.14-2.56-2.76-4.47-3.2l-67.4.21c-2.53.96-3.89,3.17-3.76,6.15v.23s.15,394.38.15,394.38Z"/>
      </g>
      <g>
        <path d="M366.81,78.19c10.67-1.79,60.69-1.91,71.14-.01,7.74,1.41,15.98,9.27,17.25,17.27l.37,328.27c-1.93,11.02-9.5,18.02-20.41,19.62-12.94,1.9-52.56,1.87-65.54,0-10.23-1.47-17.41-7.2-20.06-17.22l-.35-329.66c1.03-8.54,9.34-16.88,17.62-18.27ZM370.95,87.85c-6.02,1.01-11.92,4.6-12.1,11.37l.12,322.99c1.37,5.15,3.19,9.44,8.97,10.36,20.2,3.19,47.87-2.16,68.91.06,6.07-2.09,9.07-8.3,9.06-14.41l-.14-318.87c-1.44-7.39-5.87-10.72-13.15-11.7-11.26-1.52-50.75-1.62-61.67.21Z"/>
        <path d="M402.46,449.76c-13.37,0-26.77-.49-33.57-1.47-12.51-1.8-21.1-9.22-24.18-20.89l-.16-.62v-.65s-.35-329.97-.35-329.97l.04-.3c1.29-10.66,11.04-20.81,21.75-22.61,11.68-1.97,62.07-1.96,72.86,0,9.99,1.82,19.74,11.62,21.29,21.41l.06.39v.39l.37,328.71-.08.43c-2.27,12.91-11.47,21.77-24.61,23.7-6.66.98-20.02,1.47-33.41,1.47ZM364.69,436.93c1.69.68,3.56,1.17,5.62,1.47,12.74,1.83,51.68,1.83,64.1,0,8.79-1.29,14.5-6.66,16.14-15.13v-.86c-1.25,7.1-5.71,12.75-12.07,14.95l-1.05.36-1.1-.12c-9.49-1-20.82-.37-31.79.23-12.85.71-26.14,1.45-37.38-.32-.88-.14-1.71-.34-2.47-.58ZM354.54,425.45c.6,2.06,1.45,3.88,2.53,5.47-1.28-2.04-2.02-4.21-2.53-5.96v.49ZM363.98,421.55c1.35,4.79,2.54,5.74,4.75,6.09,10.18,1.61,22.93.9,35.26.22,10.89-.6,22.14-1.23,32.12-.32,3.54-1.76,4.81-6.01,4.8-9.3l-.14-318.37c-1.01-4.55-3.44-6.54-8.81-7.26-10.71-1.44-49.69-1.57-60.18.19h0c-1.82.3-7.75,1.67-7.92,6.51l.12,322.24ZM432.29,82.57c.35.04.69.08,1,.12,9.01,1.21,14.68,5.8,16.9,13.65v-.46c-1.1-5.59-7.37-11.73-13.14-12.79-1.1-.2-2.73-.38-4.76-.53ZM367.64,83.12c-3.28.55-6.6,2.62-9.13,5.35,2.83-2.78,6.82-4.75,11.61-5.55h0c.69-.12,1.49-.23,2.37-.33-2.03.15-3.69.33-4.86.53h0Z"/>
      </g>
      <g>
        <path d="M216.33,130.65c11.28-1.9,59.84-1.9,71.12,0,8.06,1.35,14.68,8.39,17.27,15.86l.35,278.59c-1.06,9.32-10.1,16.79-19,18.28-11.01,1.84-57.36,1.84-68.37,0-9.03-1.51-16.47-8.31-18.64-17.25l-.32-275.79c.73-9.35,8.41-18.14,17.59-19.68ZM292.18,429.47c2.02-2.21,3.24-6.8,3.28-9.85l-.67-270.06c-1-6.08-7.11-8.7-12.64-9.45-11.28-1.52-50.71-1.61-61.67.21-7.37,1.23-11.21,5.3-12.1,12.75l.63,270.03c1.4,4.75,4.55,8.97,9.69,9.64,12.59,1.65,53.66,1.54,66.39-.01,2.34-.28,5.54-1.56,7.1-3.26Z"/>
        <path d="M251.89,449.75c-14.64,0-29.28-.48-35.01-1.44-11.12-1.86-20.02-10.1-22.68-21l-.14-.58v-.6s-.33-275.99-.33-275.99v-.2c.93-11.69,10.48-22.33,21.76-24.22,11.9-2,60.87-2,72.78,0,10.65,1.79,18.31,10.91,21.17,19.15l.28.79.35,279.71-.03.28c-1.41,12.43-12.97,20.95-23.14,22.65-5.73.96-20.38,1.44-35.02,1.44ZM204.07,425.49c1.85,6.63,7.6,11.81,14.47,12.96,10.59,1.77,56.11,1.77,66.72,0,2.82-.47,5.83-1.8,8.41-3.73-2.47,1.67-5.56,2.68-7.98,2.97-13.44,1.64-55.17,1.64-67.65,0-6.48-.85-11.65-5.78-13.83-13.19l-.14-.48v1.46ZM300.08,423.36c-.57,3.15-1.81,6.55-3.76,8.96,1.97-2.14,3.38-4.71,3.76-7.53v-1.43ZM214,422.32c.72,2.1,2.27,5.06,5.34,5.46,11.71,1.53,52.5,1.52,65.14-.02,1.59-.19,3.53-1.15,4.01-1.67.86-.94,1.94-4.14,1.96-6.53l-.67-269.51c-.87-3.6-6.07-4.68-8.31-4.99-10.65-1.44-49.63-1.57-60.18.19-5.07.84-7.25,3.06-7.92,8.13l.62,268.94ZM217.16,135.58h0c-6.7,1.13-12.61,7.64-13.39,14.66,1.71-8.29,7.16-13.41,15.88-14.86.77-.13,1.66-.25,2.65-.36-2.14.16-3.9.35-5.15.56ZM298.29,144.45c.69,1.32,1.17,2.76,1.43,4.29v.09s.01-1.43.01-1.43c-.4-1.03-.89-2.01-1.44-2.96ZM282.46,135.1c.12.02.24.03.36.05,5.47.74,9.9,2.77,12.88,5.77-2.57-2.82-5.79-4.79-9.06-5.34-1.05-.18-2.47-.34-4.17-.48Z"/>
      </g>
      <g>
        <path d="M67.23,185.87c11.15-1.87,58.6-1.87,69.75,0,8.06,1.35,14.68,8.39,17.27,15.86l.35,223.36c-1.04,8.95-9.35,16.24-17.9,18-10.79,2.22-56.57,1.94-68.05.25-10.15-1.5-16.99-7.57-19.77-17.51l-.64-220.31c1.8-10.1,8.68-17.93,19-19.66ZM71.41,195.57c-8.46,1.32-12.5,5.58-13.48,14.13l.59,213.39c.87,3.67,4.49,8.79,8.41,9.54l70.08-.26c4.6-1.25,7.79-5.25,7.92-10.03l-.33-217.86c-1.26-5.65-7.73-8.44-12.94-9.15-11.53-1.56-48.89-1.54-60.26.24Z"/>
        <path d="M103.48,449.7c-14.78,0-29.68-.54-35.56-1.41-12.08-1.78-20.55-9.27-23.86-21.11l-.18-.65-.65-221.44.08-.44c2.25-12.61,11.1-21.7,23.09-23.71h0c11.69-1.96,59.74-1.96,71.4,0,10.65,1.79,18.31,10.91,21.17,19.15l.28.79v.84s.35,223.66.35,223.66l-.03.29c-1.4,11.99-12.05,20.3-21.86,22.31-5.85,1.2-19.98,1.71-34.23,1.71ZM64.68,437.21c1.44.55,3.01.94,4.7,1.19,11.38,1.68,56.31,1.86,66.32-.2,1.61-.33,3.26-.94,4.84-1.78-.71.31-1.44.57-2.2.77l-.64.17-71.22.27-.47-.09c-.45-.09-.89-.2-1.33-.34ZM53.88,425.12c1.42,4.64,3.89,8.11,7.4,10.38-3.75-2.61-6.37-7.01-7.4-10.44v.07ZM63.52,422.41c.72,2.22,2.76,4.68,4.05,5.22l68.66-.26c2.19-.81,3.61-2.76,3.69-5.1l-.32-217.12c-.94-2.67-5.04-4.38-8.61-4.87-11.49-1.56-48.32-1.41-58.81.23h0c-6.12.96-8.49,3.36-9.25,9.48l.59,212.42ZM53.24,205.98v1.24c1.68-9.59,7.39-15.03,17.4-16.6,1.15-.18,2.53-.34,4.1-.49-2.85.18-5.15.4-6.68.66h0c-7.69,1.29-13.21,6.95-14.82,15.18ZM132.04,190.33c.1.01.2.03.29.04,4.15.56,8.68,2.13,12.1,4.96-2.43-2.39-5.34-4.04-8.29-4.53-1.04-.17-2.43-.33-4.11-.47Z"/>
      </g>
    </g>
  </g>
</svg>