<svg width="15" height="14" viewBox="0 0 15 14" fill="none" xmlns="http://www.w3.org/2000/svg">
<path d="M9.45573 1.16663H4.78906C2.45573 1.16663 1.28906 2.33329 1.28906 4.66663V12.25C1.28906 12.5708 1.55156 12.8333 1.8724 12.8333H9.45573C11.7891 12.8333 12.9557 11.6666 12.9557 9.33329V4.66663C12.9557 2.33329 11.7891 1.16663 9.45573 1.16663Z" stroke="#001738" stroke-linecap="round" stroke-linejoin="round"/>
<path d="M7.65221 4.5733L4.62471 7.6008C4.50805 7.71747 4.39722 7.94497 4.37388 8.1083L4.21055 9.2633C4.15222 9.6833 4.44388 9.97497 4.86388 9.91663L6.01887 9.7533C6.1822 9.72997 6.40972 9.61913 6.52638 9.50247L9.55389 6.47497C10.0731 5.9558 10.3239 5.34913 9.55389 4.57913C8.78389 3.8033 8.17721 4.0483 7.65221 4.5733Z" stroke="#001738" stroke-miterlimit="10" stroke-linecap="round" stroke-linejoin="round"/>
<path d="M7.21875 5.005C7.47542 5.92084 8.19292 6.64417 9.11458 6.90084" stroke="#001738" stroke-miterlimit="10" stroke-linecap="round" stroke-linejoin="round"/>
</svg>
