<svg width="15" height="14" viewBox="0 0 15 14" fill="none" xmlns="http://www.w3.org/2000/svg">
<g id="convert-PDF-2--essential-files-folder-convert-to-PDF">
<g id="Free Remix/Interface Essential/convert-PDF-2--essential-files-folder-convert-to-PDF">
<path id="Union" fill-rule="evenodd" clip-rule="evenodd" d="M3.13205 1.35983C3.20238 1.28951 3.29776 1.25 3.39722 1.25H9.51334L12.5222 4.25888V12.375C12.5222 12.4745 12.4827 12.5698 12.4124 12.6402C12.342 12.7105 12.2467 12.75 12.1472 12.75H3.39722C3.29776 12.75 3.20238 12.7105 3.13205 12.6402C3.06173 12.5698 3.02222 12.4745 3.02222 12.375V1.625C3.02222 1.52554 3.06173 1.43016 3.13205 1.35983ZM3.39722 0C2.96624 0 2.55292 0.171205 2.24817 0.475951C1.94342 0.780698 1.77222 1.19402 1.77222 1.625V12.375C1.77222 12.806 1.94342 13.2193 2.24817 13.524C2.55292 13.8288 2.96624 14 3.39722 14H12.1472C12.5782 14 12.9915 13.8288 13.2962 13.524C13.601 13.2193 13.7722 12.806 13.7722 12.375V4C13.7722 3.83424 13.7064 3.67527 13.5891 3.55806L10.2142 0.183058C10.0969 0.0658481 9.93798 0 9.77222 0H3.39722ZM4.52234 10.8792C4.69029 11.02 4.91478 11.1271 5.18127 11.1175C5.43912 11.1083 5.6444 10.9928 5.78905 10.872C6.0583 10.6471 6.2501 10.2942 6.39196 9.96276C6.42923 9.87568 6.46552 9.78402 6.50079 9.68837C6.86909 9.55001 7.29161 9.41912 7.73131 9.30809C8.15984 9.19988 8.5843 9.11568 8.96869 9.06166C9.05669 9.13212 9.14332 9.19806 9.22811 9.25887C9.52831 9.47417 9.87491 9.67682 10.2173 9.73868C10.3983 9.77137 10.6294 9.774 10.8567 9.66483C11.0968 9.54946 11.2486 9.34999 11.3305 9.13816C11.4042 8.94756 11.4399 8.70806 11.3514 8.46149C11.2634 8.21635 11.0867 8.05944 10.9236 7.96512C10.6271 7.7937 10.2439 7.75088 9.91594 7.74404C9.74677 7.74051 9.56415 7.74652 9.37217 7.76078C8.99403 7.4146 8.5826 6.98109 8.18582 6.51236C7.84358 6.10804 7.52425 5.69173 7.25614 5.30127C7.26135 5.02796 7.25611 4.76936 7.23899 4.53378C7.2118 4.15963 7.15072 3.77538 7.01092 3.47899C6.94015 3.32896 6.82239 3.14323 6.62225 3.01547C6.39588 2.87096 6.13518 2.84588 5.89422 2.91727C5.65015 2.98958 5.4477 3.15466 5.33694 3.39544C5.23891 3.60857 5.23747 3.82671 5.25689 3.99225C5.29529 4.31971 5.44569 4.68142 5.62112 5.01886C5.72621 5.221 5.85156 5.43536 5.99235 5.65647C5.96782 6.11308 5.91517 6.61424 5.83828 7.11657C5.74764 7.70867 5.62713 8.27728 5.48996 8.75572C5.33966 8.82529 5.19914 8.89703 5.07127 8.97043C4.78845 9.13276 4.47002 9.35652 4.29503 9.6576C4.19773 9.82501 4.1255 10.0509 4.17312 10.3071C4.22031 10.561 4.36753 10.7495 4.52234 10.8792ZM7.42528 8.09613C7.25151 8.14001 7.07708 8.18751 6.90437 8.23821C6.96926 7.93259 7.02603 7.61835 7.07389 7.30571C7.08143 7.25644 7.08878 7.20704 7.09592 7.15757C7.14093 7.21204 7.18623 7.2662 7.23174 7.31997C7.42772 7.55149 7.63125 7.78 7.83722 7.99856C7.69922 8.02908 7.56154 8.06172 7.42528 8.09613ZM6.49705 3.83098C6.49717 3.82858 6.49712 3.8273 6.49707 3.82726C6.49704 3.82724 6.497 3.8276 6.497 3.82837C6.49699 3.82898 6.49701 3.82984 6.49705 3.83098ZM5.87309 3.99834C5.87288 3.99802 5.8731 3.99832 5.87309 3.99834V3.99834Z" fill="#FD0000"/>
</g>
</g>
</svg>
