<?xml version="1.0" encoding="UTF-8"?>
<svg id="Layer_2" data-name="Layer 2" xmlns="http://www.w3.org/2000/svg" viewBox="0 0 598.06 543.99">
  <defs>
    <style>
      .cls-1 {
        fill: #040404;
      }
    </style>
  </defs>
  <g id="Layer_9" data-name="Layer 9">
    <g>
      <path class="cls-1" d="M264.99,1.42c12.52-2.11,51.32-1.55,64.8-.34,12.37,1.11,22.57,9.61,25.07,21.91,1.06,5.2.32,9.66,1.09,14.57,5.3,33.57,41.12,54.64,73.13,43.64,19.26-6.62,28.96-29.58,52.63-18.85,6.22,2.82,43.56,40.08,49.19,47.17,6.03,7.59,8.12,14.8,6.54,24.63-1.54,9.54-13.31,18.1-17.78,26.78-17.16,33.31,3.47,74.95,40.45,80.78,3.96.62,7.78-.08,11.6.44,13.64,1.86,23.63,11.88,24.87,25.71,1.33,14.85,1.6,48.13-.05,62.68-.7,6.22-4.82,14.13-9.61,18.09-11.03,9.12-24.48,5.03-37.34,9.63-6.45,2.31-17.46,11.83-21.39,12.41-5.76.86-9.79-5.74-8.73-11.19,1.55-8,24.63-17.9,32.26-19.55,11.36-2.46,26.65,1.99,28-12.95,1.28-14.15,1.3-42.58,0-56.72-.4-4.37-1.47-7.81-5.75-9.9-4.92-2.4-16.91-1.76-24.15-3.55-45.42-11.22-66.45-65.39-43.83-105.93,5.41-9.7,19.7-18.26,12.8-29.25-9.02-6.45-38.14-42.59-45.97-44.37-9.85-2.23-11.65,4.61-18.01,9.18-41.41,29.75-102.43,10.88-114.22-39.53-2.72-11.65,1.89-27.59-13.18-28.97-14.14-1.3-42.57-1.28-56.72,0-15.06,1.37-10.47,17.38-13.18,28.97-10.8,46.17-66.33,68.03-106.97,44.31-10.3-6.01-17.58-20.28-29.77-11.23-7.09,5.27-35.09,33.26-40.35,40.35-8.47,11.41.62,14.33,5.95,21.8,29.63,41.6,12.55,102.15-38.1,114.66-7.25,1.79-19.24,1.15-24.15,3.55-4.28,2.09-5.35,5.54-5.75,9.9-1.3,14.14-1.28,42.57,0,56.72,1.36,14.94,16.65,10.49,28,12.95,7.63,1.65,30.71,11.55,32.26,19.55,1.06,5.45-2.97,12.05-8.73,11.19-3.86-.57-14.48-9.77-20.53-12.06-12.37-4.69-25.37-1.25-36.16-8.4-6.55-4.34-11-13.08-11.69-20.83-1.33-14.84-1.6-48.13.05-62.68.73-6.43,5.13-14.74,10.25-18.66,9.72-7.46,20.8-5.04,31.9-7.85,30.53-7.71,48.14-41.89,37.92-71.62-6.95-20.22-34.04-32.93-15.52-57.73,7.08-9.48,34.34-36.55,43.84-44.08,25.93-20.57,37.9,7.16,59.06,14.44,26.25,9.02,56.99-3.76,68.45-29.05,8.22-18.14.46-46.15,27.56-50.73Z"/>
      <path class="cls-1" d="M292.21,156.95c-.14-.14-2.68.03-3.98-.48-14.43-5.69-21.57-19.32-20.98-34.45-39.59,10.74-70.6,47.05-76.69,87.48-.78,5.21-.49,16.34-2.05,19.9-2.59,5.91-11.89,5.08-13.05-1.12-3.05-16.31,6.6-45.75,14.42-60.38,58.13-108.64,225.93-71.71,233.11,48.39.39,6.6,1.03,20.91-9.58,16.59-6.59-2.68-3.87-10.66-4.56-16.42-5.35-44.34-34.27-82.1-77.71-94.44.58,15.13-6.55,28.75-20.98,34.45-1.31.52-3.98.28-3.98.48v27.95h57.39c2.83,0,5.07,6.1,5.4,8.57.89,6.56.86,27.05-.36,33.4-2.18,11.4-14.53,6.69-14.53.45v-28.44h-109.79v28.44c0,6.24-12.34,10.96-14.53-.45-1.22-6.35-1.24-26.84-.36-33.4.33-2.47,2.57-8.57,5.4-8.57h57.39c-.76-3.6,1.01-26.98,0-27.95ZM317.15,118.04c-11.87-1.51-24.04-1.51-35.91,0-4.44,34.81,40.36,34.79,35.91,0Z"/>
      <g>
        <g>
          <path d="M503.63,543.74H94.43C42.5,543.74.25,501.49.25,449.56s42.25-94.18,94.18-94.18h409.2c51.93,0,94.18,42.25,94.18,94.18s-42.25,94.18-94.18,94.18ZM94.43,371.1c-43.26,0-78.46,35.2-78.46,78.46s35.2,78.46,78.46,78.46h409.2c43.26,0,78.46-35.2,78.46-78.46s-35.2-78.46-78.46-78.46H94.43Z"/>
          <path d="M503.63,543.99H94.43c-52.07,0-94.43-42.36-94.43-94.43s42.36-94.43,94.43-94.43h409.2c52.07,0,94.43,42.36,94.43,94.43s-42.36,94.43-94.43,94.43ZM94.43,355.63c-51.79,0-93.93,42.14-93.93,93.93s42.14,93.93,93.93,93.93h409.2c51.79,0,93.93-42.14,93.93-93.93s-42.14-93.93-93.93-93.93H94.43ZM503.63,528.27H94.43c-43.4,0-78.71-35.31-78.71-78.71s35.31-78.71,78.71-78.71h409.2c43.4,0,78.71,35.31,78.71,78.71s-35.31,78.71-78.71,78.71ZM94.43,371.35c-43.13,0-78.21,35.09-78.21,78.21s35.09,78.21,78.21,78.21h409.2c43.13,0,78.21-35.09,78.21-78.21s-35.09-78.21-78.21-78.21H94.43Z"/>
        </g>
        <g>
          <path d="M499.87,511.25H102.73c-34.02,0-61.69-27.67-61.69-61.69s27.67-61.69,61.69-61.69h397.14c34.02,0,61.69,27.67,61.69,61.69s-27.67,61.69-61.69,61.69ZM102.73,397.87c-28.5,0-51.69,23.19-51.69,51.69s23.19,51.69,51.69,51.69h397.14c28.5,0,51.69-23.19,51.69-51.69s-23.19-51.69-51.69-51.69H102.73Z"/>
          <path d="M499.87,513.75H102.73c-35.39,0-64.19-28.8-64.19-64.19s28.8-64.19,64.19-64.19h397.14c35.39,0,64.19,28.8,64.19,64.19s-28.8,64.19-64.19,64.19ZM102.73,390.37c-32.64,0-59.19,26.55-59.19,59.19s26.55,59.19,59.19,59.19h397.14c32.64,0,59.19-26.55,59.19-59.19s-26.55-59.19-59.19-59.19H102.73ZM499.87,503.75H102.73c-29.88,0-54.19-24.31-54.19-54.19s24.31-54.19,54.19-54.19h397.14c29.88,0,54.19,24.31,54.19,54.19s-24.31,54.19-54.19,54.19ZM102.73,400.37c-27.12,0-49.19,22.07-49.19,49.19s22.07,49.19,49.19,49.19h397.14c27.12,0,49.19-22.07,49.19-49.19s-22.07-49.19-49.19-49.19H102.73Z"/>
        </g>
        <g>
          <path d="M97.34,501.45c-28.61,0-51.89-23.28-51.89-51.89s23.28-51.89,51.89-51.89,51.89,23.28,51.89,51.89-23.28,51.89-51.89,51.89ZM97.34,407.67c-23.1,0-41.89,18.79-41.89,41.89s18.79,41.89,41.89,41.89,41.89-18.79,41.89-41.89-18.79-41.89-41.89-41.89Z"/>
          <path d="M97.33,503.95c-29.99,0-54.39-24.4-54.39-54.39s24.4-54.39,54.39-54.39,54.39,24.4,54.39,54.39-24.4,54.39-54.39,54.39ZM97.33,400.17c-27.23,0-49.39,22.16-49.39,49.39s22.16,49.39,49.39,49.39,49.39-22.16,49.39-49.39-22.16-49.39-49.39-49.39ZM97.33,493.95c-24.48,0-44.39-19.91-44.39-44.39s19.91-44.39,44.39-44.39,44.39,19.91,44.39,44.39-19.91,44.39-44.39,44.39ZM97.33,410.17c-21.72,0-39.39,17.67-39.39,39.39s17.67,39.39,39.39,39.39,39.39-17.67,39.39-39.39-17.67-39.39-39.39-39.39Z"/>
        </g>
        <g>
          <path d="M301.3,501.45c-28.61,0-51.89-23.28-51.89-51.89s23.28-51.89,51.89-51.89,51.89,23.28,51.89,51.89-23.28,51.89-51.89,51.89ZM301.3,407.67c-23.1,0-41.89,18.79-41.89,41.89s18.79,41.89,41.89,41.89,41.89-18.79,41.89-41.89-18.79-41.89-41.89-41.89Z"/>
          <path d="M301.3,503.95c-29.99,0-54.39-24.4-54.39-54.39s24.4-54.39,54.39-54.39,54.39,24.4,54.39,54.39-24.4,54.39-54.39,54.39ZM301.3,400.17c-27.23,0-49.39,22.16-49.39,49.39s22.16,49.39,49.39,49.39,49.39-22.16,49.39-49.39-22.16-49.39-49.39-49.39ZM301.3,493.95c-24.48,0-44.39-19.91-44.39-44.39s19.91-44.39,44.39-44.39,44.39,19.91,44.39,44.39-19.91,44.39-44.39,44.39ZM301.3,410.17c-21.72,0-39.39,17.67-39.39,39.39s17.67,39.39,39.39,39.39,39.39-17.67,39.39-39.39-17.67-39.39-39.39-39.39Z"/>
        </g>
        <g>
          <path d="M504.67,501.45c-28.61,0-51.89-23.28-51.89-51.89s23.28-51.89,51.89-51.89,51.89,23.28,51.89,51.89-23.28,51.89-51.89,51.89ZM504.67,407.67c-23.1,0-41.89,18.79-41.89,41.89s18.79,41.89,41.89,41.89,41.89-18.79,41.89-41.89-18.79-41.89-41.89-41.89Z"/>
          <path d="M504.67,503.95c-29.99,0-54.39-24.4-54.39-54.39s24.4-54.39,54.39-54.39,54.39,24.4,54.39,54.39-24.4,54.39-54.39,54.39ZM504.67,400.17c-27.23,0-49.39,22.16-49.39,49.39s22.16,49.39,49.39,49.39,49.39-22.16,49.39-49.39-22.16-49.39-49.39-49.39ZM504.67,493.95c-24.48,0-44.39-19.91-44.39-44.39s19.91-44.39,44.39-44.39,44.39,19.91,44.39,44.39-19.91,44.39-44.39,44.39ZM504.67,410.17c-21.72,0-39.39,17.67-39.39,39.39s17.67,39.39,39.39,39.39,39.39-17.67,39.39-39.39-17.67-39.39-39.39-39.39Z"/>
        </g>
      </g>
      <g>
        <g>
          <g>
            <path d="M181.77,345.4h-45.85c-20.88,0-37.87-16.99-37.87-37.87v-45.85c0-20.88,16.99-37.87,37.87-37.87h45.85c20.88,0,37.87,16.99,37.87,37.87v45.85c0,20.88-16.99,37.87-37.87,37.87ZM135.92,234.27c-15.11,0-27.4,12.29-27.4,27.4v45.85c0,15.11,12.29,27.4,27.4,27.4h45.85c15.11,0,27.4-12.29,27.4-27.4v-45.85c0-15.11-12.29-27.4-27.4-27.4h-45.85Z"/>
            <path d="M181.77,347.9h-45.85c-22.26,0-40.37-18.11-40.37-40.37v-45.85c0-22.26,18.11-40.37,40.37-40.37h45.85c22.26,0,40.37,18.11,40.37,40.37v45.85c0,22.26-18.11,40.37-40.37,40.37ZM135.92,226.3c-19.5,0-35.37,15.87-35.37,35.37v45.85c0,19.5,15.87,35.37,35.37,35.37h45.85c19.5,0,35.37-15.87,35.37-35.37v-45.85c0-19.5-15.87-35.37-35.37-35.37h-45.85ZM181.77,337.43h-45.85c-16.49,0-29.9-13.42-29.9-29.9v-45.85c0-16.49,13.42-29.9,29.9-29.9h45.85c16.49,0,29.9,13.42,29.9,29.9v45.85c0,16.49-13.42,29.9-29.9,29.9ZM135.92,236.77c-13.73,0-24.9,11.17-24.9,24.9v45.85c0,13.73,11.17,24.9,24.9,24.9h45.85c13.73,0,24.9-11.17,24.9-24.9v-45.85c0-13.73-11.17-24.9-24.9-24.9h-45.85Z"/>
          </g>
          <g>
            <path d="M168.75,258.54h-19.82c-5.54,0-10.05-4.51-10.05-10.05v-14.65c0-5.54,4.51-10.05,10.05-10.05h19.82c5.54,0,10.05,4.51,10.05,10.05v14.65c0,5.54-4.51,10.05-10.05,10.05ZM149.35,248.08h18.98v-13.81h-18.98v13.81Z"/>
            <path d="M168.75,261.04h-19.82c-6.92,0-12.55-5.63-12.55-12.55v-14.65c0-6.92,5.63-12.55,12.55-12.55h19.82c6.92,0,12.55,5.63,12.55,12.55v14.65c0,6.92-5.63,12.55-12.55,12.55ZM148.93,226.3c-4.16,0-7.55,3.38-7.55,7.55v14.65c0,4.16,3.38,7.55,7.55,7.55h19.82c4.16,0,7.55-3.38,7.55-7.55v-14.65c0-4.16-3.39-7.55-7.55-7.55h-19.82ZM170.83,250.58h-23.98v-18.81h23.98v18.81ZM151.85,245.58h13.98v-8.81h-13.98v8.81Z"/>
          </g>
        </g>
        <g>
          <g>
            <path d="M321.96,345.4h-45.85c-20.88,0-37.87-16.99-37.87-37.87v-45.85c0-20.88,16.99-37.87,37.87-37.87h45.85c20.88,0,37.87,16.99,37.87,37.87v45.85c0,20.88-16.99,37.87-37.87,37.87ZM276.1,234.27c-15.11,0-27.4,12.29-27.4,27.4v45.85c0,15.11,12.29,27.4,27.4,27.4h45.85c15.11,0,27.4-12.29,27.4-27.4v-45.85c0-15.11-12.29-27.4-27.4-27.4h-45.85Z"/>
            <path d="M321.96,347.9h-45.85c-22.26,0-40.37-18.11-40.37-40.37v-45.85c0-22.26,18.11-40.37,40.37-40.37h45.85c22.26,0,40.37,18.11,40.37,40.37v45.85c0,22.26-18.11,40.37-40.37,40.37ZM276.1,226.3c-19.5,0-35.37,15.87-35.37,35.37v45.85c0,19.5,15.87,35.37,35.37,35.37h45.85c19.5,0,35.37-15.87,35.37-35.37v-45.85c0-19.5-15.87-35.37-35.37-35.37h-45.85ZM321.96,337.43h-45.85c-16.49,0-29.9-13.42-29.9-29.9v-45.85c0-16.49,13.42-29.9,29.9-29.9h45.85c16.49,0,29.9,13.42,29.9,29.9v45.85c0,16.49-13.42,29.9-29.9,29.9ZM276.1,236.77c-13.73,0-24.9,11.17-24.9,24.9v45.85c0,13.73,11.17,24.9,24.9,24.9h45.85c13.73,0,24.9-11.17,24.9-24.9v-45.85c0-13.73-11.17-24.9-24.9-24.9h-45.85Z"/>
          </g>
          <g>
            <path d="M308.94,258.54h-19.82c-5.54,0-10.05-4.51-10.05-10.05v-14.65c0-5.54,4.51-10.05,10.05-10.05h19.82c5.54,0,10.05,4.51,10.05,10.05v14.65c0,5.54-4.51,10.05-10.05,10.05ZM289.54,248.08h18.98v-13.81h-18.98v13.81Z"/>
            <path d="M308.94,261.04h-19.82c-6.92,0-12.55-5.63-12.55-12.55v-14.65c0-6.92,5.63-12.55,12.55-12.55h19.82c6.92,0,12.55,5.63,12.55,12.55v14.65c0,6.92-5.63,12.55-12.55,12.55ZM289.12,226.3c-4.16,0-7.55,3.38-7.55,7.55v14.65c0,4.16,3.39,7.55,7.55,7.55h19.82c4.16,0,7.55-3.38,7.55-7.55v-14.65c0-4.16-3.38-7.55-7.55-7.55h-19.82ZM311.02,250.58h-23.98v-18.81h23.98v18.81ZM292.04,245.58h13.98v-8.81h-13.98v8.81Z"/>
          </g>
        </g>
        <g>
          <g>
            <path d="M462.15,345.4h-45.85c-20.88,0-37.87-16.99-37.87-37.87v-45.85c0-20.88,16.99-37.87,37.87-37.87h45.85c20.88,0,37.87,16.99,37.87,37.87v45.85c0,20.88-16.99,37.87-37.87,37.87ZM416.29,234.27c-15.11,0-27.4,12.29-27.4,27.4v45.85c0,15.11,12.29,27.4,27.4,27.4h45.85c15.11,0,27.4-12.29,27.4-27.4v-45.85c0-15.11-12.29-27.4-27.4-27.4h-45.85Z"/>
            <path d="M462.15,347.9h-45.85c-22.26,0-40.37-18.11-40.37-40.37v-45.85c0-22.26,18.11-40.37,40.37-40.37h45.85c22.26,0,40.37,18.11,40.37,40.37v45.85c0,22.26-18.11,40.37-40.37,40.37ZM416.29,226.3c-19.5,0-35.37,15.87-35.37,35.37v45.85c0,19.5,15.87,35.37,35.37,35.37h45.85c19.5,0,35.37-15.87,35.37-35.37v-45.85c0-19.5-15.87-35.37-35.37-35.37h-45.85ZM462.15,337.43h-45.85c-16.49,0-29.9-13.42-29.9-29.9v-45.85c0-16.49,13.42-29.9,29.9-29.9h45.85c16.49,0,29.9,13.42,29.9,29.9v45.85c0,16.49-13.42,29.9-29.9,29.9ZM416.29,236.77c-13.73,0-24.9,11.17-24.9,24.9v45.85c0,13.73,11.17,24.9,24.9,24.9h45.85c13.73,0,24.9-11.17,24.9-24.9v-45.85c0-13.73-11.17-24.9-24.9-24.9h-45.85Z"/>
          </g>
          <g>
            <path d="M449.13,258.54h-19.82c-5.54,0-10.05-4.51-10.05-10.05v-14.65c0-5.54,4.51-10.05,10.05-10.05h19.82c5.54,0,10.05,4.51,10.05,10.05v14.65c0,5.54-4.51,10.05-10.05,10.05ZM429.73,248.08h18.98v-13.81h-18.98v13.81Z"/>
            <path d="M449.13,261.04h-19.82c-6.92,0-12.55-5.63-12.55-12.55v-14.65c0-6.92,5.63-12.55,12.55-12.55h19.82c6.92,0,12.55,5.63,12.55,12.55v14.65c0,6.92-5.63,12.55-12.55,12.55ZM429.31,226.3c-4.16,0-7.55,3.38-7.55,7.55v14.65c0,4.16,3.39,7.55,7.55,7.55h19.82c4.16,0,7.55-3.38,7.55-7.55v-14.65c0-4.16-3.38-7.55-7.55-7.55h-19.82ZM451.21,250.58h-23.98v-18.81h23.98v18.81ZM432.23,245.58h13.98v-8.81h-13.98v8.81Z"/>
          </g>
        </g>
      </g>
      <circle class="cls-1" cx="97.33" cy="449.56" r="17.5"/>
      <circle class="cls-1" cx="301.3" cy="449.56" r="17.5"/>
      <circle class="cls-1" cx="504.67" cy="449.56" r="17.5"/>
    </g>
  </g>
</svg>