<svg width="24" height="24" viewBox="0 0 24 24" fill="none" xmlns="http://www.w3.org/2000/svg">
<g clip-path="url(#clip0_5_10556)">
<mask id="path-1-inside-1_5_10556" fill="white">
<path d="M21.2444 23.9998H2.8082C-0.899492 23.3663 -0.896484 18.2047 2.83077 17.6357H21.1241C24.919 17.9225 24.9581 23.602 21.2444 23.9998ZM2.79768 18.1402C-0.312879 18.7227 -0.207589 23.0735 2.93756 23.5044L21.0729 23.5089C24.2737 23.114 24.382 18.6867 21.2143 18.1327L2.79768 18.1402Z"/>
</mask>
<path d="M21.2444 23.9998H2.8082C-0.899492 23.3663 -0.896484 18.2047 2.83077 17.6357H21.1241C24.919 17.9225 24.9581 23.602 21.2444 23.9998ZM2.79768 18.1402C-0.312879 18.7227 -0.207589 23.0735 2.93756 23.5044L21.0729 23.5089C24.2737 23.114 24.382 18.6867 21.2143 18.1327L2.79768 18.1402Z" fill="white"/>
<path d="M21.2444 23.9998V25.9998H21.3512L21.4574 25.9884L21.2444 23.9998ZM2.8082 23.9998L2.47134 25.9712L2.63856 25.9998H2.8082V23.9998ZM2.83077 17.6357V15.6357H2.67899L2.52895 15.6586L2.83077 17.6357ZM21.1241 17.6357L21.2748 15.6414L21.1995 15.6357H21.1241V17.6357ZM2.79768 18.1402L2.79686 16.1402L2.61162 16.1403L2.42954 16.1744L2.79768 18.1402ZM2.93756 23.5044L2.6661 25.4859L2.80095 25.5043L2.93706 25.5044L2.93756 23.5044ZM21.0729 23.5089L21.0724 25.5089L21.1956 25.5089L21.3178 25.4938L21.0729 23.5089ZM21.2143 18.1327L21.5589 16.1626L21.3875 16.1326L21.2135 16.1327L21.2143 18.1327ZM21.2444 21.9998H2.8082V25.9998H21.2444V21.9998ZM3.14507 22.0284C2.68723 21.9501 2.43546 21.7577 2.28858 21.5731C2.12691 21.3698 2.03072 21.0956 2.03138 20.798C2.03204 20.5005 2.12913 20.2348 2.28528 20.0427C2.42589 19.8698 2.67188 19.6832 3.13259 19.6128L2.52895 15.6586C-3.55214 16.587 -3.36426 24.9741 2.47134 25.9712L3.14507 22.0284ZM2.83077 19.6357H21.1241V15.6357H2.83077V19.6357ZM20.9734 19.6301C21.3878 19.6614 21.5973 19.8157 21.7255 19.9705C21.8795 20.1565 21.9955 20.4497 22.0002 20.8026C22.0048 21.1558 21.8963 21.4577 21.7449 21.6531C21.6179 21.8171 21.4174 21.9698 21.0314 22.0112L21.4574 25.9884C24.5697 25.655 26.0301 23.0395 25.9998 20.7496C25.9693 18.4431 24.4238 15.8794 21.2748 15.6414L20.9734 19.6301ZM2.42954 16.1744C-2.92379 17.1769 -2.71512 24.7487 2.6661 25.4859L3.20902 21.5229C2.89478 21.4798 2.75231 21.3622 2.67907 21.2755C2.59014 21.1703 2.52577 21.0141 2.52109 20.8287C2.51641 20.6432 2.57289 20.4844 2.6557 20.3758C2.72368 20.2866 2.85807 20.1636 3.16581 20.106L2.42954 16.1744ZM2.93706 25.5044L21.0724 25.5089L21.0734 21.5089L2.93806 21.5044L2.93706 25.5044ZM21.3178 25.4938C26.7953 24.8181 26.9956 17.1134 21.5589 16.1626L20.8698 20.1028C21.1889 20.1586 21.3268 20.284 21.3955 20.373C21.4797 20.482 21.5372 20.6421 21.5325 20.8295C21.5277 21.0169 21.4621 21.1738 21.3723 21.2786C21.2988 21.3643 21.1532 21.4838 20.8281 21.5239L21.3178 25.4938ZM21.2135 16.1327L2.79686 16.1402L2.79849 20.1402L21.2151 20.1327L21.2135 16.1327Z" fill="white" mask="url(#path-1-inside-1_5_10556)"/>
<mask id="path-3-inside-2_5_10556" fill="white">
<path d="M12.6537 1.1661C12.7094 1.24267 12.7094 1.33275 12.7169 1.42133C12.7846 2.22002 12.5785 3.4466 12.7169 4.16272C12.7349 4.25881 12.9305 4.44197 12.9997 4.56508C13.2268 4.96443 13.2704 5.24217 13.2794 5.70457L16.3764 8.46098L16.4321 8.57959L14.9325 12.8388C14.8257 13.5279 15.0438 14.5188 14.9099 15.1659C14.8317 15.5442 14.4226 15.7634 14.0631 15.7889C12.4146 15.6838 10.59 15.93 8.96256 15.7904C8.5775 15.7574 8.16537 15.5622 8.07963 15.1553C7.93674 14.4767 8.15032 13.5024 8.04654 12.7908L6.54541 8.58109L9.69958 5.70607C9.72816 5.2842 9.76125 4.9359 9.97935 4.56508C10.0485 4.44797 10.2411 4.28283 10.2636 4.16423C10.4095 3.40156 10.1553 2.18549 10.2636 1.37328C10.2757 1.2772 10.3193 1.17361 10.414 1.13157C10.5419 1.07602 12.1513 1.08353 12.401 1.10455C12.4898 1.11205 12.58 1.11205 12.6567 1.1676L12.6537 1.1661ZM12.225 1.59398H10.754V3.84595C11.2744 3.6793 11.7046 3.6793 12.225 3.84595V1.59398ZM11.3812 4.20026C9.49201 4.35489 10.1117 7.35902 11.9483 6.67742C13.3276 6.16698 12.8492 4.08015 11.3812 4.20026ZM8.05707 11.285V9.49839C8.05707 9.45335 8.27517 9.14108 8.33383 9.09004C8.5038 8.94141 8.69332 8.90087 8.91292 8.88436C10.6171 8.75674 12.4852 8.98044 14.206 8.89036C14.4572 8.88736 14.9219 9.25818 14.9219 9.49839V11.285L15.8936 8.72221L13.0839 6.24354C12.577 7.3305 11.1736 7.58872 10.2877 6.78402L9.84849 6.24505L7.12149 8.66516L8.05857 11.285H8.05707ZM10.2636 9.37528H8.81666C8.758 9.37528 8.50831 9.58697 8.54441 9.69056L8.59254 15.1283C8.70385 15.2604 8.84824 15.283 9.01069 15.298C10.5961 15.4466 12.407 15.1809 14.0165 15.298C14.1804 15.3085 14.3113 15.2229 14.406 15.0998L14.4316 9.69206C14.4557 9.58547 14.3007 9.37528 14.2105 9.37528H12.7154V11.4066C12.7154 11.5102 12.4657 11.7834 12.3378 11.8119C12.1062 11.863 10.9931 11.854 10.7284 11.8239C10.4893 11.7954 10.2636 11.5432 10.2636 11.309V9.37528ZM12.225 9.37528H10.8277L10.754 9.44885V11.2594L10.8277 11.333H12.225V9.37528Z"/>
</mask>
<path d="M12.6537 1.1661C12.7094 1.24267 12.7094 1.33275 12.7169 1.42133C12.7846 2.22002 12.5785 3.4466 12.7169 4.16272C12.7349 4.25881 12.9305 4.44197 12.9997 4.56508C13.2268 4.96443 13.2704 5.24217 13.2794 5.70457L16.3764 8.46098L16.4321 8.57959L14.9325 12.8388C14.8257 13.5279 15.0438 14.5188 14.9099 15.1659C14.8317 15.5442 14.4226 15.7634 14.0631 15.7889C12.4146 15.6838 10.59 15.93 8.96256 15.7904C8.5775 15.7574 8.16537 15.5622 8.07963 15.1553C7.93674 14.4767 8.15032 13.5024 8.04654 12.7908L6.54541 8.58109L9.69958 5.70607C9.72816 5.2842 9.76125 4.9359 9.97935 4.56508C10.0485 4.44797 10.2411 4.28283 10.2636 4.16423C10.4095 3.40156 10.1553 2.18549 10.2636 1.37328C10.2757 1.2772 10.3193 1.17361 10.414 1.13157C10.5419 1.07602 12.1513 1.08353 12.401 1.10455C12.4898 1.11205 12.58 1.11205 12.6567 1.1676L12.6537 1.1661ZM12.225 1.59398H10.754V3.84595C11.2744 3.6793 11.7046 3.6793 12.225 3.84595V1.59398ZM11.3812 4.20026C9.49201 4.35489 10.1117 7.35902 11.9483 6.67742C13.3276 6.16698 12.8492 4.08015 11.3812 4.20026ZM8.05707 11.285V9.49839C8.05707 9.45335 8.27517 9.14108 8.33383 9.09004C8.5038 8.94141 8.69332 8.90087 8.91292 8.88436C10.6171 8.75674 12.4852 8.98044 14.206 8.89036C14.4572 8.88736 14.9219 9.25818 14.9219 9.49839V11.285L15.8936 8.72221L13.0839 6.24354C12.577 7.3305 11.1736 7.58872 10.2877 6.78402L9.84849 6.24505L7.12149 8.66516L8.05857 11.285H8.05707ZM10.2636 9.37528H8.81666C8.758 9.37528 8.50831 9.58697 8.54441 9.69056L8.59254 15.1283C8.70385 15.2604 8.84824 15.283 9.01069 15.298C10.5961 15.4466 12.407 15.1809 14.0165 15.298C14.1804 15.3085 14.3113 15.2229 14.406 15.0998L14.4316 9.69206C14.4557 9.58547 14.3007 9.37528 14.2105 9.37528H12.7154V11.4066C12.7154 11.5102 12.4657 11.7834 12.3378 11.8119C12.1062 11.863 10.9931 11.854 10.7284 11.8239C10.4893 11.7954 10.2636 11.5432 10.2636 11.309V9.37528ZM12.225 9.37528H10.8277L10.754 9.44885V11.2594L10.8277 11.333H12.225V9.37528Z" fill="white"/>
<path d="M12.6537 1.1661L13.5466 -0.623498L11.0359 2.342L12.6537 1.1661ZM12.7169 1.42133L14.7097 1.25244L14.7097 1.25212L12.7169 1.42133ZM12.7169 4.16272L14.6825 3.79347L14.6806 3.78327L12.7169 4.16272ZM12.9997 4.56508L11.2561 5.54499L11.2612 5.55382L12.9997 4.56508ZM13.2794 5.70457L11.2798 5.7436L11.2969 6.61746L11.9498 7.19855L13.2794 5.70457ZM16.3764 8.46098L18.187 7.61138L18.0127 7.23985L17.7061 6.96701L16.3764 8.46098ZM16.4321 8.57959L18.3186 9.2438L18.5906 8.47135L18.2427 7.72998L16.4321 8.57959ZM14.9325 12.8388L13.046 12.1746L12.9844 12.3494L12.9561 12.5325L14.9325 12.8388ZM14.9099 15.1659L12.9514 14.7607L12.9513 14.7609L14.9099 15.1659ZM14.0631 15.7889L13.9358 17.7848L14.0703 17.7934L14.2047 17.7839L14.0631 15.7889ZM8.96256 15.7904L9.13351 13.7977L9.13348 13.7977L8.96256 15.7904ZM8.07963 15.1553L6.12255 15.5674L6.12261 15.5677L8.07963 15.1553ZM8.04654 12.7908L10.0256 12.5021L9.99698 12.3059L9.93035 12.119L8.04654 12.7908ZM6.54541 8.58109L5.19812 7.10298L4.21464 7.99942L4.6616 9.25284L6.54541 8.58109ZM9.69958 5.70607L11.0469 7.18418L11.6407 6.64291L11.695 5.84125L9.69958 5.70607ZM9.97935 4.56508L8.25745 3.54769L8.25542 3.55115L9.97935 4.56508ZM10.2636 4.16423L8.29926 3.78843L8.29887 3.79047L10.2636 4.16423ZM10.2636 1.37328L12.2461 1.63762L12.2471 1.62972L12.2481 1.62181L10.2636 1.37328ZM10.414 1.13157L9.61707 -0.702773L9.61004 -0.699722L9.60305 -0.696617L10.414 1.13157ZM12.401 1.10455L12.5696 -0.888335L12.5688 -0.888403L12.401 1.10455ZM12.6567 1.1676L11.7638 2.9572L13.8297 -0.452288L12.6567 1.1676ZM12.225 1.59398H14.225V-0.406024H12.225V1.59398ZM10.754 1.59398V-0.406024H8.75398V1.59398H10.754ZM10.754 3.84595H8.75398V6.58639L11.3639 5.75068L10.754 3.84595ZM12.225 3.84595L11.6151 5.75068L14.225 6.58639V3.84595H12.225ZM11.3812 4.20026L11.2181 2.20692L11.218 2.20692L11.3812 4.20026ZM11.9483 6.67742L11.2541 4.80175L11.2524 4.80239L11.9483 6.67742ZM8.05707 11.285H6.05707V13.285H8.05707V11.285ZM8.33383 9.09004L9.6467 10.5988L9.65038 10.5956L8.33383 9.09004ZM8.91292 8.88436L8.76358 6.88994L8.76294 6.88999L8.91292 8.88436ZM14.206 8.89036L14.1821 6.8905L14.1417 6.89099L14.1014 6.8931L14.206 8.89036ZM14.9219 11.285H12.9219L16.792 11.994L14.9219 11.285ZM15.8936 8.72221L17.7637 9.43127L18.2542 8.13764L17.2167 7.2224L15.8936 8.72221ZM13.0839 6.24354L14.407 4.74374L12.4016 2.9746L11.2713 5.39825L13.0839 6.24354ZM10.2877 6.78402L8.7373 8.04744L8.83201 8.16367L8.94299 8.26447L10.2877 6.78402ZM9.84849 6.24505L11.3989 4.98162L10.0812 3.36455L8.52096 4.74917L9.84849 6.24505ZM7.12149 8.66516L5.79396 7.16929L4.78319 8.0663L5.23834 9.33875L7.12149 8.66516ZM8.05857 11.285V13.285H10.898L9.94173 10.6114L8.05857 11.285ZM10.2636 9.37528H12.2636V7.37528H10.2636V9.37528ZM8.54441 9.69056L10.5443 9.67286L10.5414 9.34347L10.433 9.03242L8.54441 9.69056ZM8.59254 15.1283L6.59262 15.146L6.59899 15.8662L7.06301 16.4169L8.59254 15.1283ZM9.01069 15.298L9.19738 13.3067L9.19474 13.3065L9.01069 15.298ZM14.0165 15.298L13.8713 17.2927L13.8799 17.2933L13.8885 17.2939L14.0165 15.298ZM14.406 15.0998L15.9909 16.3197L16.4028 15.7846L16.406 15.1093L14.406 15.0998ZM14.4316 9.69206L12.4807 9.2516L12.4327 9.46442L12.4316 9.6826L14.4316 9.69206ZM12.7154 9.37528V7.37528H10.7154V9.37528H12.7154ZM12.3378 11.8119L12.7682 13.7651L12.7734 13.7639L12.3378 11.8119ZM10.7284 11.8239L10.4915 13.8099L10.503 13.8112L10.7284 11.8239ZM12.225 9.37528H14.225V7.37528H12.225V9.37528ZM10.8277 9.37528V7.37528H10.0004L9.4148 7.95975L10.8277 9.37528ZM10.754 9.44885L9.34109 8.03331L8.75398 8.61933V9.44885H10.754ZM10.754 11.2594H8.75398V12.089L9.3411 12.675L10.754 11.2594ZM10.8277 11.333L9.4148 12.7485L10.0004 13.333H10.8277V11.333ZM12.225 11.333V13.333H14.225V11.333H12.225ZM11.0359 2.342C10.8334 2.06343 10.7626 1.79429 10.736 1.64915C10.7238 1.58221 10.7197 1.53396 10.7192 1.52862C10.719 1.52561 10.7189 1.525 10.7198 1.53706C10.7205 1.54531 10.7221 1.56732 10.7241 1.59053L14.7097 1.25212C14.7098 1.25319 14.7098 1.25301 14.7087 1.23907C14.708 1.22895 14.7063 1.20618 14.7041 1.18107C14.6998 1.13154 14.6908 1.03937 14.6707 0.92927C14.6283 0.697808 14.5296 0.345343 14.2715 -0.00979865L11.0359 2.342ZM10.724 1.59021C10.7431 1.81574 10.7232 2.13949 10.6931 2.71926C10.6702 3.15947 10.6292 3.90028 10.7532 4.54217L14.6806 3.78327C14.6815 3.78825 14.6779 3.77056 14.6744 3.72311C14.6709 3.67683 14.6684 3.61485 14.668 3.53408C14.6671 3.36739 14.675 3.17094 14.6877 2.92671C14.7091 2.51449 14.7583 1.82561 14.7097 1.25244L10.724 1.59021ZM10.7513 4.53197C10.8 4.7914 10.8882 4.98823 10.9419 5.0957C11.0001 5.21238 11.0592 5.30528 11.0999 5.36571C11.1778 5.48139 11.2573 5.57882 11.2902 5.61907C11.3068 5.63934 11.3327 5.67066 11.3396 5.6791C11.3455 5.68631 11.3497 5.69145 11.3529 5.69544C11.3545 5.69735 11.3557 5.69878 11.3565 5.6998C11.3569 5.7003 11.3572 5.70067 11.3574 5.70093C11.3575 5.70106 11.3575 5.70115 11.3576 5.70122C11.3576 5.70125 11.3576 5.70127 11.3577 5.70129C11.3577 5.70131 11.3577 5.70131 11.3577 5.70131C11.3577 5.70131 11.3577 5.7013 11.3577 5.70129C11.3576 5.70127 11.3576 5.70125 11.3576 5.70121C11.3575 5.70115 11.3575 5.70105 11.3574 5.70091C11.3571 5.70064 11.3568 5.70022 11.3564 5.69967C11.3555 5.69857 11.3542 5.69681 11.3524 5.69444C11.349 5.68991 11.343 5.68191 11.3353 5.671C11.3221 5.65223 11.2917 5.60823 11.2562 5.54498L14.7432 3.58518C14.6903 3.49114 14.6387 3.41449 14.6014 3.36177C14.5629 3.30733 14.527 3.26062 14.5 3.22625C14.4727 3.19162 14.4472 3.16048 14.4295 3.13891C14.4061 3.11048 14.4013 3.10479 14.388 3.08847C14.3783 3.07658 14.3771 3.07498 14.3802 3.07891C14.3827 3.08216 14.3974 3.10134 14.418 3.13192C14.4368 3.15974 14.4771 3.22161 14.5209 3.3094C14.5436 3.35498 14.572 3.4168 14.5998 3.49263C14.6273 3.56759 14.6592 3.66945 14.6825 3.79348L10.7513 4.53197ZM11.2612 5.55382C11.2822 5.59086 11.2865 5.60299 11.2839 5.59652C11.2803 5.58773 11.2752 5.57238 11.2715 5.55611C11.2682 5.54178 11.2697 5.5425 11.2722 5.56993C11.275 5.60083 11.278 5.65234 11.2798 5.7436L15.279 5.66555C15.2661 5.00114 15.1848 4.36157 14.7382 3.57633L11.2612 5.55382ZM11.9498 7.19855L15.0468 9.95496L17.7061 6.96701L14.6091 4.21059L11.9498 7.19855ZM14.5659 9.31059L14.6215 9.42919L18.2427 7.72998L18.187 7.61138L14.5659 9.31059ZM14.5456 7.91538L13.046 12.1746L16.819 13.503L18.3186 9.2438L14.5456 7.91538ZM12.9561 12.5325C12.8625 13.1361 12.9152 13.8026 12.9348 14.1358C12.9473 14.3482 12.9549 14.4983 12.9549 14.6257C12.9549 14.7569 12.9457 14.788 12.9514 14.7607L16.8684 15.571C16.9995 14.9374 16.9481 14.2432 16.9279 13.9004C16.9147 13.677 16.9049 13.5168 16.9024 13.3688C16.9013 13.2994 16.9021 13.2463 16.904 13.2058C16.905 13.1861 16.9061 13.1712 16.9071 13.1606C16.9081 13.15 16.9089 13.1451 16.9089 13.1451L12.9561 12.5325ZM12.9513 14.7609C13.0436 14.3145 13.3159 14.0573 13.4781 13.9486C13.6308 13.8462 13.7787 13.8041 13.9214 13.7939L14.2047 17.7839C14.707 17.7482 15.2392 17.5837 15.7059 17.2708C16.182 16.9515 16.698 16.3955 16.8685 15.5708L12.9513 14.7609ZM14.1903 13.7929C13.246 13.7327 12.2686 13.774 11.4334 13.8039C10.5522 13.8354 9.80766 13.8556 9.13351 13.7977L8.7916 17.7831C9.74494 17.8649 10.7264 17.8317 11.5764 17.8013C12.4726 17.7693 13.2316 17.74 13.9358 17.7848L14.1903 13.7929ZM9.13348 13.7977C9.18931 13.8025 9.31979 13.8214 9.48823 13.9293C9.6842 14.055 9.94815 14.323 10.0366 14.7429L6.12261 15.5677C6.48448 17.285 8.08934 17.7228 8.79163 17.7831L9.13348 13.7977ZM10.0367 14.7432C10.0391 14.7544 10.0298 14.7125 10.0287 14.5826C10.0276 14.4545 10.0341 14.3038 10.0455 14.0934C10.0637 13.7576 10.113 13.1017 10.0256 12.5021L6.06748 13.0794C6.08382 13.1915 6.07831 13.3786 6.05133 13.8775C6.03181 14.2386 5.98715 14.9244 6.12255 15.5674L10.0367 14.7432ZM9.93035 12.119L8.42922 7.90934L4.6616 9.25284L6.16272 13.4625L9.93035 12.119ZM7.8927 10.0592L11.0469 7.18418L8.35229 4.22796L5.19812 7.10298L7.8927 10.0592ZM11.695 5.84125C11.7019 5.7391 11.7072 5.67179 11.7132 5.6161C11.7189 5.56317 11.7236 5.53751 11.7257 5.5276C11.7273 5.51966 11.7264 5.52657 11.7207 5.54177C11.7147 5.55762 11.708 5.57102 11.7033 5.579L8.25542 3.55115C7.77654 4.36537 7.73326 5.14132 7.70416 5.5709L11.695 5.84125ZM11.7012 5.58246C11.6325 5.69886 11.5707 5.76879 11.5871 5.74909C11.5889 5.74683 11.5936 5.74137 11.6091 5.72333C11.6212 5.70929 11.6449 5.68184 11.6686 5.65378C11.7106 5.60384 11.8017 5.49464 11.8916 5.35764C11.9387 5.28577 11.9997 5.18512 12.0581 5.06088C12.1152 4.93919 12.186 4.76095 12.2284 4.53798L8.29887 3.79047C8.33564 3.59716 8.39545 3.45002 8.43748 3.36051C8.48071 3.26847 8.52241 3.20109 8.54727 3.16321C8.5731 3.12384 8.59353 3.09702 8.60189 3.08625C8.61065 3.07496 8.61466 3.07041 8.6094 3.07665C8.60325 3.08396 8.59644 3.09186 8.57842 3.11278C8.56384 3.1297 8.53876 3.15881 8.51252 3.19035C8.48614 3.22205 8.44904 3.26756 8.4088 3.32138C8.36974 3.37362 8.31444 3.45125 8.25746 3.54769L11.7012 5.58246ZM12.228 4.54002C12.3581 3.8598 12.301 3.09128 12.2737 2.66071C12.2367 2.07699 12.2241 1.80259 12.2461 1.63762L8.28118 1.10895C8.19488 1.75618 8.25523 2.49593 8.28175 2.91396C8.29786 3.16791 8.30883 3.36426 8.31001 3.53447C8.31057 3.61606 8.30868 3.67834 8.30556 3.72496C8.30238 3.77239 8.29871 3.79129 8.29926 3.78843L12.228 4.54002ZM12.2481 1.62181C12.2302 1.76502 12.1829 1.97785 12.0514 2.21192C11.9127 2.45872 11.6534 2.76974 11.2251 2.95976L9.60305 -0.696617C8.55255 -0.230605 8.3247 0.760959 8.27914 1.12475L12.2481 1.62181ZM11.211 2.96592C11.0599 3.03158 10.9364 3.06199 10.8921 3.0725C10.8345 3.08618 10.7899 3.09371 10.7678 3.09722C10.7432 3.10112 10.7255 3.10329 10.7172 3.10425C10.7125 3.10479 10.7091 3.10515 10.7071 3.10536C10.705 3.10556 10.7039 3.10566 10.7039 3.10566C10.7039 3.10566 10.7047 3.10559 10.7064 3.10546C10.708 3.10533 10.7103 3.10515 10.7134 3.10493C10.7196 3.10449 10.728 3.10395 10.7386 3.10333C10.7602 3.10209 10.7878 3.10075 10.8218 3.09942C10.9622 3.09391 11.1579 3.09048 11.3727 3.08932C11.5845 3.08817 11.7996 3.08929 11.9735 3.09187C12.0607 3.09317 12.1332 3.09477 12.1874 3.09644C12.2542 3.09851 12.2599 3.09974 12.2332 3.0975L12.5688 -0.888403C12.3373 -0.907889 11.7771 -0.912936 11.351 -0.910623C11.1162 -0.909349 10.87 -0.90555 10.6649 -0.897503C10.5651 -0.893588 10.4529 -0.88785 10.3479 -0.878461C10.297 -0.873914 10.2232 -0.866396 10.1416 -0.853457C10.1169 -0.849547 9.87952 -0.816803 9.61707 -0.702773L11.211 2.96592ZM12.2324 3.09743C12.2556 3.09939 12.2776 3.101 12.2859 3.10162C12.298 3.10252 12.2974 3.1025 12.2945 3.10225C12.2893 3.1018 12.2414 3.09778 12.1748 3.08564C12.0305 3.05936 11.7621 2.98905 11.4837 2.78749L13.8297 -0.452288C13.4747 -0.709394 13.1227 -0.807476 12.892 -0.849525C12.7822 -0.869545 12.6902 -0.87844 12.6407 -0.882738C12.6157 -0.884916 12.5929 -0.886595 12.5828 -0.88735C12.5688 -0.888387 12.5686 -0.88842 12.5696 -0.888335L12.2324 3.09743ZM13.5497 -0.621997L13.5466 -0.623498L11.7608 2.9557L11.7638 2.9572L13.5497 -0.621997ZM12.225 -0.406024H10.754V3.59398H12.225V-0.406024ZM8.75398 1.59398V3.84595H12.754V1.59398H8.75398ZM11.3639 5.75068C11.4178 5.73343 11.4508 5.72643 11.4678 5.72352C11.4836 5.72081 11.4894 5.72096 11.4895 5.72096C11.4896 5.72096 11.4954 5.72081 11.5112 5.72352C11.5282 5.72643 11.5613 5.73343 11.6151 5.75068L12.8349 1.94121C11.9178 1.64755 11.0612 1.64755 10.1441 1.94121L11.3639 5.75068ZM14.225 3.84595V1.59398H10.225V3.84595H14.225ZM11.218 2.20692C10.1516 2.29422 9.24161 2.8322 8.70793 3.70557C8.21686 4.50923 8.14928 5.42004 8.31288 6.17564C8.47652 6.93147 8.91833 7.74452 9.72204 8.27186C10.5937 8.84377 11.6515 8.92086 12.6441 8.55246L11.2524 4.80239C11.2675 4.7968 11.3566 4.76816 11.5005 4.78126C11.6474 4.79464 11.7931 4.84659 11.9164 4.92747C12.1464 5.07839 12.207 5.25855 12.2223 5.32921C12.2375 5.39965 12.2545 5.57304 12.1212 5.79123C12.0488 5.90961 11.9429 6.01883 11.8125 6.09663C11.6832 6.17377 11.5794 6.19072 11.5444 6.19359L11.218 2.20692ZM12.6424 8.5531C14.4424 7.88698 14.9946 6.12075 14.682 4.75585C14.3703 3.39499 13.1152 2.05171 11.2181 2.20692L11.5443 6.1936C11.4004 6.20537 11.1945 6.15738 11.0216 6.01687C10.8731 5.89615 10.8076 5.7566 10.783 5.64892C10.7584 5.54146 10.7553 5.38133 10.8416 5.19975C10.942 4.98842 11.1156 4.853 11.2541 4.80175L12.6424 8.5531ZM10.0571 11.285V9.49839H6.05707V11.285H10.0571ZM10.0571 9.49839C10.0571 9.68557 10.0304 9.83355 10.0124 9.91682C9.99282 10.007 9.97047 10.0793 9.95444 10.1267C9.9232 10.2192 9.89197 10.288 9.87701 10.3198C9.84606 10.3858 9.82058 10.4289 9.81701 10.435C9.80583 10.454 9.80638 10.4516 9.82214 10.4286C9.82813 10.4199 9.83426 10.4112 9.8398 10.4036C9.8425 10.3999 9.84473 10.3968 9.84642 10.3946C9.84813 10.3923 9.84892 10.3913 9.84875 10.3915C9.84865 10.3916 9.84682 10.394 9.84336 10.3983C9.8401 10.4023 9.83345 10.4105 9.82382 10.4217C9.822 10.4238 9.75429 10.5052 9.6467 10.5988L7.02096 7.58127C6.83396 7.74399 6.69507 7.93087 6.68293 7.94659C6.62764 8.01818 6.57289 8.0942 6.52476 8.1643C6.47866 8.23142 6.42102 8.3187 6.36711 8.41056C6.34218 8.45306 6.2992 8.52833 6.25609 8.62017C6.23505 8.66499 6.19908 8.7451 6.16462 8.84717C6.14378 8.90889 6.05707 9.16255 6.05707 9.49839H10.0571ZM9.65038 10.5956C9.51197 10.7166 9.35577 10.7972 9.2149 10.8423C9.09584 10.8805 9.02097 10.8819 9.0629 10.8787L8.76294 6.88999C8.38643 6.9183 7.67249 7.01152 7.01728 7.58448L9.65038 10.5956ZM9.06227 10.8788C9.79233 10.8241 10.5828 10.8432 11.4891 10.8723C12.3569 10.9001 13.3478 10.938 14.3105 10.8876L14.1014 6.8931C13.3434 6.93278 12.5399 6.9039 11.6174 6.87431C10.7334 6.84596 9.7377 6.817 8.76358 6.88994L9.06227 10.8788ZM14.2299 10.8902C13.8508 10.8947 13.6027 10.7748 13.5542 10.7514C13.4694 10.7104 13.4161 10.6714 13.3817 10.6429C13.3505 10.617 13.281 10.5554 13.2019 10.4413C13.153 10.3708 12.9219 10.0322 12.9219 9.49839H16.9219C16.9219 8.84453 16.6328 8.36949 16.4889 8.16197C16.3148 7.91081 16.1134 7.71167 15.9346 7.56346C15.7526 7.41262 15.536 7.2664 15.2935 7.14929C15.0872 7.04968 14.6868 6.88447 14.1821 6.8905L14.2299 10.8902ZM12.9219 9.49839V11.285H16.9219V9.49839H12.9219ZM16.792 11.994L17.7637 9.43127L14.0235 8.01316L13.0519 10.5759L16.792 11.994ZM17.2167 7.2224L14.407 4.74374L11.7608 7.74335L14.5705 10.222L17.2167 7.2224ZM11.2713 5.39825C11.2835 5.37202 11.3093 5.33643 11.3485 5.30669C11.3848 5.27915 11.4219 5.26453 11.4543 5.25837C11.5209 5.2457 11.5915 5.26641 11.6324 5.30356L8.94299 8.26447C10.7912 9.94322 13.7999 9.44017 14.8965 7.08884L11.2713 5.39825ZM11.8381 5.52059L11.3989 4.98162L8.29809 7.50847L8.7373 8.04744L11.8381 5.52059ZM8.52096 4.74917L5.79396 7.16929L8.44903 10.161L11.176 7.74092L8.52096 4.74917ZM5.23834 9.33875L6.17542 11.9585L9.94173 10.6114L9.00465 7.99157L5.23834 9.33875ZM8.05857 9.28496H8.05707V13.285H8.05857V9.28496ZM10.2636 7.37528H8.81666V11.3753H10.2636V7.37528ZM8.81666 7.37528C8.33156 7.37528 7.97653 7.55472 7.91497 7.58453C7.78203 7.6489 7.6768 7.71663 7.6081 7.76406C7.46705 7.86142 7.33701 7.97259 7.22402 8.08665C7.12039 8.19129 6.95734 8.37209 6.81796 8.62128C6.73346 8.77235 6.35103 9.47413 6.6558 10.3487L10.433 9.03242C10.7197 9.8552 10.355 10.4917 10.309 10.5739C10.2081 10.7543 10.1044 10.8627 10.066 10.9015C10.0182 10.9497 9.95935 11.0015 9.88049 11.0559C9.84288 11.0819 9.7665 11.1322 9.65831 11.1846C9.62148 11.2025 9.28709 11.3753 8.81666 11.3753V7.37528ZM6.54449 9.70826L6.59262 15.146L10.5925 15.1106L10.5443 9.67286L6.54449 9.70826ZM7.06301 16.4169C7.74227 17.2232 8.65694 17.2738 8.82664 17.2895L9.19474 13.3065C9.11979 13.2995 9.25342 13.3045 9.42897 13.3644C9.65676 13.4423 9.91448 13.5933 10.1221 13.8397L7.06301 16.4169ZM8.82401 17.2892C9.76987 17.3779 10.7501 17.3407 11.5825 17.3083C12.4674 17.2738 13.2009 17.2439 13.8713 17.2927L14.1616 13.3032C13.2226 13.2349 12.2458 13.2794 11.4266 13.3113C10.5549 13.3453 9.83687 13.3667 9.19738 13.3067L8.82401 17.2892ZM13.8885 17.2939C14.9238 17.3602 15.6352 16.7818 15.9909 16.3197L12.8212 13.8799C12.904 13.7723 13.0497 13.6185 13.2798 13.493C13.5254 13.3591 13.8258 13.2816 14.1444 13.3021L13.8885 17.2939ZM16.406 15.1093L16.4316 9.70152L12.4316 9.6826L12.4061 15.0903L16.406 15.1093ZM16.3825 10.1325C16.5098 9.56849 16.3703 9.10988 16.3006 8.91727C16.2149 8.68016 16.1 8.48345 15.9919 8.33197C15.8852 8.18236 15.7346 8.00629 15.5323 7.84518C15.3993 7.73929 14.9242 7.37528 14.2105 7.37528V11.3753C13.5419 11.3753 13.12 11.0375 13.0407 10.9744C12.892 10.856 12.7957 10.7392 12.7359 10.6554C12.6748 10.5698 12.5998 10.4456 12.5392 10.2779C12.4946 10.1547 12.3654 9.76234 12.4807 9.2516L16.3825 10.1325ZM14.2105 7.37528H12.7154V11.3753H14.2105V7.37528ZM10.7154 9.37528V11.4066H14.7154V9.37528H10.7154ZM10.7154 11.4066C10.7154 11.055 10.8117 10.7978 10.8512 10.7006C10.9001 10.5799 10.9507 10.4939 10.9786 10.4492C11.0348 10.3594 11.0824 10.3052 11.1058 10.2799C11.1309 10.2528 11.1748 10.2085 11.2457 10.1549C11.2819 10.1276 11.3449 10.0829 11.4327 10.035C11.5104 9.99257 11.6736 9.91095 11.9023 9.85991L12.7734 13.7639C13.2341 13.6611 13.5531 13.4248 13.6558 13.3473C13.8095 13.2313 13.9398 13.1068 14.0433 12.9949C14.1451 12.8848 14.2631 12.741 14.3701 12.57C14.4234 12.4847 14.4945 12.3601 14.5576 12.2045C14.6112 12.0724 14.7154 11.784 14.7154 11.4066H10.7154ZM11.9074 9.85878C12.0111 9.83593 12.075 9.8328 12.0412 9.83571C12.0278 9.83687 11.996 9.83906 11.9428 9.84128C11.8375 9.84566 11.6971 9.84816 11.5433 9.84832C11.3913 9.84849 11.2406 9.84637 11.1178 9.84276C10.9718 9.83847 10.928 9.83374 10.9538 9.83667L10.503 13.8112C10.765 13.8409 11.2187 13.8487 11.5477 13.8483C11.7343 13.8481 11.9321 13.8452 12.1089 13.8378C12.2229 13.8331 12.5109 13.8218 12.7682 13.7651L11.9074 9.85878ZM10.9653 9.838C11.4365 9.89421 11.7372 10.1327 11.893 10.3057C12.0459 10.4756 12.2636 10.8107 12.2636 11.309H8.26364C8.26364 12.0414 8.59419 12.6197 8.9197 12.9815C9.24804 13.3463 9.78113 13.7251 10.4915 13.8099L10.9653 9.838ZM12.2636 11.309V9.37528H8.26364V11.309H12.2636ZM12.225 7.37528H10.8277V11.3753H12.225V7.37528ZM9.4148 7.95975L9.34109 8.03331L12.1669 10.8644L12.2406 10.7908L9.4148 7.95975ZM8.75398 9.44885V11.2594H12.754V9.44885H8.75398ZM9.3411 12.675L9.4148 12.7485L12.2406 9.91746L12.1669 9.84389L9.3411 12.675ZM10.8277 13.333H12.225V9.333H10.8277V13.333ZM14.225 11.333V9.37528H10.225V11.333H14.225Z" fill="white" mask="url(#path-3-inside-2_5_10556)"/>
<mask id="path-5-inside-3_5_10556" fill="white">
<path d="M2.84416 19.118L21.1224 19.106C23.1094 19.5068 23.0086 22.3083 20.9735 22.532H3.07881C1.09184 22.3083 0.923381 19.6164 2.84416 19.118ZM2.94193 19.6074C1.4739 19.8581 1.75517 22.2647 3.40821 22.0305C4.94394 21.8113 4.70328 19.3086 2.94193 19.6074ZM10.801 19.5954H4.47465C4.49721 19.7365 4.62356 19.8026 4.69726 19.9362C5.08232 20.6403 4.98756 21.4675 4.42652 22.0425H10.8507C10.1437 21.3594 10.1633 20.3175 10.801 19.5954ZM11.8178 19.6074C10.3483 19.8386 10.5814 22.0635 12.0465 22.038C13.7281 22.008 13.5611 19.3342 11.8178 19.6074ZM19.5777 19.5954H13.2528C13.892 20.3175 13.9116 21.3594 13.2031 22.0425H19.6273C19.0663 21.4675 18.9715 20.6403 19.3566 19.9362C19.4288 19.8026 19.5566 19.7365 19.5792 19.5954H19.5777ZM20.5448 19.6074C20.1523 19.6735 19.6845 20.1599 19.6303 20.5547C19.4273 22.0125 21.2443 22.583 21.9031 21.4525C22.4746 20.4722 21.6429 19.4227 20.5448 19.6074Z"/>
</mask>
<path d="M2.84416 19.118L21.1224 19.106C23.1094 19.5068 23.0086 22.3083 20.9735 22.532H3.07881C1.09184 22.3083 0.923381 19.6164 2.84416 19.118ZM2.94193 19.6074C1.4739 19.8581 1.75517 22.2647 3.40821 22.0305C4.94394 21.8113 4.70328 19.3086 2.94193 19.6074ZM10.801 19.5954H4.47465C4.49721 19.7365 4.62356 19.8026 4.69726 19.9362C5.08232 20.6403 4.98756 21.4675 4.42652 22.0425H10.8507C10.1437 21.3594 10.1633 20.3175 10.801 19.5954ZM11.8178 19.6074C10.3483 19.8386 10.5814 22.0635 12.0465 22.038C13.7281 22.008 13.5611 19.3342 11.8178 19.6074ZM19.5777 19.5954H13.2528C13.892 20.3175 13.9116 21.3594 13.2031 22.0425H19.6273C19.0663 21.4675 18.9715 20.6403 19.3566 19.9362C19.4288 19.8026 19.5566 19.7365 19.5792 19.5954H19.5777ZM20.5448 19.6074C20.1523 19.6735 19.6845 20.1599 19.6303 20.5547C19.4273 22.0125 21.2443 22.583 21.9031 21.4525C22.4746 20.4722 21.6429 19.4227 20.5448 19.6074Z" fill="white"/>
<path d="M2.84416 19.118L2.84285 17.118L2.58825 17.1181L2.34181 17.1821L2.84416 19.118ZM21.1224 19.106L21.5179 17.1455L21.3215 17.1058L21.1211 17.106L21.1224 19.106ZM20.9735 22.532V24.532H21.0831L21.192 24.52L20.9735 22.532ZM3.07881 22.532L2.85506 24.5194L2.96658 24.532H3.07881V22.532ZM2.94193 19.6074L2.60747 17.6356L2.60524 17.6359L2.94193 19.6074ZM3.40821 22.0305L3.68877 24.0107L3.69081 24.0105L3.40821 22.0305ZM10.801 19.5954L12.3001 20.9193L15.2357 17.5954H10.801V19.5954ZM4.47465 19.5954V17.5954H2.1295L2.49973 19.9111L4.47465 19.5954ZM4.69726 19.9362L6.45202 18.9766L6.44851 18.9702L4.69726 19.9362ZM4.42652 22.0425L2.99503 20.6458L-0.319231 24.0425H4.42652V22.0425ZM10.8507 22.0425V24.0425H15.7987L12.2404 20.6043L10.8507 22.0425ZM11.8178 19.6074L11.5081 17.6315L11.507 17.6317L11.8178 19.6074ZM12.0465 22.038L12.0813 24.0377L12.0822 24.0377L12.0465 22.038ZM13.2528 19.5954V17.5954H8.81125L11.7553 20.9211L13.2528 19.5954ZM13.2031 22.0425L11.8149 20.6028L8.24754 24.0425H13.2031V22.0425ZM19.6273 22.0425V24.0425H24.3731L21.0588 20.6458L19.6273 22.0425ZM19.3566 19.9362L21.1113 20.8958L21.1161 20.8869L19.3566 19.9362ZM19.5792 19.5954L21.5541 19.9111L21.9243 17.5954H19.5792V19.5954ZM20.5448 19.6074L20.2131 17.6351L20.213 17.6351L20.5448 19.6074ZM19.6303 20.5547L21.6112 20.8306L21.6118 20.8265L19.6303 20.5547ZM21.9031 21.4525L20.1753 20.4452L20.1751 20.4455L21.9031 21.4525ZM2.84548 21.118L21.1237 21.106L21.1211 17.106L2.84285 17.118L2.84548 21.118ZM20.7269 21.0665C20.7496 21.071 20.7366 21.0718 20.7049 21.0519C20.6736 21.0322 20.6413 21.003 20.6148 20.9671C20.564 20.8983 20.5565 20.8386 20.5578 20.8053C20.5592 20.7716 20.5721 20.7069 20.634 20.6366C20.666 20.6003 20.7029 20.5727 20.7368 20.5554C20.7707 20.5381 20.7823 20.5409 20.755 20.5439L21.192 24.52C25.5789 24.0378 25.6635 17.9818 21.5179 17.1455L20.7269 21.0665ZM20.9735 20.532H3.07881V24.532H20.9735V20.532ZM3.30256 20.5445C3.27669 20.5416 3.28654 20.5389 3.31749 20.5544C3.34828 20.5699 3.38276 20.5949 3.41341 20.6286C3.4731 20.6942 3.48921 20.758 3.49174 20.7962C3.49424 20.8342 3.48666 20.8939 3.4411 20.9605C3.41745 20.995 3.38895 21.0227 3.36195 21.0414C3.33466 21.0604 3.3242 21.0596 3.34652 21.0538L2.34181 17.1821C-1.65577 18.2194 -1.40872 24.0394 2.85506 24.5194L3.30256 20.5445ZM2.60524 17.6359C0.498567 17.9957 -0.182345 19.9464 0.028203 21.3067C0.138047 22.0164 0.487771 22.7695 1.15107 23.3223C1.85228 23.9067 2.75718 24.1427 3.68877 24.0107L3.12765 20.0503C3.23272 20.0354 3.48258 20.0584 3.71201 20.2496C3.90352 20.4092 3.96473 20.5889 3.98113 20.6949C3.99706 20.7978 3.99231 20.9631 3.87824 21.1533C3.73816 21.3869 3.49748 21.5415 3.27863 21.5789L2.60524 17.6359ZM3.69081 24.0105C5.82802 23.7054 6.59391 21.7531 6.39119 20.3406C6.28591 19.6071 5.92321 18.8247 5.21946 18.2644C4.47849 17.6745 3.5424 17.477 2.60747 17.6356L3.2764 21.5792C3.22214 21.5884 2.97664 21.5917 2.72817 21.3939C2.51694 21.2257 2.44867 21.0267 2.43176 20.9088C2.41541 20.7949 2.42647 20.6278 2.54339 20.444C2.68725 20.2178 2.92448 20.0793 3.12562 20.0506L3.69081 24.0105ZM10.801 17.5954H4.47465V21.5954H10.801V17.5954ZM2.49973 19.9111C2.60176 20.5493 2.94795 20.9532 3.04868 21.0707C3.0729 21.0989 3.09984 21.1291 3.10289 21.1326C3.11208 21.1429 3.1058 21.136 3.09549 21.1236C3.07307 21.0966 3.01028 21.0187 2.94601 20.9022L6.44851 18.9702C6.34739 18.7869 6.24117 18.6506 6.17362 18.5692C6.14075 18.5296 6.11148 18.4965 6.09787 18.4811C6.07814 18.4588 6.08246 18.4637 6.08487 18.4665C6.09146 18.4742 6.16595 18.5595 6.24248 18.6926C6.32768 18.8408 6.41111 19.0391 6.44957 19.2796L2.49973 19.9111ZM2.94251 20.8958C2.94285 20.8964 2.93776 20.8871 2.9339 20.8675C2.93005 20.8479 2.92815 20.8215 2.93202 20.7905C2.9407 20.7208 2.97285 20.6685 2.99503 20.6458L5.858 23.4393C7.0613 22.206 7.23892 20.4155 6.45201 18.9766L2.94251 20.8958ZM4.42652 24.0425H10.8507V20.0425H4.42652V24.0425ZM12.2404 20.6043C12.252 20.6155 12.2751 20.643 12.2941 20.6876C12.3127 20.7311 12.3212 20.776 12.3215 20.8164C12.3222 20.8983 12.2914 20.9292 12.3001 20.9193L9.30196 18.2715C8.03287 19.7085 7.90397 21.9763 9.46093 23.4808L12.2404 20.6043ZM11.507 17.6317C10.603 17.7739 9.84765 18.2591 9.36807 18.9721C8.91351 19.6478 8.77286 20.4248 8.84146 21.1164C8.97711 22.484 10.0733 24.0727 12.0813 24.0377L12.0116 20.0383C12.1946 20.0351 12.4336 20.1176 12.6128 20.3C12.763 20.4529 12.811 20.6117 12.8219 20.7216C12.8328 20.8312 12.8178 21.0102 12.6871 21.2046C12.5313 21.4361 12.2979 21.5565 12.1287 21.5831L11.507 17.6317ZM12.0822 24.0377C13.0879 24.0197 13.9705 23.5775 14.5481 22.8297C15.0865 22.1327 15.2679 21.2949 15.2105 20.5545C15.1531 19.8134 14.842 18.9965 14.1691 18.3863C13.4482 17.7324 12.4883 17.4779 11.5081 17.6315L12.1275 21.5833C12.019 21.6003 11.7337 21.5776 11.4818 21.3491C11.278 21.1643 11.2305 20.9665 11.2225 20.8635C11.2145 20.7611 11.2313 20.5803 11.3825 20.3846C11.573 20.138 11.8458 20.0413 12.0108 20.0383L12.0822 24.0377ZM19.5777 17.5954H13.2528V21.5954H19.5777V17.5954ZM11.7553 20.9211C11.7642 20.9312 11.7327 20.8996 11.7334 20.8164C11.7338 20.7754 11.7424 20.73 11.7612 20.6862C11.7804 20.6413 11.8035 20.6138 11.8149 20.6028L14.5914 23.4823C16.1519 21.9776 16.023 19.7073 14.7503 18.2697L11.7553 20.9211ZM13.2031 24.0425H19.6273V20.0425H13.2031V24.0425ZM21.0588 20.6458C21.081 20.6685 21.1131 20.7208 21.1218 20.7905C21.1257 20.8215 21.1238 20.8479 21.1199 20.8675C21.1161 20.8871 21.111 20.8964 21.1113 20.8958L17.6018 18.9766C16.8149 20.4155 16.9925 22.206 18.1958 23.4393L21.0588 20.6458ZM21.1161 20.8869C21.0499 21.0095 20.9842 21.0916 20.9597 21.1213C20.9482 21.1351 20.9411 21.1429 20.9494 21.1335C20.9511 21.1316 20.9786 21.1009 21.0018 21.0739C21.099 20.9611 21.4512 20.5548 21.5541 19.9111L17.6043 19.2796C17.6433 19.0355 17.7284 18.8354 17.8143 18.6872C17.8912 18.5543 17.9659 18.4694 17.9712 18.4633C17.9725 18.4618 17.9773 18.4563 17.9561 18.4802C17.9417 18.4965 17.9116 18.5305 17.8776 18.5716C17.8081 18.6556 17.6993 18.7961 17.597 18.9854L21.1161 20.8869ZM19.5792 17.5954H19.5777V21.5954H19.5792V17.5954ZM20.213 17.6351C19.4358 17.7659 18.8555 18.2225 18.5209 18.5696C18.1852 18.9178 17.7548 19.5102 17.6489 20.283L21.6118 20.8265C21.5821 21.0425 21.5124 21.1797 21.483 21.2317C21.4491 21.2918 21.4193 21.3264 21.4005 21.3459C21.3817 21.3654 21.3475 21.3972 21.2869 21.4343C21.2342 21.4665 21.0962 21.5427 20.8767 21.5797L20.213 17.6351ZM17.6494 20.2788C17.1661 23.7486 21.7876 25.6229 23.6311 22.4595L20.1751 20.4455C20.2622 20.296 20.4268 20.1546 20.6348 20.0884C20.8206 20.0292 20.9892 20.0452 21.1193 20.0919C21.2526 20.1397 21.3952 20.238 21.4982 20.4011C21.612 20.5813 21.6221 20.7527 21.6112 20.8306L17.6494 20.2788ZM23.6309 22.4599C24.3283 21.2635 24.1994 19.8835 23.445 18.8863C22.714 17.9202 21.4841 17.4213 20.2131 17.6351L20.8765 21.5797C20.7035 21.6088 20.4386 21.5423 20.2551 21.2998C20.1656 21.1814 20.1015 21.0261 20.0904 20.8509C20.0789 20.6688 20.1283 20.5258 20.1753 20.4452L23.6309 22.4599Z" fill="white" mask="url(#path-5-inside-3_5_10556)"/>
<path d="M11.327 5.84131L11.4559 5.8667C11.4878 5.86962 11.5176 5.86736 11.5458 5.86475L11.4335 5.48584M11.327 5.84131L11.3544 5.75049L11.4335 5.48584M11.327 5.84131L11.5458 5.104C11.482 5.0981 11.4092 5.10393 11.327 5.12842L11.2753 5.1499C11.0322 5.282 11.0506 5.75825 11.327 5.84131ZM11.4335 5.48584L11.5468 5.86475C11.9887 5.82285 11.9891 5.1468 11.5477 5.104L11.4335 5.48584Z" fill="white" stroke="white" stroke-width="2"/>
<path d="M20.7405 20.437C21.3361 20.3079 21.3826 21.1186 20.9133 21.2026H20.9065C20.4329 21.2809 20.307 20.6264 20.6624 20.4634L20.7405 20.437Z" fill="white" stroke="white" stroke-width="2"/>
<path d="M3.08948 20.437C3.66845 20.3124 3.78744 21.1338 3.26135 21.2017H3.25354C2.8204 21.2499 2.66078 20.6213 3.01233 20.4624L3.08948 20.437Z" fill="white" stroke="white" stroke-width="2"/>
<path d="M11.7311 20.5488C12.0814 20.1556 12.6856 20.7208 12.3073 21.0977L12.2418 21.1504C11.9265 21.3545 11.4682 20.9745 11.6754 20.623L11.7311 20.5488Z" fill="white" stroke="white" stroke-width="2"/>
</g>
<defs>
<clipPath id="clip0_5_10556">
<rect width="24" height="24" fill="white"/>
</clipPath>
</defs>
</svg>
