<svg width="15" height="16" viewBox="0 0 15 16" fill="none" xmlns="http://www.w3.org/2000/svg">
<path d="M0 6.92857H6.42857V0.5H0V6.92857ZM2.14286 2.64286H4.28571V4.78571H2.14286V2.64286ZM8.57143 0.5V6.92857H15V0.5H8.57143ZM12.8571 4.78571H10.7143V2.64286H12.8571V4.78571ZM0 15.5H6.42857V9.07143H0V15.5ZM2.14286 11.2143H4.28571V13.3571H2.14286V11.2143ZM13.9286 9.07143H15V13.3571H11.7857V12.2857H10.7143V15.5H8.57143V9.07143H11.7857V10.1429H13.9286V9.07143ZM13.9286 14.4286H15V15.5H13.9286V14.4286ZM11.7857 14.4286H12.8571V15.5H11.7857V14.4286Z" fill="white"/>
</svg>
