<?xml version="1.0" standalone="no"?>
<!DOCTYPE svg PUBLIC "-//W3C//DTD SVG 20010904//EN"
 "http://www.w3.org/TR/2001/REC-SVG-20010904/DTD/svg10.dtd">
<svg version="1.0" xmlns="http://www.w3.org/2000/svg"
 width="512.000000pt" height="512.000000pt" viewBox="0 0 512.000000 512.000000"
 preserveAspectRatio="xMidYMid meet">

<g transform="translate(0.000000,512.000000) scale(0.100000,-0.100000)"
fill="#000000" stroke="none">
<path d="M2840 4982 c-69 -37 -179 -97 -245 -132 -66 -34 -255 -135 -420 -223
-165 -88 -381 -202 -480 -255 -284 -150 -698 -374 -722 -389 -12 -8 -26 -28
-32 -45 -7 -21 -11 -198 -11 -524 0 -389 -3 -494 -12 -494 -7 0 -38 7 -68 15
-123 33 -146 17 -180 -125 -13 -52 -26 -102 -31 -110 -4 -10 -42 -22 -101 -34
-183 -37 -181 -34 -134 -239 l33 -148 -108 -101 c-112 -106 -133 -134 -124
-171 4 -12 50 -62 104 -111 l99 -88 -34 -128 c-48 -180 -42 -190 126 -230 52
-12 99 -26 104 -30 4 -5 19 -57 32 -117 19 -88 28 -112 49 -130 14 -13 32 -23
39 -23 8 0 73 14 146 30 73 17 136 30 141 30 5 0 59 -47 119 -105 143 -139
141 -139 271 -9 l96 96 115 -31 c189 -51 194 -48 233 111 15 62 29 114 31 116
1 2 37 12 79 23 l77 20 446 -283 c323 -204 457 -283 482 -285 30 -3 174 70
1035 531 575 307 1007 544 1017 558 17 22 18 86 18 997 0 780 -2 977 -12 988
-12 11 -1855 1025 -1980 1089 -26 13 -53 24 -60 24 -7 0 -69 -31 -138 -68z
m1050 -592 c465 -255 862 -472 882 -484 l37 -22 -262 -142 -263 -142 -912 497
c-502 273 -912 500 -912 503 0 4 118 70 261 147 l262 141 31 -18 c17 -10 411
-226 876 -480z m-635 -407 l950 -519 3 -286 2 -286 -165 -90 -165 -90 0 271
c0 198 -4 279 -13 297 -7 15 -47 43 -97 71 -47 25 -472 257 -945 514 -473 257
-861 469 -863 470 -6 5 324 174 333 171 6 -2 438 -238 960 -523z m-1097 74
c1260 -682 1480 -802 1474 -808 -4 -4 -133 -75 -287 -159 -154 -84 -299 -162
-322 -175 l-41 -23 -209 118 c-1336 750 -1603 904 -1586 914 96 57 591 324
601 325 7 1 174 -86 370 -192z m-286 -700 c431 -244 840 -477 911 -517 l127
-72 0 -839 c0 -462 -3 -839 -6 -839 -3 0 -174 102 -379 226 l-372 226 -30 132
-29 132 108 113 c142 149 142 144 7 273 l-102 97 33 125 c35 135 35 166 -5
192 -13 8 -70 28 -127 42 l-103 27 -25 112 c-38 170 -47 174 -247 129 -61 -14
-118 -26 -125 -26 -7 0 -64 47 -126 105 -139 130 -144 131 -237 44 l-65 -61 0
411 c0 226 2 411 5 411 2 0 356 -200 787 -443z m3016 -468 l-3 -861 -909 -484
c-500 -266 -911 -484 -913 -484 -2 0 -3 382 -3 849 l0 848 329 182 c181 99
332 181 335 181 3 0 6 -126 6 -279 0 -397 -17 -387 335 -196 138 74 260 147
273 161 22 25 22 28 22 342 l1 317 257 142 c141 78 260 142 265 142 4 1 6
-386 5 -860z m-3543 -79 c51 -51 100 -92 115 -95 15 -3 80 6 145 20 65 14 122
22 125 18 4 -5 15 -50 25 -101 10 -51 25 -102 34 -113 10 -13 50 -28 109 -44
52 -13 96 -26 99 -28 2 -3 -7 -48 -21 -100 -39 -141 -40 -138 61 -239 l87 -88
-92 -87 c-108 -103 -107 -98 -68 -274 l23 -106 -101 -22 c-60 -13 -108 -29
-119 -40 -10 -9 -25 -44 -33 -77 -8 -32 -20 -75 -25 -96 l-9 -36 -108 29 c-59
16 -116 26 -127 23 -11 -4 -57 -42 -101 -85 -45 -44 -86 -79 -90 -79 -5 0 -48
39 -94 86 -47 47 -96 90 -109 95 -19 7 -57 3 -148 -17 -68 -15 -126 -24 -129
-21 -3 3 -15 45 -25 94 -14 60 -27 95 -42 109 -13 12 -60 31 -112 44 -49 13
-91 24 -93 25 -1 1 9 52 23 113 18 78 22 118 16 134 -5 13 -46 59 -90 103
l-81 80 94 95 c51 52 96 103 100 113 3 10 -8 72 -24 137 -17 65 -30 123 -30
128 0 4 43 16 96 26 127 24 145 39 169 145 10 44 21 85 26 92 6 10 32 6 114
-15 58 -15 116 -25 128 -22 12 3 58 41 102 86 44 44 82 80 85 80 3 0 46 -40
95 -90z"/>
<path d="M1140 2645 c-152 -28 -303 -129 -394 -262 -264 -387 -2 -921 470
-959 103 -8 202 13 313 66 154 74 281 229 326 400 19 71 19 218 -1 300 -50
214 -232 397 -444 448 -79 19 -191 22 -270 7z m313 -177 c101 -48 171 -118
222 -220 33 -67 38 -88 43 -168 6 -112 -14 -196 -68 -278 -167 -257 -508 -296
-720 -82 -119 121 -166 287 -124 445 37 146 159 274 309 328 39 13 74 17 155
15 97 -3 111 -6 183 -40z"/>
<path d="M1505 2268 c-17 -10 -296 -241 -361 -300 -21 -19 -21 -19 -82 70 -34
49 -69 92 -78 96 -30 12 -64 6 -84 -14 -36 -36 -26 -74 52 -194 92 -144 113
-166 154 -166 28 0 65 26 231 163 261 214 283 236 283 274 0 23 -9 39 -31 57
-33 28 -53 32 -84 14z"/>
<path d="M446 1385 c-19 -15 -366 -1056 -366 -1100 0 -45 40 -71 99 -66 7 1
52 38 100 83 47 46 102 98 122 116 l36 33 27 -163 c22 -137 31 -167 50 -187
29 -28 71 -31 96 -5 11 11 93 234 184 497 140 404 164 481 154 501 -20 46 -80
52 -115 13 -11 -12 -67 -152 -123 -312 -57 -159 -108 -301 -113 -315 -8 -21
-12 -11 -28 70 -14 72 -24 99 -41 113 -37 31 -81 16 -148 -48 -32 -30 -61 -55
-64 -55 -2 0 10 44 29 98 157 458 225 663 225 675 0 8 -9 26 -21 41 -23 30
-71 35 -103 11z"/>
<path d="M1946 1339 c-14 -11 -26 -30 -26 -42 0 -12 65 -181 145 -376 80 -195
145 -356 145 -358 0 -2 -30 22 -67 52 -79 65 -103 74 -139 51 -31 -21 -40 -44
-49 -129 -4 -37 -10 -67 -14 -67 -3 0 -64 143 -136 317 -117 286 -133 319
-157 327 -37 13 -78 -2 -97 -35 -14 -25 -6 -47 178 -495 106 -258 201 -477
210 -487 24 -25 77 -25 102 0 25 24 34 64 50 215 6 64 15 122 19 129 5 8 50
-24 136 -95 94 -78 136 -106 156 -106 28 0 63 30 73 61 7 21 -403 1010 -431
1040 -22 25 -65 24 -98 -2z"/>
</g>
</svg>
