<svg width="15" height="14" viewBox="0 0 15 14" fill="none" xmlns="http://www.w3.org/2000/svg">
<path d="M5.60677 12.8333H9.10677C12.0234 12.8333 13.1901 11.6666 13.1901 8.74996V5.24996C13.1901 2.33329 12.0234 1.16663 9.10677 1.16663H5.60677C2.6901 1.16663 1.52344 2.33329 1.52344 5.24996V8.74996C1.52344 11.6666 2.6901 12.8333 5.60677 12.8333Z" stroke="white" stroke-linecap="round" stroke-linejoin="round"/>
<path d="M10.7993 5.27917C9.52767 5.15084 8.24435 5.08667 6.96685 5.08667C6.20851 5.08667 5.45018 5.1275 4.69768 5.20333L3.91602 5.27917" stroke="white" stroke-linecap="round" stroke-linejoin="round"/>
<path d="M6.02148 4.89421L6.10315 4.39255C6.16148 4.03088 6.20815 3.75671 6.85565 3.75671H7.85898C8.50648 3.75671 8.55314 4.04255 8.61148 4.39255L8.69314 4.88838" stroke="white" stroke-linecap="round" stroke-linejoin="round"/>
<path d="M9.97659 5.32593L9.72575 9.17592C9.68492 9.77676 9.64993 10.2434 8.58243 10.2434H6.12659C5.05909 10.2434 5.02408 9.77676 4.98325 9.17592L4.73242 5.32593" stroke="white" stroke-linecap="round" stroke-linejoin="round"/>
</svg>
