<svg width="32" height="24" viewBox="0 0 32 24" fill="none" xmlns="http://www.w3.org/2000/svg">
<g id="upload-icon" clip-path="url(#clip0_762_1130)">
<path id="Vector" d="M24.0683 6.32356C27.0731 6.51871 29.8027 8.68072 30.8482 11.6977C32.6547 16.9106 29.4646 22.4 24.3533 23.0223L5.34808 23.0189C-0.123993 22.2611 -1.51015 14.5208 3.2818 11.5949C2.80248 9.54747 3.39904 7.42574 4.89272 6.05409C6.11565 4.93037 7.59767 4.62826 9.18074 4.86509C12.5561 -1.66121 21.8712 -0.775015 24.0689 6.32356H24.0683ZM15.4495 1.5759C13.641 1.75647 11.7898 2.9163 10.6809 4.43033C10.4503 4.74563 9.89454 5.85546 9.7339 5.97769C9.41392 6.22077 8.99354 5.95061 8.64182 5.91866C6.10917 5.686 3.94185 7.73688 4.15884 10.5128C4.18863 10.8948 4.50019 11.7664 4.44643 12.0102C4.35899 12.4081 3.95415 12.4575 3.67822 12.6471C-0.166096 15.2924 1.03027 21.2013 5.47309 21.9139L24.3488 21.9104C30.1894 21.1041 32.4753 13.2499 27.9029 9.10437C26.4785 7.81258 25.4687 7.69382 23.7095 7.43408C23.1226 7.34726 23.1233 6.64928 22.9069 6.14715C21.524 2.94408 18.7575 1.24531 15.4495 1.5752V1.5759Z" fill="white"/>
<path id="Vector_2" d="M16.7551 11.4566V17.9996C16.7551 18.4823 15.7207 18.4823 15.7207 17.9996V11.4566C15.3359 11.6872 14.5392 12.8894 14.1868 12.9679C13.7574 13.0637 13.4724 12.6275 13.6013 12.1976L15.9435 9.65297C16.1087 9.54602 16.3658 9.54602 16.5323 9.65297C16.8633 10.1808 18.7825 11.8191 18.8758 12.2685C18.9691 12.7178 18.6543 13.0922 18.2391 12.9505C17.8783 12.8276 17.1541 11.6907 16.7551 11.4573V11.4566Z" fill="white"/>
</g>
<defs>
<clipPath id="clip0_762_1130">
<rect width="31" height="22.575" fill="white" transform="translate(0.357666 0.447266)"/>
</clipPath>
</defs>
</svg>
